{
.appVersion = "983";
DisplayStrings = (
"Handgloves\012HANDGLOVE\012/hoHip-thai/oAng-thai/koKai-thai/loLing-thai/saraAa-thai/ngoNgu-thai/thoThan-thai/saraAa-thai/noNu-thai/choChan-thai/toTao-thai/saraU-thai/roRua-thai/maiHanaKat-thai/soSua-thai"
);
copyright = "Copyright © 2018 by Cadson Demak Co.,Ltd.. All rights reserved.";
customParameters = (
{
name = vendorID;
value = CDK;
},
{
name = description;
value = "Copyright (c) 2018, Cadson Demak (info@cadsondemak.com)";
},
{
name = license;

glyphs = (
{
color = 1;
glyphname = A;
lastChange = "2018-02-12 09:30:10 +0000";
layers = (
{
anchors = (
{
name = bottom;
position = "{353, 0}";
},
{
name = ogonek;
position = "{634, 10}";
},
{
name = top;
position = "{353, 700}";
}
);
background = {
paths = (
{
closed = 1;
nodes = (
"142 163 LINE",
"579 163 LINE",
"579 279 LINE",
"142 279 LINE"
);
},
{
closed = 1;
nodes = (
"423 681 OFFCURVE",
"395 700 OFFCURVE",
"352 700 CURVE SMOOTH",
"290 700 LINE",
"5 0 LINE",
"150 0 LINE",
"235 212 LINE",
"236 235 LINE",
"370 571 LINE",
"337 571 LINE",
"471 235 LINE",
"474 206 LINE",
"556 0 LINE",
"701 0 LINE",
"440 640 LINE SMOOTH"
);
}
);
};
layerId = "EA06CE92-4115-4482-8874-2441C279E756";
paths = (
{
closed = 1;
nodes = (
"150 0 LINE",
"235 212 LINE",
"236 235 LINE",
"370 571 LINE",
"337 571 LINE",
"471 235 LINE",
"474 206 LINE",
"556 0 LINE",
"701 0 LINE",
"440 640 LINE SMOOTH",
"423 681 OFFCURVE",
"395 700 OFFCURVE",
"352 700 CURVE SMOOTH",
"290 700 LINE",
"5 0 LINE"
);
},
{
closed = 1;
nodes = (
"579 163 LINE",
"579 279 LINE",
"142 279 LINE",
"142 163 LINE"
);
}
);
width = 706;
},
{
associatedMasterId = "020CB1CC-CCFF-4D13-936A-D2256F19E5D3";
layerId = "8AF6BA7E-4672-4BE4-A9AE-4DB948958C2C";
width = 600;
},
{
associatedMasterId = "020CB1CC-CCFF-4D13-936A-D2256F19E5D3";
layerId = "99466340-D915-47F2-B9C7-36A05CF0162D";
width = 600;
},
{
anchors = (
{
name = bottom;
position = "{350, 0}";
},
{
name = ogonek;
position = "{631, 10}";
},
{
name = top;
position = "{350, 700}";
}
);
background = {
paths = (
{
closed = 1;
nodes = (
"88 0 LINE",
"174 228 LINE",
"183 237 LINE",
"338 633 LINE",
"359 633 LINE",
"521 221 LINE",
"530 209 LINE",
"612 0 LINE",
"646 0 LINE",
"382 664 LINE SMOOTH",
"370 695 OFFCURVE",
"355 710 OFFCURVE",
"331 710 CURVE SMOOTH",
"335 710 LINE",
"53 0 LINE"
);
},
{
closed = 1;
nodes = (
"541 213 LINE",
"541 242 LINE",
"160 242 LINE",
"160 213 LINE"
);
}
);
};
layerId = "020CB1CC-CCFF-4D13-936A-D2256F19E5D3";
paths = (
{
closed = 1;
nodes = (
"91 0 LINE",
"180 227 LINE",
"183 235 LINE",
"348 660 LINE",
"349 660 LINE",
"517 234 LINE",
"520 226 LINE",
"608 0 LINE",
"646 0 LINE",
"373 688 LINE SMOOTH",
"367 703 OFFCURVE",
"359 710 OFFCURVE",
"349 710 CURVE SMOOTH",
"334 710 LINE",
"53 0 LINE"
);
},
{
closed = 1;
nodes = (
"541 213 LINE",
"541 247 LINE",
"160 247 LINE",
"160 213 LINE"
);
}
);
width = 700;
},
{
associatedMasterId = "020CB1CC-CCFF-4D13-936A-D2256F19E5D3";
layerId = "CDD6304E-9070-4B97-9D2F-FE5AC4B99DAC";
width = 600;
},
{
anchors = (
{
name = bottom;
position = "{351, 0}";
},
{
name = ogonek;
position = "{632, 10}";
},
{
name = top;
position = "{351, 700}";
}
);
layerId = "76C6DC51-463D-4A0C-B694-3EB424048C5D";
paths = (
{
closed = 1;
nodes = (
"111 0 LINE",
"198 220 LINE",
"203 234 LINE",
"350 610 LINE",
"351 610 LINE",
"501 229 LINE",
"507 213 LINE",
"591 0 LINE",
"667 0 LINE",
"400 666 LINE SMOOTH",
"389 693 OFFCURVE",
"374 706 OFFCURVE",
"352 706 CURVE SMOOTH",
"318 706 LINE",
"35 0 LINE"
);
},
{
closed = 1;
nodes = (
"555 194 LINE",
"555 256 LINE",
"172 256 LINE",
"172 194 LINE"
);
}
);
width = 702;
}
);
note = A;
unicode = 0041;
},
{
glyphname = B;
lastChange = "2018-02-12 08:59:17 +0000";
layers = (
{
anchors = (
{
name = bottom;
position = "{337, 0}";
},
{
name = top;
position = "{337, 700}";
}
);
background = {
paths = (
{
closed = 1;
nodes = (
"429 1 LINE SMOOTH",
"566 1 OFFCURVE",
"658 81 OFFCURVE",
"658 201 CURVE SMOOTH",
"658 234 LINE SMOOTH",
"658 295 OFFCURVE",
"615 352 OFFCURVE",
"551 376 CURVE",
"586 399 OFFCURVE",
"609 442 OFFCURVE",
"609 483 CURVE SMOOTH",
"609 522 LINE SMOOTH",
"609 629 OFFCURVE",
"517 700 OFFCURVE",
"380 700 CURVE SMOOTH",
"45 700 LINE",
"45 94 LINE SMOOTH",
"45 38 OFFCURVE",
"83 1 OFFCURVE",
"140 1 CURVE SMOOTH"
);
},
{
closed = 1;
nodes = (
"181 119 LINE",
"181 295 LINE",
"439 295 LINE SMOOTH",
"489 295 OFFCURVE",
"522 271 OFFCURVE",
"522 234 CURVE SMOOTH",
"522 201 LINE SMOOTH",
"522 152 OFFCURVE",
"482 119 OFFCURVE",
"421 119 CURVE SMOOTH"
);
},
{
closed = 1;
nodes = (
"380 582 LINE SMOOTH",
"436 582 OFFCURVE",
"473 558 OFFCURVE",
"473 522 CURVE SMOOTH",
"473 483 LINE SMOOTH",
"473 439 OFFCURVE",
"444 409 OFFCURVE",
"400 409 CURVE SMOOTH",
"181 409 LINE",
"181 582 LINE"
);
}
);
};
layerId = "EA06CE92-4115-4482-8874-2441C279E756";
paths = (
{
closed = 1;
nodes = (
"429 1 LINE SMOOTH",
"566 1 OFFCURVE",
"658 81 OFFCURVE",
"658 201 CURVE SMOOTH",
"658 234 LINE SMOOTH",
"658 295 OFFCURVE",
"615 352 OFFCURVE",
"551 376 CURVE",
"586 399 OFFCURVE",
"609 442 OFFCURVE",
"609 483 CURVE SMOOTH",
"609 522 LINE SMOOTH",
"609 629 OFFCURVE",
"517 700 OFFCURVE",
"380 700 CURVE SMOOTH",
"45 700 LINE",
"45 94 LINE SMOOTH",
"45 38 OFFCURVE",
"83 1 OFFCURVE",
"140 1 CURVE SMOOTH"
);
},
{
closed = 1;
nodes = (
"181 119 LINE",
"181 295 LINE",
"439 295 LINE SMOOTH",
"489 295 OFFCURVE",
"522 271 OFFCURVE",
"522 234 CURVE SMOOTH",
"522 201 LINE SMOOTH",
"522 152 OFFCURVE",
"482 119 OFFCURVE",
"421 119 CURVE SMOOTH"
);
},
{
closed = 1;
nodes = (
"380 582 LINE SMOOTH",
"436 582 OFFCURVE",
"473 558 OFFCURVE",
"473 522 CURVE SMOOTH",
"473 483 LINE SMOOTH",
"473 439 OFFCURVE",
"444 409 OFFCURVE",
"400 409 CURVE SMOOTH",
"181 409 LINE",
"181 582 LINE"
);
}
);
width = 673;
},
{
associatedMasterId = "020CB1CC-CCFF-4D13-936A-D2256F19E5D3";
layerId = "8AF6BA7E-4672-4BE4-A9AE-4DB948958C2C";
width = 600;
},
{
associatedMasterId = "020CB1CC-CCFF-4D13-936A-D2256F19E5D3";
layerId = "7CCF7DA0-8AFE-42C1-A0AE-3F427D1BFBB4";
width = 600;
},
{
anchors = (
{
name = bottom;
position = "{334, 0}";
},
{
name = top;
position = "{334, 700}";
}
);
background = {
paths = (
{
closed = 1;
nodes = (
"427 0 LINE SMOOTH",
"546 0 OFFCURVE",
"625 72 OFFCURVE",
"625 181 CURVE SMOOTH",
"625 229 LINE SMOOTH",
"625 295 OFFCURVE",
"580 349 OFFCURVE",
"513 367 CURVE",
"553 393 OFFCURVE",
"576 441 OFFCURVE",
"576 492 CURVE SMOOTH",
"576 545 LINE SMOOTH",
"576 638 OFFCURVE",
"497 700 OFFCURVE",
"378 700 CURVE SMOOTH",
"75 700 LINE",
"75 65 LINE SMOOTH",
"75 24 OFFCURVE",
"99 0 OFFCURVE",
"140 0 CURVE SMOOTH"
);
},
{
closed = 1;
nodes = (
"144 62 LINE",
"144 323 LINE",
"437 323 LINE SMOOTH",
"507 323 OFFCURVE",
"554 285 OFFCURVE",
"554 229 CURVE SMOOTH",
"554 181 LINE SMOOTH",
"554 108 OFFCURVE",
"499 62 OFFCURVE",
"417 62 CURVE SMOOTH"
);
},
{
closed = 1;
nodes = (
"378 638 LINE SMOOTH",
"455 638 OFFCURVE",
"507 601 OFFCURVE",
"507 545 CURVE SMOOTH",
"507 492 LINE SMOOTH",
"507 425 OFFCURVE",
"463 381 OFFCURVE",
"398 381 CURVE SMOOTH",
"144 381 LINE",
"144 638 LINE"
);
}
);
};
layerId = "020CB1CC-CCFF-4D13-936A-D2256F19E5D3";
paths = (
{
closed = 1;
nodes = (
"426 -1 LINE SMOOTH",
"534 -1 OFFCURVE",
"605 67 OFFCURVE",
"605 169 CURVE SMOOTH",
"605 226 LINE SMOOTH",
"605 293 OFFCURVE",
"559 347 OFFCURVE",
"490 362 CURVE",
"530 388 OFFCURVE",
"556 442 OFFCURVE",
"556 497 CURVE SMOOTH",
"556 559 LINE SMOOTH",
"556 643 OFFCURVE",
"485 700 OFFCURVE",
"377 700 CURVE SMOOTH",
"93 700 LINE",
"93 48 LINE SMOOTH",
"93 19 OFFCURVE",
"112 -1 OFFCURVE",
"140 -1 CURVE SMOOTH"
);
},
{
closed = 1;
nodes = (
"130 34 LINE",
"130 337 LINE",
"436 337 LINE SMOOTH",
"515 337 OFFCURVE",
"568 292 OFFCURVE",
"568 226 CURVE SMOOTH",
"568 169 LINE SMOOTH",
"568 88 OFFCURVE",
"506 34 OFFCURVE",
"415 34 CURVE SMOOTH"
);
},
{
closed = 1;
nodes = (
"377 665 LINE SMOOTH",
"462 665 OFFCURVE",
"519 622 OFFCURVE",
"519 559 CURVE SMOOTH",
"519 497 LINE SMOOTH",
"519 420 OFFCURVE",
"470 367 OFFCURVE",
"397 367 CURVE SMOOTH",
"130 367 LINE",
"130 665 LINE"
);
}
);
width = 668;
},
{
associatedMasterId = "020CB1CC-CCFF-4D13-936A-D2256F19E5D3";
layerId = "10F24FA3-C4E4-4237-991D-39DCDABE0A14";
width = 600;
},
{
anchors = (
{
name = bottom;
position = "{335, 0}";
},
{
name = top;
position = "{335, 700}";
}
);
layerId = "76C6DC51-463D-4A0C-B694-3EB424048C5D";
paths = (
{
closed = 1;
nodes = (
"427 0 LINE SMOOTH",
"546 0 OFFCURVE",
"625 72 OFFCURVE",
"625 181 CURVE SMOOTH",
"625 229 LINE SMOOTH",
"625 294 OFFCURVE",
"580 349 OFFCURVE",
"513 367 CURVE",
"551 392 OFFCURVE",
"576 442 OFFCURVE",
"576 492 CURVE SMOOTH",
"576 545 LINE SMOOTH",
"576 638 OFFCURVE",
"497 700 OFFCURVE",
"378 700 CURVE SMOOTH",
"75 700 LINE",
"75 65 LINE SMOOTH",
"75 26 OFFCURVE",
"101 0 OFFCURVE",
"140 0 CURVE SMOOTH"
);
},
{
closed = 1;
nodes = (
"149 66 LINE",
"149 321 LINE",
"437 321 LINE SMOOTH",
"505 321 OFFCURVE",
"551 284 OFFCURVE",
"551 229 CURVE SMOOTH",
"551 181 LINE SMOOTH",
"551 112 OFFCURVE",
"497 66 OFFCURVE",
"417 66 CURVE SMOOTH"
);
},
{
closed = 1;
nodes = (
"378 634 LINE SMOOTH",
"452 634 OFFCURVE",
"502 598 OFFCURVE",
"502 545 CURVE SMOOTH",
"502 492 LINE SMOOTH",
"502 427 OFFCURVE",
"460 383 OFFCURVE",
"398 383 CURVE SMOOTH",
"149 383 LINE",
"149 634 LINE"
);
}
);
width = 670;
}
);
note = B;
unicode = 0042;
},
{
glyphname = C;
lastChange = "2018-02-12 08:59:17 +0000";
layers = (
{
anchors = (
{
name = bottom;
position = "{349, 0}";
},
{
name = top;
position = "{349, 700}";
}
);
background = {
paths = (
{
closed = 1;
nodes = (
"380 -5 LINE SMOOTH",
"557 -5 OFFCURVE",
"677 118 OFFCURVE",
"668 295 CURVE",
"531 295 LINE",
"540 188 OFFCURVE",
"477 117 OFFCURVE",
"380 117 CURVE SMOOTH",
"284 117 LINE SMOOTH",
"213 117 OFFCURVE",
"168 169 OFFCURVE",
"168 252 CURVE SMOOTH",
"168 394 LINE SMOOTH",
"168 510 OFFCURVE",
"232 584 OFFCURVE",
"329 584 CURVE SMOOTH",
"425 584 LINE SMOOTH",
"491 584 OFFCURVE",
"536 521 OFFCURVE",
"530 426 CURVE",
"666 426 LINE",
"674 590 OFFCURVE",
"572 706 OFFCURVE",
"425 706 CURVE SMOOTH",
"329 706 LINE SMOOTH",
"152 706 OFFCURVE",
"30 580 OFFCURVE",
"30 394 CURVE SMOOTH",
"30 252 LINE SMOOTH",
"30 100 OFFCURVE",
"133 -5 OFFCURVE",
"284 -5 CURVE SMOOTH"
);
}
);
};
layerId = "EA06CE92-4115-4482-8874-2441C279E756";
paths = (
{
closed = 1;
nodes = (
"380 -6 LINE SMOOTH",
"553 -6 OFFCURVE",
"668 110 OFFCURVE",
"668 284 CURVE",
"531 284 LINE",
"531 183 OFFCURVE",
"471 116 OFFCURVE",
"380 116 CURVE SMOOTH",
"284 116 LINE SMOOTH",
"214 116 OFFCURVE",
"168 170 OFFCURVE",
"168 251 CURVE SMOOTH",
"168 394 LINE SMOOTH",
"168 508 OFFCURVE",
"232 584 OFFCURVE",
"329 584 CURVE SMOOTH",
"425 584 LINE SMOOTH",
"488 584 OFFCURVE",
"530 525 OFFCURVE",
"530 436 CURVE",
"666 436 LINE",
"666 598 OFFCURVE",
"570 706 OFFCURVE",
"425 706 CURVE SMOOTH",
"329 706 LINE SMOOTH",
"150 706 OFFCURVE",
"30 581 OFFCURVE",
"30 394 CURVE SMOOTH",
"30 251 LINE SMOOTH",
"30 97 OFFCURVE",
"132 -6 OFFCURVE",
"284 -6 CURVE SMOOTH"
);
}
);
width = 698;
},
{
associatedMasterId = "020CB1CC-CCFF-4D13-936A-D2256F19E5D3";
layerId = "8AF6BA7E-4672-4BE4-A9AE-4DB948958C2C";
width = 600;
},
{
associatedMasterId = "020CB1CC-CCFF-4D13-936A-D2256F19E5D3";
layerId = "FF25770E-88C8-4453-8E9A-49D96EF16668";
width = 600;
},
{
anchors = (
{
name = bottom;
position = "{346, 0}";
},
{
name = top;
position = "{346, 700}";
}
);
background = {
paths = (
{
closed = 1;
nodes = (
"378 -6 LINE SMOOTH",
"528 -6 OFFCURVE",
"630 92 OFFCURVE",
"634 238 CURVE",
"567 238 LINE",
"563 129 OFFCURVE",
"487 56 OFFCURVE",
"378 56 CURVE SMOOTH",
"282 56 LINE SMOOTH",
"190 56 OFFCURVE",
"129 123 OFFCURVE",
"129 223 CURVE SMOOTH",
"129 422 LINE SMOOTH",
"129 555 OFFCURVE",
"208 644 OFFCURVE",
"327 644 CURVE SMOOTH",
"423 644 LINE SMOOTH",
"504 644 OFFCURVE",
"561 579 OFFCURVE",
"565 482 CURVE",
"632 482 LINE",
"628 616 OFFCURVE",
"544 706 OFFCURVE",
"423 706 CURVE SMOOTH",
"327 706 LINE SMOOTH",
"167 706 OFFCURVE",
"60 592 OFFCURVE",
"60 422 CURVE SMOOTH",
"60 223 LINE SMOOTH",
"60 86 OFFCURVE",
"149 -6 OFFCURVE",
"282 -6 CURVE SMOOTH"
);
}
);
};
layerId = "020CB1CC-CCFF-4D13-936A-D2256F19E5D3";
paths = (
{
closed = 1;
nodes = (
"377 -6 LINE SMOOTH",
"513 -6 OFFCURVE",
"607 81 OFFCURVE",
"614 210 CURVE",
"581 210 LINE",
"574 100 OFFCURVE",
"492 26 OFFCURVE",
"377 26 CURVE SMOOTH",
"281 26 LINE SMOOTH",
"180 26 OFFCURVE",
"114 98 OFFCURVE",
"114 206 CURVE SMOOTH",
"114 439 LINE SMOOTH",
"114 580 OFFCURVE",
"198 674 OFFCURVE",
"326 674 CURVE SMOOTH",
"422 674 LINE SMOOTH",
"509 674 OFFCURVE",
"572 608 OFFCURVE",
"578 510 CURVE",
"612 510 LINE",
"605 627 OFFCURVE",
"528 706 OFFCURVE",
"422 706 CURVE SMOOTH",
"326 706 LINE SMOOTH",
"177 706 OFFCURVE",
"78 599 OFFCURVE",
"78 439 CURVE SMOOTH",
"78 206 LINE SMOOTH",
"78 79 OFFCURVE",
"159 -6 OFFCURVE",
"281 -6 CURVE SMOOTH"
);
}
);
width = 692;
},
{
associatedMasterId = "020CB1CC-CCFF-4D13-936A-D2256F19E5D3";
layerId = "2BFD089B-F167-4B5F-A09E-913F8154E828";
width = 600;
},
{
anchors = (
{
name = bottom;
position = "{347, 0}";
},
{
name = top;
position = "{347, 700}";
}
);
layerId = "76C6DC51-463D-4A0C-B694-3EB424048C5D";
paths = (
{
closed = 1;
nodes = (
"378 -6 LINE SMOOTH",
"528 -6 OFFCURVE",
"630 92 OFFCURVE",
"634 238 CURVE",
"562 238 LINE",
"558 131 OFFCURVE",
"484 60 OFFCURVE",
"378 60 CURVE SMOOTH",
"282 60 LINE SMOOTH",
"193 60 OFFCURVE",
"134 125 OFFCURVE",
"134 223 CURVE SMOOTH",
"134 422 LINE SMOOTH",
"134 553 OFFCURVE",
"211 640 OFFCURVE",
"327 640 CURVE SMOOTH",
"423 640 LINE SMOOTH",
"501 640 OFFCURVE",
"556 577 OFFCURVE",
"560 482 CURVE",
"632 482 LINE",
"628 616 OFFCURVE",
"544 706 OFFCURVE",
"423 706 CURVE SMOOTH",
"327 706 LINE SMOOTH",
"167 706 OFFCURVE",
"60 592 OFFCURVE",
"60 422 CURVE SMOOTH",
"60 223 LINE SMOOTH",
"60 86 OFFCURVE",
"149 -6 OFFCURVE",
"282 -6 CURVE SMOOTH"
);
}
);
width = 694;
}
);
note = C;
unicode = 0043;
},
{
glyphname = D;
lastChange = "2018-02-12 09:22:35 +0000";
layers = (
{
anchors = (
{
name = bottom;
position = "{344, 0}";
},
{
name = center;
position = "{344, 350}";
},
{
name = top;
position = "{344, 700}";
}
);
background = {
paths = (
{
closed = 1;
nodes = (
"378 0 LINE SMOOTH",
"533 0 OFFCURVE",
"625 100 OFFCURVE",
"625 270 CURVE SMOOTH",
"625 470 LINE SMOOTH",
"625 608 OFFCURVE",
"525 700 OFFCURVE",
"376 700 CURVE SMOOTH",
"77 700 LINE",
"77 65 LINE SMOOTH",
"77 24 OFFCURVE",
"101 0 OFFCURVE",
"142 0 CURVE SMOOTH"
);
},
{
closed = 1;
nodes = (
"151 634 LINE",
"376 634 LINE SMOOTH",
"481 634 OFFCURVE",
"551 568 OFFCURVE",
"551 470 CURVE SMOOTH",
"551 270 LINE SMOOTH",
"551 142 OFFCURVE",
"486 66 OFFCURVE",
"378 66 CURVE SMOOTH",
"151 66 LINE"
);
}
);
};
layerId = "EA06CE92-4115-4482-8874-2441C279E756";
paths = (
{
closed = 1;
nodes = (
"378 0 LINE SMOOTH",
"553 0 OFFCURVE",
"657 111 OFFCURVE",
"657 298 CURVE SMOOTH",
"657 442 LINE SMOOTH",
"657 597 OFFCURVE",
"544 700 OFFCURVE",
"376 700 CURVE SMOOTH",
"45 700 LINE",
"45 93 LINE SMOOTH",
"45 37 OFFCURVE",
"83 0 OFFCURVE",
"142 0 CURVE SMOOTH"
);
},
{
closed = 1;
nodes = (
"183 578 LINE",
"376 578 LINE SMOOTH",
"462 578 OFFCURVE",
"519 524 OFFCURVE",
"519 442 CURVE SMOOTH",
"519 298 LINE SMOOTH",
"519 187 OFFCURVE",
"466 122 OFFCURVE",
"378 122 CURVE SMOOTH",
"183 122 LINE"
);
}
);
width = 687;
},
{
associatedMasterId = "020CB1CC-CCFF-4D13-936A-D2256F19E5D3";
layerId = "8AF6BA7E-4672-4BE4-A9AE-4DB948958C2C";
width = 600;
},
{
associatedMasterId = "020CB1CC-CCFF-4D13-936A-D2256F19E5D3";
layerId = "1A766C9D-23CA-44DD-A6BD-1F62F6C5910C";
width = 600;
},
{
anchors = (
{
name = bottom;
position = "{341, 0}";
},
{
name = center;
position = "{341, 350}";
},
{
name = top;
position = "{341, 700}";
}
);
layerId = "020CB1CC-CCFF-4D13-936A-D2256F19E5D3";
paths = (
{
closed = 1;
nodes = (
"375 0 LINE SMOOTH",
"519 0 OFFCURVE",
"604 94 OFFCURVE",
"604 253 CURVE SMOOTH",
"604 487 LINE SMOOTH",
"604 615 OFFCURVE",
"512 700 OFFCURVE",
"373 700 CURVE SMOOTH",
"93 700 LINE",
"93 46 LINE SMOOTH",
"93 17 OFFCURVE",
"110 0 OFFCURVE",
"139 0 CURVE SMOOTH"
);
},
{
closed = 1;
nodes = (
"129 666 LINE",
"373 666 LINE SMOOTH",
"491 666 OFFCURVE",
"568 594 OFFCURVE",
"568 487 CURVE SMOOTH",
"568 253 LINE SMOOTH",
"568 115 OFFCURVE",
"496 34 OFFCURVE",
"375 34 CURVE SMOOTH",
"129 34 LINE"
);
}
);
width = 682;
},
{
associatedMasterId = "020CB1CC-CCFF-4D13-936A-D2256F19E5D3";
layerId = "2FD66303-6CB8-400F-ACE2-7C8A588C61C9";
width = 600;
},
{
anchors = (
{
name = bottom;
position = "{342, 0}";
},
{
name = center;
position = "{342, 350}";
},
{
name = top;
position = "{342, 700}";
}
);
layerId = "76C6DC51-463D-4A0C-B694-3EB424048C5D";
paths = (
{
closed = 1;
nodes = (
"376 0 LINE SMOOTH",
"532 0 OFFCURVE",
"624 100 OFFCURVE",
"624 270 CURVE SMOOTH",
"624 470 LINE SMOOTH",
"624 608 OFFCURVE",
"524 700 OFFCURVE",
"374 700 CURVE SMOOTH",
"75 700 LINE",
"75 65 LINE SMOOTH",
"75 24 OFFCURVE",
"99 0 OFFCURVE",
"140 0 CURVE SMOOTH"
);
},
{
closed = 1;
nodes = (
"149 634 LINE",
"374 634 LINE SMOOTH",
"480 634 OFFCURVE",
"550 568 OFFCURVE",
"550 470 CURVE SMOOTH",
"550 270 LINE SMOOTH",
"550 142 OFFCURVE",
"485 66 OFFCURVE",
"376 66 CURVE SMOOTH",
"149 66 LINE"
);
}
);
width = 684;
}
);
note = D;
unicode = 0044;
},
{
color = 1;
glyphname = E;
lastChange = "2018-02-12 09:26:36 +0000";
layers = (
{
anchors = (
{
name = bottom;
position = "{302, 0}";
},
{
name = ogonek;
position = "{541, 10}";
},
{
name = top;
position = "{325, 700}";
},
{
name = topleft;
position = "{22, 700}";
}
);
background = {
paths = (
{
closed = 1;
nodes = (
"588 0 LINE",
"588 120 LINE",
"183 120 LINE",
"183 298 LINE",
"548 298 LINE",
"548 418 LINE",
"183 418 LINE",
"183 580 LINE",
"588 580 LINE",
"588 700 LINE",
"45 700 LINE",
"45 94 LINE SMOOTH",
"45 37 OFFCURVE",
"84 0 OFFCURVE",
"142 0 CURVE SMOOTH"
);
}
);
};
layerId = "EA06CE92-4115-4482-8874-2441C279E756";
paths = (
{
closed = 1;
nodes = (
"588 0 LINE",
"588 120 LINE",
"183 120 LINE",
"183 298 LINE",
"548 298 LINE",
"548 418 LINE",
"183 418 LINE",
"183 580 LINE",
"588 580 LINE",
"588 700 LINE",
"45 700 LINE",
"45 94 LINE SMOOTH",
"45 37 OFFCURVE",
"84 0 OFFCURVE",
"142 0 CURVE SMOOTH"
);
}
);
width = 603;
},
{
associatedMasterId = "020CB1CC-CCFF-4D13-936A-D2256F19E5D3";
layerId = "8AF6BA7E-4672-4BE4-A9AE-4DB948958C2C";
width = 600;
},
{
associatedMasterId = "020CB1CC-CCFF-4D13-936A-D2256F19E5D3";
layerId = "33B65A04-72D5-4DAA-B3DA-CE971CA5048F";
width = 600;
},
{
anchors = (
{
name = bottom;
position = "{299, 0}";
},
{
name = ogonek;
position = "{539, 10}";
},
{
name = top;
position = "{322, 700}";
},
{
name = topleft;
position = "{19, 700}";
}
);
background = {
paths = (
{
closed = 1;
nodes = (
"75 700 LINE",
"555 700 LINE",
"555 638 LINE",
"144 638 LINE",
"144 389 LINE",
"515 389 LINE",
"515 328 LINE",
"144 328 LINE",
"144 62 LINE",
"555 62 LINE",
"555 0 LINE",
"140 0 LINE SMOOTH",
"99 0 OFFCURVE",
"75 25 OFFCURVE",
"75 66 CURVE SMOOTH"
);
}
);
};
layerId = "020CB1CC-CCFF-4D13-936A-D2256F19E5D3";
paths = (
{
closed = 1;
nodes = (
"535 0 LINE",
"535 34 LINE",
"129 34 LINE",
"129 341 LINE",
"495 341 LINE",
"495 375 LINE",
"129 375 LINE",
"129 666 LINE",
"535 666 LINE",
"535 700 LINE",
"93 700 LINE",
"93 46 LINE SMOOTH",
"93 17 OFFCURVE",
"110 0 OFFCURVE",
"139 0 CURVE SMOOTH"
);
}
);
width = 598;
},
{
associatedMasterId = "020CB1CC-CCFF-4D13-936A-D2256F19E5D3";
layerId = "20E14A9A-F935-42FF-87F0-4E954DF04846";
width = 600;
},
{
anchors = (
{
name = bottom;
position = "{300, 0}";
},
{
name = ogonek;
position = "{540, 10}";
},
{
name = top;
position = "{323, 700}";
},
{
name = topleft;
position = "{20, 700}";
}
);
layerId = "76C6DC51-463D-4A0C-B694-3EB424048C5D";
paths = (
{
closed = 1;
nodes = (
"555 0 LINE",
"555 64 LINE",
"149 64 LINE",
"149 326 LINE",
"515 326 LINE",
"515 390 LINE",
"149 390 LINE",
"149 636 LINE",
"555 636 LINE",
"555 700 LINE",
"75 700 LINE",
"75 66 LINE SMOOTH",
"75 25 OFFCURVE",
"99 0 OFFCURVE",
"140 0 CURVE SMOOTH"
);
}
);
width = 600;
}
);
note = E;
unicode = 0045;
},
{
glyphname = F;
lastChange = "2018-02-12 08:59:17 +0000";
layers = (
{
anchors = (
{
name = bottom;
position = "{290, 0}";
},
{
name = top;
position = "{290, 700}";
}
);
background = {
paths = (
{
closed = 1;
nodes = (
"536 284 LINE",
"536 406 LINE",
"183 406 LINE",
"183 606 LINE",
"573 606 LINE",
"573 728 LINE",
"45 728 LINE",
"45 -28 LINE",
"183 -28 LINE",
"183 284 LINE"
);
}
);
};
layerId = "EA06CE92-4115-4482-8874-2441C279E756";
paths = (
{
closed = 1;
nodes = (
"536 256 LINE",
"536 378 LINE",
"183 378 LINE",
"183 578 LINE",
"573 578 LINE",
"573 700 LINE",
"45 700 LINE",
"45 0 LINE",
"183 0 LINE",
"183 256 LINE"
);
}
);
width = 578;
},
{
associatedMasterId = "020CB1CC-CCFF-4D13-936A-D2256F19E5D3";
layerId = "8AF6BA7E-4672-4BE4-A9AE-4DB948958C2C";
width = 600;
},
{
associatedMasterId = "020CB1CC-CCFF-4D13-936A-D2256F19E5D3";
layerId = "524EB777-08F8-4799-B31D-DF55BB0E0334";
width = 600;
},
{
anchors = (
{
name = bottom;
position = "{287, 0}";
},
{
name = top;
position = "{287, 700}";
}
);
layerId = "020CB1CC-CCFF-4D13-936A-D2256F19E5D3";
paths = (
{
closed = 1;
nodes = (
"483 346 LINE",
"483 378 LINE",
"129 378 LINE",
"129 668 LINE",
"520 668 LINE",
"520 700 LINE",
"93 700 LINE",
"93 0 LINE",
"129 0 LINE",
"129 346 LINE"
);
}
);
width = 573;
},
{
associatedMasterId = "020CB1CC-CCFF-4D13-936A-D2256F19E5D3";
layerId = "42ED4A9A-129A-4AA6-8B71-2FBD32596DD6";
width = 600;
},
{
anchors = (
{
name = bottom;
position = "{288, 0}";
},
{
name = top;
position = "{288, 700}";
}
);
layerId = "76C6DC51-463D-4A0C-B694-3EB424048C5D";
paths = (
{
closed = 1;
nodes = (
"503 312 LINE",
"503 378 LINE",
"149 378 LINE",
"149 634 LINE",
"540 634 LINE",
"540 700 LINE",
"75 700 LINE",
"75 0 LINE",
"149 0 LINE",
"149 312 LINE"
);
}
);
width = 575;
}
);
note = F;
unicode = 0046;
},
{
color = 1;
glyphname = G;
lastChange = "2018-02-12 09:26:36 +0000";
layers = (
{
anchors = (
{
name = bottom;
position = "{347, 0}";
},
{
name = top;
position = "{347, 700}";
}
);
background = {
paths = (
{
closed = 1;
nodes = (
"380 -5 LINE SMOOTH",
"549 -5 OFFCURVE",
"668 110 OFFCURVE",
"668 258 CURVE SMOOTH",
"668 324 LINE",
"532 324 LINE",
"532 259 LINE",
"528 170 OFFCURVE",
"472 117 OFFCURVE",
"380 117 CURVE SMOOTH",
"284 117 LINE SMOOTH",
"213 117 OFFCURVE",
"168 169 OFFCURVE",
"168 252 CURVE SMOOTH",
"168 394 LINE SMOOTH",
"168 508 OFFCURVE",
"232 584 OFFCURVE",
"329 584 CURVE SMOOTH",
"425 584 LINE SMOOTH",
"488 584 OFFCURVE",
"530 525 OFFCURVE",
"530 436 CURVE",
"666 436 LINE",
"666 598 OFFCURVE",
"570 706 OFFCURVE",
"425 706 CURVE SMOOTH",
"329 706 LINE SMOOTH",
"150 706 OFFCURVE",
"30 581 OFFCURVE",
"30 394 CURVE SMOOTH",
"30 252 LINE SMOOTH",
"30 100 OFFCURVE",
"133 -5 OFFCURVE",
"284 -5 CURVE SMOOTH"
);
},
{
closed = 1;
nodes = (
"668 258 LINE",
"668 380 LINE",
"348 380 LINE",
"348 258 LINE"
);
}
);
};
layerId = "EA06CE92-4115-4482-8874-2441C279E756";
paths = (
{
closed = 1;
nodes = (
"380 -6 LINE SMOOTH",
"549 -6 OFFCURVE",
"668 109 OFFCURVE",
"668 257 CURVE SMOOTH",
"668 324 LINE",
"532 324 LINE",
"532 258 LINE",
"528 169 OFFCURVE",
"472 116 OFFCURVE",
"380 116 CURVE SMOOTH",
"284 116 LINE SMOOTH",
"213 116 OFFCURVE",
"168 168 OFFCURVE",
"168 251 CURVE SMOOTH",
"168 394 LINE SMOOTH",
"168 508 OFFCURVE",
"232 584 OFFCURVE",
"329 584 CURVE SMOOTH",
"425 584 LINE SMOOTH",
"488 584 OFFCURVE",
"530 529 OFFCURVE",
"530 446 CURVE",
"666 446 LINE",
"666 602 OFFCURVE",
"570 706 OFFCURVE",
"425 706 CURVE SMOOTH",
"329 706 LINE SMOOTH",
"150 706 OFFCURVE",
"30 581 OFFCURVE",
"30 394 CURVE SMOOTH",
"30 251 LINE SMOOTH",
"30 99 OFFCURVE",
"133 -6 OFFCURVE",
"284 -6 CURVE SMOOTH"
);
},
{
closed = 1;
nodes = (
"668 260 LINE",
"668 380 LINE",
"348 380 LINE",
"348 260 LINE"
);
}
);
width = 698;
},
{
associatedMasterId = "020CB1CC-CCFF-4D13-936A-D2256F19E5D3";
layerId = "8AF6BA7E-4672-4BE4-A9AE-4DB948958C2C";
width = 600;
},
{
associatedMasterId = "020CB1CC-CCFF-4D13-936A-D2256F19E5D3";
layerId = "F5CC5B07-1CC8-4712-90D3-B380C36E053B";
width = 600;
},
{
anchors = (
{
name = bottom;
position = "{344, 0}";
},
{
name = top;
position = "{344, 700}";
}
);
background = {
paths = (
{
closed = 1;
nodes = (
"377 -6 LINE SMOOTH",
"515 -6 OFFCURVE",
"607 82 OFFCURVE",
"614 227 CURVE",
"614 322 LINE",
"578 322 LINE",
"578 226 LINE",
"574 108 OFFCURVE",
"491 28 OFFCURVE",
"377 28 CURVE SMOOTH",
"281 28 LINE SMOOTH",
"181 28 OFFCURVE",
"114 99 OFFCURVE",
"114 206 CURVE SMOOTH",
"114 439 LINE SMOOTH",
"114 580 OFFCURVE",
"198 672 OFFCURVE",
"326 672 CURVE SMOOTH",
"422 672 LINE SMOOTH",
"509 672 OFFCURVE",
"570 606 OFFCURVE",
"576 504 CURVE",
"612 504 LINE",
"605 624 OFFCURVE",
"528 706 OFFCURVE",
"422 706 CURVE SMOOTH",
"326 706 LINE SMOOTH",
"177 706 OFFCURVE",
"78 599 OFFCURVE",
"78 439 CURVE SMOOTH",
"78 206 LINE SMOOTH",
"78 78 OFFCURVE",
"159 -6 OFFCURVE",
"281 -6 CURVE SMOOTH"
);
},
{
closed = 1;
nodes = (
"614 311 LINE",
"614 342 LINE",
"383 342 LINE",
"383 311 LINE"
);
}
);
};
layerId = "020CB1CC-CCFF-4D13-936A-D2256F19E5D3";
paths = (
{
closed = 1;
nodes = (
"377 -6 LINE SMOOTH",
"512 -6 OFFCURVE",
"607 87 OFFCURVE",
"614 227 CURVE",
"614 322 LINE",
"578 322 LINE",
"578 226 LINE",
"574 107 OFFCURVE",
"494 28 OFFCURVE",
"377 28 CURVE SMOOTH",
"281 28 LINE SMOOTH",
"181 28 OFFCURVE",
"114 99 OFFCURVE",
"114 206 CURVE SMOOTH",
"114 439 LINE SMOOTH",
"114 579 OFFCURVE",
"199 672 OFFCURVE",
"326 672 CURVE SMOOTH",
"422 672 LINE SMOOTH",
"508 672 OFFCURVE",
"570 605 OFFCURVE",
"576 504 CURVE",
"612 504 LINE",
"605 625 OFFCURVE",
"529 706 OFFCURVE",
"422 706 CURVE SMOOTH",
"326 706 LINE SMOOTH",
"177 706 OFFCURVE",
"78 599 OFFCURVE",
"78 439 CURVE SMOOTH",
"78 206 LINE SMOOTH",
"78 79 OFFCURVE",
"159 -6 OFFCURVE",
"281 -6 CURVE SMOOTH"
);
},
{
closed = 1;
nodes = (
"614 311 LINE",
"614 342 LINE",
"383 342 LINE",
"383 311 LINE"
);
}
);
width = 692;
},
{
associatedMasterId = "020CB1CC-CCFF-4D13-936A-D2256F19E5D3";
layerId = "F9A025F0-5BD6-4F5F-A216-3E4D9B1AC856";
width = 600;
},
{
anchors = (
{
name = bottom;
position = "{345, 0}";
},
{
name = top;
position = "{345, 700}";
}
);
layerId = "76C6DC51-463D-4A0C-B694-3EB424048C5D";
paths = (
{
closed = 1;
nodes = (
"378 -6 LINE SMOOTH",
"528 -6 OFFCURVE",
"630 92 OFFCURVE",
"634 238 CURVE",
"634 304 LINE",
"562 304 LINE",
"562 238 LINE",
"558 131 OFFCURVE",
"484 60 OFFCURVE",
"378 60 CURVE SMOOTH",
"282 60 LINE SMOOTH",
"193 60 OFFCURVE",
"134 125 OFFCURVE",
"134 223 CURVE SMOOTH",
"134 422 LINE SMOOTH",
"134 553 OFFCURVE",
"211 640 OFFCURVE",
"327 640 CURVE SMOOTH",
"423 640 LINE SMOOTH",
"501 640 OFFCURVE",
"556 577 OFFCURVE",
"560 482 CURVE",
"632 482 LINE",
"628 616 OFFCURVE",
"544 706 OFFCURVE",
"423 706 CURVE SMOOTH",
"327 706 LINE SMOOTH",
"167 706 OFFCURVE",
"60 592 OFFCURVE",
"60 422 CURVE SMOOTH",
"60 223 LINE SMOOTH",
"60 86 OFFCURVE",
"149 -6 OFFCURVE",
"282 -6 CURVE SMOOTH"
);
},
{
closed = 1;
nodes = (
"634 292 LINE",
"634 356 LINE",
"370 356 LINE",
"370 292 LINE"
);
}
);
width = 694;
}
);
note = G;
unicode = 0047;
},
{
color = 1;
glyphname = H;
lastChange = "2018-02-12 09:26:36 +0000";
layers = (
{
anchors = (
{
name = bottom;
position = "{342, 0}";
},
{
name = center;
position = "{342, 350}";
},
{
name = top;
position = "{342, 700}";
},
{
name = topleft;
position = "{22, 700}";
}
);
background = {
paths = (
{
closed = 1;
nodes = (
"532 0 LINE",
"606 0 LINE",
"606 700 LINE",
"532 700 LINE",
"532 394 LINE",
"151 394 LINE",
"151 700 LINE",
"77 700 LINE",
"77 0 LINE",
"151 0 LINE",
"151 328 LINE",
"532 328 LINE"
);
}
);
};
layerId = "EA06CE92-4115-4482-8874-2441C279E756";
paths = (
{
closed = 1;
nodes = (
"183 0 LINE",
"183 300 LINE",
"510 300 LINE",
"510 0 LINE",
"648 0 LINE",
"648 700 LINE",
"510 700 LINE",
"510 422 LINE",
"183 422 LINE",
"183 700 LINE",
"45 700 LINE",
"45 0 LINE"
);
}
);
width = 693;
},
{
associatedMasterId = "020CB1CC-CCFF-4D13-936A-D2256F19E5D3";
layerId = "8AF6BA7E-4672-4BE4-A9AE-4DB948958C2C";
width = 600;
},
{
associatedMasterId = "020CB1CC-CCFF-4D13-936A-D2256F19E5D3";
layerId = "3EB4F6D6-C854-4173-98ED-3697B7A91CA1";
width = 600;
},
{
anchors = (
{
name = bottom;
position = "{339, -210}";
},
{
name = center;
position = "{339, 560}";
},
{
name = top;
position = "{339, 700}";
},
{
name = topleft;
position = "{19, 700}";
}
);
layerId = "020CB1CC-CCFF-4D13-936A-D2256F19E5D3";
paths = (
{
closed = 1;
nodes = (
"129 0 LINE",
"129 344 LINE",
"560 344 LINE",
"560 0 LINE",
"595 0 LINE",
"595 700 LINE",
"560 700 LINE",
"560 378 LINE",
"129 378 LINE",
"129 700 LINE",
"93 700 LINE",
"93 0 LINE"
);
}
);
width = 688;
},
{
associatedMasterId = "020CB1CC-CCFF-4D13-936A-D2256F19E5D3";
layerId = "CAD504B1-4F28-4E14-B8C8-0206C17BE22D";
width = 600;
},
{
anchors = (
{
name = bottom;
position = "{340, 0}";
},
{
name = center;
position = "{340, 350}";
},
{
name = top;
position = "{340, 700}";
},
{
name = topleft;
position = "{222, 631}";
}
);
layerId = "76C6DC51-463D-4A0C-B694-3EB424048C5D";
paths = (
{
closed = 1;
nodes = (
"149 0 LINE",
"149 328 LINE",
"541 328 LINE",
"541 0 LINE",
"615 0 LINE",
"615 700 LINE",
"541 700 LINE",
"541 394 LINE",
"149 394 LINE",
"149 700 LINE",
"75 700 LINE",
"75 0 LINE"
);
}
);
width = 690;
}
);
note = H;
unicode = 0048;
},
{
glyphname = I;
lastChange = "2018-02-12 08:19:41 +0000";
layers = (
{
anchors = (
{
name = bottom;
position = "{122, 0}";
},
{
name = ogonek;
position = "{213, 10}";
},
{
name = top;
position = "{122, 700}";
},
{
name = topleft;
position = "{27, 700}";
}
);
layerId = "EA06CE92-4115-4482-8874-2441C279E756";
paths = (
{
closed = 1;
nodes = (
"50 0 LINE",
"188 0 LINE",
"188 700 LINE",
"50 700 LINE"
);
}
);
width = 238;
},
{
associatedMasterId = "020CB1CC-CCFF-4D13-936A-D2256F19E5D3";
layerId = "8AF6BA7E-4672-4BE4-A9AE-4DB948958C2C";
width = 600;
},
{
associatedMasterId = "020CB1CC-CCFF-4D13-936A-D2256F19E5D3";
layerId = "CF1BC613-2BF7-46EA-B886-9C3B712DABE3";
width = 600;
},
{
anchors = (
{
name = bottom;
position = "{119, 0}";
},
{
name = ogonek;
position = "{210, 10}";
},
{
name = top;
position = "{119, 700}";
},
{
name = topleft;
position = "{24, 700}";
}
);
layerId = "020CB1CC-CCFF-4D13-936A-D2256F19E5D3";
paths = (
{
closed = 1;
nodes = (
"98 0 LINE",
"134 0 LINE",
"134 700 LINE",
"98 700 LINE"
);
}
);
width = 232;
},
{
associatedMasterId = "020CB1CC-CCFF-4D13-936A-D2256F19E5D3";
layerId = "2DFC0E06-B8EA-4311-A9DF-3FFE7CB12D78";
width = 600;
},
{
anchors = (
{
name = bottom;
position = "{120, 0}";
},
{
name = ogonek;
position = "{211, 10}";
},
{
name = top;
position = "{120, 700}";
},
{
name = topleft;
position = "{25, 700}";
}
);
layerId = "76C6DC51-463D-4A0C-B694-3EB424048C5D";
paths = (
{
closed = 1;
nodes = (
"80 0 LINE",
"154 0 LINE",
"154 700 LINE",
"80 700 LINE"
);
}
);
width = 234;
}
);
note = I;
unicode = 0049;
},
{
glyphname = J;
lastChange = "2018-02-12 08:59:17 +0000";
layers = (
{
anchors = (
{
name = bottom;
position = "{307, 0}";
},
{
name = top;
position = "{307, 700}";
}
);
background = {
paths = (
{
closed = 1;
nodes = (
"8 109 OFFCURVE",
"106 0 OFFCURVE",
"259 0 CURVE SMOOTH",
"310 0 LINE SMOOTH",
"479 0 OFFCURVE",
"582 107 OFFCURVE",
"582 283 CURVE SMOOTH",
"582 700 LINE",
"444 700 LINE",
"444 283 LINE SMOOTH",
"444 179 OFFCURVE",
"396 122 OFFCURVE",
"310 122 CURVE SMOOTH",
"259 122 LINE SMOOTH",
"189 122 OFFCURVE",
"145 180 OFFCURVE",
"142 285 CURVE",
"5 285 LINE"
);
}
);
};
layerId = "EA06CE92-4115-4482-8874-2441C279E756";
paths = (
{
closed = 1;
nodes = (
"8 104 OFFCURVE",
"110 -6 OFFCURVE",
"259 -6 CURVE SMOOTH",
"310 -6 LINE SMOOTH",
"481 -6 OFFCURVE",
"582 99 OFFCURVE",
"582 277 CURVE SMOOTH",
"582 700 LINE",
"444 700 LINE",
"444 277 LINE SMOOTH",
"444 176 OFFCURVE",
"394 116 OFFCURVE",
"310 116 CURVE SMOOTH",
"259 116 LINE SMOOTH",
"192 116 OFFCURVE",
"146 177 OFFCURVE",
"143 269 CURVE",
"5 269 LINE"
);
}
);
width = 612;
},
{
associatedMasterId = "020CB1CC-CCFF-4D13-936A-D2256F19E5D3";
layerId = "8AF6BA7E-4672-4BE4-A9AE-4DB948958C2C";
width = 600;
},
{
associatedMasterId = "020CB1CC-CCFF-4D13-936A-D2256F19E5D3";
layerId = "8D2DD6E3-C33F-44EF-86D7-6E9DB02D06F9";
width = 600;
},
{
anchors = (
{
name = bottom;
position = "{302, 0}";
},
{
name = top;
position = "{302, 700}";
}
);
background = {
paths = (
{
closed = 1;
nodes = (
"46 86 OFFCURVE",
"132 -6 OFFCURVE",
"256 -6 CURVE SMOOTH",
"307 -6 LINE SMOOTH",
"462 -6 OFFCURVE",
"547 96 OFFCURVE",
"547 249 CURVE SMOOTH",
"547 700 LINE",
"478 700 LINE",
"478 249 LINE SMOOTH",
"478 133 OFFCURVE",
"422 56 OFFCURVE",
"307 56 CURVE SMOOTH",
"256 56 LINE SMOOTH",
"167 56 OFFCURVE",
"114 118 OFFCURVE",
"104 223 CURVE",
"35 223 LINE"
);
}
);
};
layerId = "020CB1CC-CCFF-4D13-936A-D2256F19E5D3";
paths = (
{
closed = 1;
nodes = (
"70 64 OFFCURVE",
"140 -6 OFFCURVE",
"254 -6 CURVE SMOOTH",
"305 -6 LINE SMOOTH",
"444 -6 OFFCURVE",
"526 83 OFFCURVE",
"526 232 CURVE SMOOTH",
"526 700 LINE",
"490 700 LINE",
"490 232 LINE SMOOTH",
"490 102 OFFCURVE",
"421 26 OFFCURVE",
"305 26 CURVE SMOOTH",
"254 26 LINE SMOOTH",
"162 26 OFFCURVE",
"103 87 OFFCURVE",
"89 195 CURVE",
"53 195 LINE"
);
}
);
width = 604;
},
{
associatedMasterId = "020CB1CC-CCFF-4D13-936A-D2256F19E5D3";
layerId = "D970888F-E372-4223-A64C-12E78DD959D6";
width = 600;
},
{
anchors = (
{
name = bottom;
position = "{304, 0}";
},
{
name = top;
position = "{304, 700}";
}
);
layerId = "76C6DC51-463D-4A0C-B694-3EB424048C5D";
paths = (
{
closed = 1;
nodes = (
"47 79 OFFCURVE",
"129 -6 OFFCURVE",
"256 -6 CURVE SMOOTH",
"307 -6 LINE SMOOTH",
"458 -6 OFFCURVE",
"547 89 OFFCURVE",
"547 249 CURVE SMOOTH",
"547 700 LINE",
"473 700 LINE",
"473 249 LINE SMOOTH",
"473 130 OFFCURVE",
"411 60 OFFCURVE",
"307 60 CURVE SMOOTH",
"256 60 LINE SMOOTH",
"173 60 OFFCURVE",
"119 121 OFFCURVE",
"109 223 CURVE",
"35 223 LINE"
);
}
);
width = 607;
}
);
note = J;
unicode = 004A;
},
{
glyphname = K;
lastChange = "2018-02-12 08:59:17 +0000";
layers = (
{
anchors = (
{
name = bottom;
position = "{328, 0}";
},
{
name = top;
position = "{328, 700}";
}
);
background = {
paths = (
{
closed = 1;
nodes = (
"663 0 LINE",
"387 353 LINE",
"640 700 LINE",
"478 700 LINE",
"269 413 LINE",
"183 413 LINE",
"183 700 LINE",
"45 700 LINE",
"45 0 LINE",
"183 0 LINE",
"183 291 LINE",
"270 291 LINE",
"494 0 LINE"
);
}
);
};
layerId = "EA06CE92-4115-4482-8874-2441C279E756";
paths = (
{
closed = 1;
nodes = (
"663 0 LINE",
"397 353 LINE",
"640 700 LINE",
"478 700 LINE",
"279 413 LINE",
"183 413 LINE",
"183 700 LINE",
"45 700 LINE",
"45 0 LINE",
"183 0 LINE",
"183 291 LINE",
"280 291 LINE",
"494 0 LINE"
);
}
);
width = 663;
},
{
associatedMasterId = "020CB1CC-CCFF-4D13-936A-D2256F19E5D3";
layerId = "8AF6BA7E-4672-4BE4-A9AE-4DB948958C2C";
width = 600;
},
{
associatedMasterId = "020CB1CC-CCFF-4D13-936A-D2256F19E5D3";
layerId = "906CA121-F3DF-47A9-A152-8D1E61883E00";
width = 600;
},
{
anchors = (
{
name = bottom;
position = "{325, 0}";
},
{
name = top;
position = "{325, 700}";
}
);
background = {
paths = (
{
closed = 1;
nodes = (
"622 0 LINE",
"316 353 LINE",
"600 700 LINE",
"511 700 LINE",
"251 383 LINE",
"149 383 LINE",
"149 700 LINE",
"75 700 LINE",
"75 0 LINE",
"149 0 LINE",
"149 321 LINE",
"251 321 LINE",
"528 0 LINE"
);
}
);
};
layerId = "020CB1CC-CCFF-4D13-936A-D2256F19E5D3";
paths = (
{
closed = 1;
nodes = (
"597 0 LINE",
"267 353 LINE",
"576 700 LINE",
"531 700 LINE",
"237 368 LINE",
"129 368 LINE",
"129 700 LINE",
"93 700 LINE",
"93 0 LINE",
"129 0 LINE",
"129 336 LINE",
"237 336 LINE",
"548 0 LINE"
);
}
);
width = 645;
},
{
associatedMasterId = "020CB1CC-CCFF-4D13-936A-D2256F19E5D3";
layerId = "5114723C-08E5-4FD5-88D7-5657645561FA";
width = 600;
},
{
anchors = (
{
name = bottom;
position = "{326, 0}";
},
{
name = top;
position = "{326, 700}";
}
);
layerId = "76C6DC51-463D-4A0C-B694-3EB424048C5D";
paths = (
{
closed = 1;
nodes = (
"622 0 LINE",
"316 353 LINE",
"600 700 LINE",
"511 700 LINE",
"253 385 LINE",
"149 385 LINE",
"149 700 LINE",
"75 700 LINE",
"75 0 LINE",
"149 0 LINE",
"149 319 LINE",
"253 319 LINE",
"528 0 LINE"
);
}
);
width = 652;
}
);
note = K;
unicode = 004B;
},
{
color = 1;
glyphname = L;
lastChange = "2018-02-12 09:26:36 +0000";
layers = (
{
anchors = (
{
name = bottom;
position = "{277, 0}";
},
{
name = center;
position = "{277, 350}";
},
{
name = top;
position = "{277, 700}";
},
{
name = topright;
position = "{533, 700}";
}
);
background = {
paths = (
{
closed = 1;
nodes = (
"77 65 LINE SMOOTH",
"77 24 OFFCURVE",
"101 0 OFFCURVE",
"142 0 CURVE SMOOTH",
"518 0 LINE",
"518 66 LINE",
"151 66 LINE",
"151 700 LINE",
"77 700 LINE"
);
}
);
};
layerId = "EA06CE92-4115-4482-8874-2441C279E756";
paths = (
{
closed = 1;
nodes = (
"45 93 LINE SMOOTH",
"45 37 OFFCURVE",
"83 0 OFFCURVE",
"142 0 CURVE SMOOTH",
"550 0 LINE",
"550 122 LINE",
"183 122 LINE",
"183 700 LINE",
"45 700 LINE"
);
}
);
width = 555;
},
{
associatedMasterId = "020CB1CC-CCFF-4D13-936A-D2256F19E5D3";
layerId = "8AF6BA7E-4672-4BE4-A9AE-4DB948958C2C";
width = 600;
},
{
associatedMasterId = "020CB1CC-CCFF-4D13-936A-D2256F19E5D3";
layerId = "0800A5CB-E0D5-48F5-90BA-8E7BC004AAA6";
width = 600;
},
{
anchors = (
{
name = bottom;
position = "{277, -210}";
},
{
name = center;
position = "{277, 560}";
},
{
name = top;
position = "{277, 700}";
},
{
name = topright;
position = "{533, 700}";
}
);
background = {
paths = (
{
closed = 1;
nodes = (
"77 65 LINE SMOOTH",
"77 24 OFFCURVE",
"101 0 OFFCURVE",
"142 0 CURVE SMOOTH",
"518 0 LINE",
"518 62 LINE",
"146 62 LINE",
"146 700 LINE",
"77 700 LINE"
);
}
);
};
layerId = "020CB1CC-CCFF-4D13-936A-D2256F19E5D3";
paths = (
{
closed = 1;
nodes = (
"96 46 LINE SMOOTH",
"96 18 OFFCURVE",
"114 0 OFFCURVE",
"142 0 CURVE SMOOTH",
"499 0 LINE",
"499 34 LINE",
"132 34 LINE",
"132 700 LINE",
"96 700 LINE"
);
}
);
width = 552;
},
{
associatedMasterId = "020CB1CC-CCFF-4D13-936A-D2256F19E5D3";
layerId = "3CFCC3BF-62A9-484E-8E74-28BB0D2BCD9E";
width = 600;
},
{
anchors = (
{
name = bottom;
position = "{277, 0}";
},
{
name = center;
position = "{277, 350}";
},
{
name = top;
position = "{277, 700}";
},
{
name = topright;
position = "{533, 700}";
}
);
layerId = "76C6DC51-463D-4A0C-B694-3EB424048C5D";
paths = (
{
closed = 1;
nodes = (
"77 65 LINE SMOOTH",
"77 24 OFFCURVE",
"101 0 OFFCURVE",
"142 0 CURVE SMOOTH",
"518 0 LINE",
"518 66 LINE",
"151 66 LINE",
"151 700 LINE",
"77 700 LINE"
);
}
);
width = 553;
}
);
note = L;
unicode = 004C;
},
{
glyphname = M;
lastChange = "2018-02-12 08:59:17 +0000";
layers = (
{
anchors = (
{
name = bottom;
position = "{402, 0}";
},
{
name = top;
position = "{402, 700}";
}
);
background = {
paths = (
{
closed = 1;
nodes = (
"405 115 LINE SMOOTH",
"435 115 OFFCURVE",
"452 130 OFFCURVE",
"471 165 CURVE SMOOTH",
"620 423 LINE",
"620 0 LINE",
"757 0 LINE",
"757 700 LINE",
"637 700 LINE",
"405 286 LINE",
"165 701 LINE",
"45 701 LINE",
"45 0 LINE",
"181 0 LINE",
"181 423 LINE",
"365 115 LINE"
);
}
);
};
layerId = "EA06CE92-4115-4482-8874-2441C279E756";
paths = (
{
closed = 1;
nodes = (
"405 127 LINE SMOOTH",
"432 127 OFFCURVE",
"451 141 OFFCURVE",
"471 177 CURVE SMOOTH",
"621 443 LINE",
"621 0 LINE",
"757 0 LINE",
"757 700 LINE",
"636 700 LINE",
"405 284 LINE",
"166 700 LINE",
"45 700 LINE",
"45 0 LINE",
"181 0 LINE",
"181 443 LINE",
"365 127 LINE"
);
}
);
width = 802;
},
{
associatedMasterId = "020CB1CC-CCFF-4D13-936A-D2256F19E5D3";
layerId = "8AF6BA7E-4672-4BE4-A9AE-4DB948958C2C";
width = 600;
},
{
associatedMasterId = "020CB1CC-CCFF-4D13-936A-D2256F19E5D3";
layerId = "A4737667-7B03-42F7-997C-4D08B8B8F038";
width = 600;
},
{
anchors = (
{
name = bottom;
position = "{399, 0}";
},
{
name = top;
position = "{399, 700}";
}
);
background = {
paths = (
{
closed = 1;
nodes = (
"403 143 LINE SMOOTH",
"422 143 OFFCURVE",
"430 155 OFFCURVE",
"442 178 CURVE SMOOTH",
"650 562 LINE",
"650 0 LINE",
"724 0 LINE",
"724 700 LINE",
"653 700 LINE",
"403 235 LINE",
"146 700 LINE",
"75 700 LINE",
"75 0 LINE",
"148 0 LINE",
"148 562 LINE",
"383 143 LINE"
);
}
);
};
layerId = "020CB1CC-CCFF-4D13-936A-D2256F19E5D3";
paths = (
{
closed = 1;
nodes = (
"405 153 LINE SMOOTH",
"411 153 OFFCURVE",
"414 159 OFFCURVE",
"425 179 CURVE SMOOTH",
"667 634 LINE",
"667 0 LINE",
"704 0 LINE",
"704 700 LINE",
"663 700 LINE",
"402 206 LINE",
"134 700 LINE",
"93 700 LINE",
"93 0 LINE",
"128 0 LINE",
"128 633 LINE",
"394 153 LINE"
);
}
);
width = 797;
},
{
associatedMasterId = "020CB1CC-CCFF-4D13-936A-D2256F19E5D3";
layerId = "91026DBA-8A59-4DE8-AE63-B94637CE48EB";
width = 600;
},
{
anchors = (
{
name = bottom;
position = "{400, 0}";
},
{
name = top;
position = "{400, 700}";
}
);
layerId = "76C6DC51-463D-4A0C-B694-3EB424048C5D";
paths = (
{
closed = 1;
nodes = (
"405 143 LINE SMOOTH",
"419 143 OFFCURVE",
"428 152 OFFCURVE",
"442 178 CURVE SMOOTH",
"650 562 LINE",
"650 0 LINE",
"724 0 LINE",
"724 700 LINE",
"653 700 LINE",
"403 235 LINE",
"146 700 LINE",
"75 700 LINE",
"75 0 LINE",
"148 0 LINE",
"148 562 LINE",
"383 143 LINE"
);
}
);
width = 799;
}
);
note = M;
unicode = 004D;
},
{
glyphname = N;
lastChange = "2018-02-12 09:27:43 +0000";
layers = (
{
anchors = (
{
name = bottom;
position = "{344, 0}";
},
{
name = top;
position = "{344, 700}";
}
);
background = {
paths = (
{
closed = 1;
nodes = (
"167 700 LINE",
"45 700 LINE",
"45 0 LINE",
"183 0 LINE",
"183 468 LINE",
"520 0 LINE",
"642 0 LINE",
"642 700 LINE",
"504 700 LINE",
"504 232 LINE"
);
}
);
};
layerId = "EA06CE92-4115-4482-8874-2441C279E756";
paths = (
{
closed = 1;
nodes = (
"183 0 LINE",
"183 470 LINE",
"522 0 LINE",
"642 0 LINE",
"642 700 LINE",
"504 700 LINE",
"504 230 LINE",
"165 700 LINE",
"45 700 LINE",
"45 0 LINE"
);
}
);
width = 687;
},
{
associatedMasterId = "020CB1CC-CCFF-4D13-936A-D2256F19E5D3";
layerId = "8AF6BA7E-4672-4BE4-A9AE-4DB948958C2C";
width = 600;
},
{
associatedMasterId = "020CB1CC-CCFF-4D13-936A-D2256F19E5D3";
layerId = "0F709E40-C404-42FF-8347-0E9736575BB9";
width = 600;
},
{
anchors = (
{
name = bottom;
position = "{342, 0}";
},
{
name = top;
position = "{342, 700}";
}
);
layerId = "020CB1CC-CCFF-4D13-936A-D2256F19E5D3";
paths = (
{
closed = 1;
nodes = (
"129 0 LINE",
"129 638 LINE",
"553 0 LINE",
"589 0 LINE",
"589 700 LINE",
"553 700 LINE",
"553 62 LINE",
"129 700 LINE",
"93 700 LINE",
"93 0 LINE"
);
}
);
width = 682;
},
{
anchors = (
{
name = bottom;
position = "{342, 0}";
},
{
name = top;
position = "{342, 700}";
}
);
layerId = "76C6DC51-463D-4A0C-B694-3EB424048C5D";
paths = (
{
closed = 1;
nodes = (
"149 0 LINE",
"149 576 LINE",
"537 0 LINE",
"609 0 LINE",
"609 700 LINE",
"535 700 LINE",
"535 124 LINE",
"147 700 LINE",
"75 700 LINE",
"75 0 LINE"
);
}
);
width = 684;
}
);
note = N;
unicode = 004E;
},
{
color = 1;
glyphname = O;
lastChange = "2018-02-12 09:26:36 +0000";
layers = (
{
anchors = (
{
name = bottom;
position = "{357, 0}";
},
{
name = center;
position = "{357, 350}";
},
{
name = ogonek;
position = "{638, 10}";
},
{
name = top;
position = "{357, 700}";
},
{
name = topleft;
position = "{26, 700}";
},
{
name = topright;
position = "{688, 700}";
}
);
background = {
paths = (
{
closed = 1;
nodes = (
"168 393 LINE SMOOTH",
"168 509 OFFCURVE",
"231 583 OFFCURVE",
"327 583 CURVE SMOOTH",
"428 583 LINE SMOOTH",
"499 583 OFFCURVE",
"544 531 OFFCURVE",
"544 448 CURVE SMOOTH",
"544 307 LINE SMOOTH",
"544 192 OFFCURVE",
"482 117 OFFCURVE",
"387 117 CURVE SMOOTH",
"284 117 LINE SMOOTH",
"213 117 OFFCURVE",
"168 169 OFFCURVE",
"168 252 CURVE SMOOTH"
);
},
{
closed = 1;
nodes = (
"30 100 OFFCURVE",
"133 -5 OFFCURVE",
"284 -5 CURVE SMOOTH",
"387 -5 LINE SMOOTH",
"562 -5 OFFCURVE",
"682 121 OFFCURVE",
"682 307 CURVE SMOOTH",
"682 448 LINE SMOOTH",
"682 600 OFFCURVE",
"579 705 OFFCURVE",
"428 705 CURVE SMOOTH",
"327 705 LINE SMOOTH",
"151 705 OFFCURVE",
"30 579 OFFCURVE",
"30 393 CURVE SMOOTH",
"30 252 LINE SMOOTH"
);
}
);
};
layerId = "EA06CE92-4115-4482-8874-2441C279E756";
paths = (
{
closed = 1;
nodes = (
"168 394 LINE SMOOTH",
"168 508 OFFCURVE",
"232 584 OFFCURVE",
"327 584 CURVE SMOOTH",
"428 584 LINE SMOOTH",
"498 584 OFFCURVE",
"544 530 OFFCURVE",
"544 449 CURVE SMOOTH",
"544 306 LINE SMOOTH",
"544 192 OFFCURVE",
"481 116 OFFCURVE",
"387 116 CURVE SMOOTH",
"284 116 LINE SMOOTH",
"214 116 OFFCURVE",
"168 170 OFFCURVE",
"168 251 CURVE SMOOTH"
);
},
{
closed = 1;
nodes = (
"30 97 OFFCURVE",
"132 -6 OFFCURVE",
"284 -6 CURVE SMOOTH",
"387 -6 LINE SMOOTH",
"564 -6 OFFCURVE",
"682 119 OFFCURVE",
"682 306 CURVE SMOOTH",
"682 449 LINE SMOOTH",
"682 603 OFFCURVE",
"580 706 OFFCURVE",
"428 706 CURVE SMOOTH",
"327 706 LINE SMOOTH",
"149 706 OFFCURVE",
"30 581 OFFCURVE",
"30 394 CURVE SMOOTH",
"30 251 LINE SMOOTH"
);
}
);
width = 712;
},
{
associatedMasterId = "020CB1CC-CCFF-4D13-936A-D2256F19E5D3";
layerId = "8AF6BA7E-4672-4BE4-A9AE-4DB948958C2C";
width = 600;
},
{
associatedMasterId = "020CB1CC-CCFF-4D13-936A-D2256F19E5D3";
layerId = "D927022B-1EB5-4B3B-BF80-E0DB542423B7";
width = 600;
},
{
anchors = (
{
name = bottom;
position = "{354, -210}";
},
{
name = center;
position = "{354, 560}";
},
{
name = ogonek;
position = "{635, 10}";
},
{
name = top;
position = "{354, 700}";
},
{
name = topleft;
position = "{23, 700}";
},
{
name = topright;
position = "{685, 700}";
}
);
layerId = "020CB1CC-CCFF-4D13-936A-D2256F19E5D3";
paths = (
{
closed = 1;
nodes = (
"114 439 LINE SMOOTH",
"114 579 OFFCURVE",
"198 672 OFFCURVE",
"324 672 CURVE SMOOTH",
"425 672 LINE SMOOTH",
"525 672 OFFCURVE",
"592 601 OFFCURVE",
"592 494 CURVE SMOOTH",
"592 261 LINE SMOOTH",
"592 121 OFFCURVE",
"509 28 OFFCURVE",
"384 28 CURVE SMOOTH",
"281 28 LINE SMOOTH",
"181 28 OFFCURVE",
"114 99 OFFCURVE",
"114 206 CURVE SMOOTH"
);
},
{
closed = 1;
nodes = (
"78 79 OFFCURVE",
"159 -6 OFFCURVE",
"281 -6 CURVE SMOOTH",
"384 -6 LINE SMOOTH",
"530 -6 OFFCURVE",
"628 101 OFFCURVE",
"628 261 CURVE SMOOTH",
"628 494 LINE SMOOTH",
"628 621 OFFCURVE",
"547 706 OFFCURVE",
"425 706 CURVE SMOOTH",
"324 706 LINE SMOOTH",
"176 706 OFFCURVE",
"78 599 OFFCURVE",
"78 439 CURVE SMOOTH",
"78 206 LINE SMOOTH"
);
}
);
width = 706;
},
{
associatedMasterId = "020CB1CC-CCFF-4D13-936A-D2256F19E5D3";
layerId = "34BEBA60-7126-482F-ACE8-F5463C0FCFF5";
width = 600;
},
{
anchors = (
{
name = bottom;
position = "{355, 0}";
},
{
name = center;
position = "{355, 350}";
},
{
name = ogonek;
position = "{636, 10}";
},
{
name = top;
position = "{355, 700}";
},
{
name = topleft;
position = "{24, 700}";
},
{
name = topright;
position = "{686, 700}";
}
);
layerId = "76C6DC51-463D-4A0C-B694-3EB424048C5D";
paths = (
{
closed = 1;
nodes = (
"134 422 LINE SMOOTH",
"134 553 OFFCURVE",
"210 640 OFFCURVE",
"325 640 CURVE SMOOTH",
"426 640 LINE SMOOTH",
"515 640 OFFCURVE",
"574 575 OFFCURVE",
"574 477 CURVE SMOOTH",
"574 278 LINE SMOOTH",
"574 147 OFFCURVE",
"498 60 OFFCURVE",
"385 60 CURVE SMOOTH",
"282 60 LINE SMOOTH",
"193 60 OFFCURVE",
"134 125 OFFCURVE",
"134 223 CURVE SMOOTH"
);
},
{
closed = 1;
nodes = (
"60 86 OFFCURVE",
"149 -6 OFFCURVE",
"282 -6 CURVE SMOOTH",
"385 -6 LINE SMOOTH",
"543 -6 OFFCURVE",
"648 108 OFFCURVE",
"648 278 CURVE SMOOTH",
"648 477 LINE SMOOTH",
"648 614 OFFCURVE",
"559 706 OFFCURVE",
"426 706 CURVE SMOOTH",
"325 706 LINE SMOOTH",
"166 706 OFFCURVE",
"60 592 OFFCURVE",
"60 422 CURVE SMOOTH",
"60 223 LINE SMOOTH"
);
}
);
width = 708;
}
);
note = O;
unicode = 004F;
},
{
glyphname = P;
lastChange = "2018-02-12 08:59:17 +0000";
layers = (
{
anchors = (
{
name = bottom;
position = "{318, 0}";
},
{
name = top;
position = "{318, 700}";
}
);
layerId = "EA06CE92-4115-4482-8874-2441C279E756";
paths = (
{
closed = 1;
nodes = (
"434 580 LINE SMOOTH",
"471 580 OFFCURVE",
"496 555 OFFCURVE",
"496 517 CURVE SMOOTH",
"496 422 LINE SMOOTH",
"496 369 OFFCURVE",
"450 333 OFFCURVE",
"379 333 CURVE SMOOTH",
"183 333 LINE",
"183 580 LINE"
);
},
{
closed = 1;
nodes = (
"532 213 OFFCURVE",
"634 296 OFFCURVE",
"634 421 CURVE SMOOTH",
"634 513 LINE SMOOTH",
"634 625 OFFCURVE",
"554 700 OFFCURVE",
"434 700 CURVE SMOOTH",
"45 700 LINE",
"45 0 LINE",
"183 0 LINE",
"183 213 LINE",
"379 213 LINE SMOOTH"
);
}
);
width = 639;
},
{
associatedMasterId = "020CB1CC-CCFF-4D13-936A-D2256F19E5D3";
layerId = "8AF6BA7E-4672-4BE4-A9AE-4DB948958C2C";
width = 600;
},
{
associatedMasterId = "020CB1CC-CCFF-4D13-936A-D2256F19E5D3";
layerId = "CFC0E8CE-FBCE-4532-A8F0-A6CBC0FAA8F0";
width = 600;
},
{
anchors = (
{
name = bottom;
position = "{315, 0}";
},
{
name = top;
position = "{315, 700}";
}
);
layerId = "020CB1CC-CCFF-4D13-936A-D2256F19E5D3";
paths = (
{
closed = 1;
nodes = (
"431 666 LINE SMOOTH",
"500 666 OFFCURVE",
"546 624 OFFCURVE",
"546 562 CURVE SMOOTH",
"546 460 LINE SMOOTH",
"546 382 OFFCURVE",
"477 330 OFFCURVE",
"376 330 CURVE SMOOTH",
"129 330 LINE",
"129 666 LINE"
);
},
{
closed = 1;
nodes = (
"498 296 OFFCURVE",
"581 362 OFFCURVE",
"581 459 CURVE SMOOTH",
"581 558 LINE SMOOTH",
"581 643 OFFCURVE",
"520 700 OFFCURVE",
"431 700 CURVE SMOOTH",
"93 700 LINE",
"93 0 LINE",
"129 0 LINE",
"129 296 LINE",
"376 296 LINE SMOOTH"
);
}
);
width = 626;
},
{
associatedMasterId = "020CB1CC-CCFF-4D13-936A-D2256F19E5D3";
layerId = "04FAEC8A-7D99-4D83-9F21-3E9D0CDC4E85";
width = 600;
},
{
anchors = (
{
name = bottom;
position = "{316, 0}";
},
{
name = top;
position = "{316, 700}";
}
);
layerId = "76C6DC51-463D-4A0C-B694-3EB424048C5D";
paths = (
{
closed = 1;
nodes = (
"432 634 LINE SMOOTH",
"489 634 OFFCURVE",
"527 598 OFFCURVE",
"527 545 CURVE SMOOTH",
"527 446 LINE SMOOTH",
"527 377 OFFCURVE",
"467 331 OFFCURVE",
"377 331 CURVE SMOOTH",
"149 331 LINE",
"149 634 LINE"
);
},
{
closed = 1;
nodes = (
"511 265 OFFCURVE",
"601 337 OFFCURVE",
"601 445 CURVE SMOOTH",
"601 541 LINE SMOOTH",
"601 636 OFFCURVE",
"533 700 OFFCURVE",
"432 700 CURVE SMOOTH",
"75 700 LINE",
"75 0 LINE",
"149 0 LINE",
"149 265 LINE",
"377 265 LINE SMOOTH"
);
}
);
width = 631;
}
);
note = P;
unicode = 0050;
},
{
glyphname = Q;
lastChange = "2018-02-12 08:59:17 +0000";
layers = (
{
anchors = (
{
name = bottom;
position = "{348, 0}";
},
{
name = top;
position = "{348, 700}";
}
);
background = {
paths = (
{
closed = 1;
nodes = (
"617 -36 LINE",
"706 54 LINE",
"460 306 LINE",
"371 216 LINE"
);
},
{
closed = 1;
nodes = (
"168 393 LINE SMOOTH",
"168 507 OFFCURVE",
"232 583 OFFCURVE",
"327 583 CURVE SMOOTH",
"428 583 LINE SMOOTH",
"498 583 OFFCURVE",
"544 529 OFFCURVE",
"544 448 CURVE SMOOTH",
"544 307 LINE SMOOTH",
"544 193 OFFCURVE",
"481 117 OFFCURVE",
"387 117 CURVE SMOOTH",
"284 117 LINE SMOOTH",
"214 117 OFFCURVE",
"168 171 OFFCURVE",
"168 252 CURVE SMOOTH"
);
},
{
closed = 1;
nodes = (
"30 98 OFFCURVE",
"132 -5 OFFCURVE",
"284 -5 CURVE SMOOTH",
"387 -5 LINE SMOOTH",
"554 -5 OFFCURVE",
"682 130 OFFCURVE",
"682 307 CURVE SMOOTH",
"682 448 LINE SMOOTH",
"682 602 OFFCURVE",
"580 705 OFFCURVE",
"428 705 CURVE SMOOTH",
"327 705 LINE SMOOTH",
"149 705 OFFCURVE",
"30 580 OFFCURVE",
"30 393 CURVE SMOOTH",
"30 252 LINE SMOOTH"
);
}
);
};
layerId = "EA06CE92-4115-4482-8874-2441C279E756";
paths = (
{
closed = 1;
nodes = (
"617 -36 LINE",
"706 54 LINE",
"460 306 LINE",
"371 216 LINE"
);
},
{
closed = 1;
nodes = (
"168 393 LINE SMOOTH",
"168 507 OFFCURVE",
"232 583 OFFCURVE",
"327 583 CURVE SMOOTH",
"428 583 LINE SMOOTH",
"498 583 OFFCURVE",
"544 529 OFFCURVE",
"544 448 CURVE SMOOTH",
"544 307 LINE SMOOTH",
"544 193 OFFCURVE",
"481 117 OFFCURVE",
"387 117 CURVE SMOOTH",
"284 117 LINE SMOOTH",
"214 117 OFFCURVE",
"168 171 OFFCURVE",
"168 252 CURVE SMOOTH"
);
},
{
closed = 1;
nodes = (
"30 98 OFFCURVE",
"132 -5 OFFCURVE",
"284 -5 CURVE SMOOTH",
"387 -5 LINE SMOOTH",
"554 -5 OFFCURVE",
"682 130 OFFCURVE",
"682 307 CURVE SMOOTH",
"682 448 LINE SMOOTH",
"682 602 OFFCURVE",
"580 705 OFFCURVE",
"428 705 CURVE SMOOTH",
"327 705 LINE SMOOTH",
"149 705 OFFCURVE",
"30 580 OFFCURVE",
"30 393 CURVE SMOOTH",
"30 252 LINE SMOOTH"
);
}
);
width = 726;
},
{
associatedMasterId = "020CB1CC-CCFF-4D13-936A-D2256F19E5D3";
layerId = "8AF6BA7E-4672-4BE4-A9AE-4DB948958C2C";
width = 600;
},
{
associatedMasterId = "020CB1CC-CCFF-4D13-936A-D2256F19E5D3";
layerId = "F7E09509-B089-4ED3-80B4-7EC038265276";
width = 600;
},
{
anchors = (
{
name = bottom;
position = "{339, 0}";
},
{
name = top;
position = "{339, 700}";
}
);
background = {
paths = (
{
closed = 1;
nodes = (
"620 -23 LINE",
"664 21 LINE",
"440 250 LINE",
"396 206 LINE"
);
},
{
closed = 1;
nodes = (
"120 422 LINE SMOOTH",
"120 555 OFFCURVE",
"198 644 OFFCURVE",
"314 644 CURVE SMOOTH",
"419 644 LINE SMOOTH",
"510 644 OFFCURVE",
"570 577 OFFCURVE",
"570 477 CURVE SMOOTH",
"570 278 LINE SMOOTH",
"570 145 OFFCURVE",
"493 56 OFFCURVE",
"378 56 CURVE SMOOTH",
"271 56 LINE SMOOTH",
"180 56 OFFCURVE",
"120 123 OFFCURVE",
"120 223 CURVE SMOOTH"
);
},
{
closed = 1;
nodes = (
"51 86 OFFCURVE",
"139 -6 OFFCURVE",
"271 -6 CURVE SMOOTH",
"378 -6 LINE SMOOTH",
"535 -6 OFFCURVE",
"639 108 OFFCURVE",
"639 278 CURVE SMOOTH",
"639 477 LINE SMOOTH",
"639 614 OFFCURVE",
"551 706 OFFCURVE",
"419 706 CURVE SMOOTH",
"314 706 LINE SMOOTH",
"156 706 OFFCURVE",
"51 592 OFFCURVE",
"51 422 CURVE SMOOTH",
"51 223 LINE SMOOTH"
);
}
);
};
layerId = "020CB1CC-CCFF-4D13-936A-D2256F19E5D3";
paths = (
{
closed = 1;
nodes = (
"624 -15 LINE",
"646 6 LINE",
"435 221 LINE",
"413 200 LINE"
);
},
{
closed = 1;
nodes = (
"108 439 LINE SMOOTH",
"108 581 OFFCURVE",
"191 674 OFFCURVE",
"318 674 CURVE SMOOTH",
"419 674 LINE SMOOTH",
"519 674 OFFCURVE",
"586 603 OFFCURVE",
"586 494 CURVE SMOOTH",
"586 261 LINE SMOOTH",
"586 119 OFFCURVE",
"502 26 OFFCURVE",
"378 26 CURVE SMOOTH",
"275 26 LINE SMOOTH",
"174 26 OFFCURVE",
"108 97 OFFCURVE",
"108 206 CURVE SMOOTH"
);
},
{
closed = 1;
nodes = (
"72 79 OFFCURVE",
"153 -7 OFFCURVE",
"275 -7 CURVE SMOOTH",
"378 -7 LINE SMOOTH",
"530 -7 OFFCURVE",
"622 95 OFFCURVE",
"622 261 CURVE SMOOTH",
"622 494 LINE SMOOTH",
"622 621 OFFCURVE",
"540 707 OFFCURVE",
"419 707 CURVE SMOOTH",
"318 707 LINE SMOOTH",
"170 707 OFFCURVE",
"72 599 OFFCURVE",
"72 439 CURVE SMOOTH",
"72 206 LINE SMOOTH"
);
}
);
width = 660;
},
{
associatedMasterId = "020CB1CC-CCFF-4D13-936A-D2256F19E5D3";
layerId = "D893B644-DE11-4E16-8D30-6BFEF0B08C8B";
width = 600;
},
{
anchors = (
{
name = bottom;
position = "{342, 0}";
},
{
name = top;
position = "{342, 700}";
}
);
layerId = "76C6DC51-463D-4A0C-B694-3EB424048C5D";
paths = (
{
closed = 1;
nodes = (
"621 -23 LINE",
"668 24 LINE",
"444 253 LINE",
"397 206 LINE"
);
},
{
closed = 1;
nodes = (
"130 422 LINE SMOOTH",
"130 553 OFFCURVE",
"206 640 OFFCURVE",
"321 640 CURVE SMOOTH",
"422 640 LINE SMOOTH",
"511 640 OFFCURVE",
"570 575 OFFCURVE",
"570 477 CURVE SMOOTH",
"570 278 LINE SMOOTH",
"570 147 OFFCURVE",
"494 60 OFFCURVE",
"381 60 CURVE SMOOTH",
"278 60 LINE SMOOTH",
"189 60 OFFCURVE",
"130 125 OFFCURVE",
"130 223 CURVE SMOOTH"
);
},
{
closed = 1;
nodes = (
"56 86 OFFCURVE",
"145 -6 OFFCURVE",
"278 -6 CURVE SMOOTH",
"381 -6 LINE SMOOTH",
"539 -6 OFFCURVE",
"644 108 OFFCURVE",
"644 278 CURVE SMOOTH",
"644 477 LINE SMOOTH",
"644 614 OFFCURVE",
"555 706 OFFCURVE",
"422 706 CURVE SMOOTH",
"321 706 LINE SMOOTH",
"162 706 OFFCURVE",
"56 592 OFFCURVE",
"56 422 CURVE SMOOTH",
"56 223 LINE SMOOTH"
);
}
);
width = 684;
}
);
note = Q;
unicode = 0051;
},
{
glyphname = R;
lastChange = "2018-02-12 08:59:17 +0000";
layers = (
{
anchors = (
{
name = bottom;
position = "{327, 0}";
},
{
name = top;
position = "{327, 700}";
}
);
background = {
paths = (
{
closed = 1;
nodes = (
"45 700 LINE",
"45 0 LINE",
"183 0 LINE",
"183 252 LINE",
"358 252 LINE SMOOTH",
"409 252 OFFCURVE",
"438 214 OFFCURVE",
"456 161 CURVE SMOOTH",
"511 0 LINE",
"654 0 LINE",
"594 177 LINE SMOOTH",
"578 226 OFFCURVE",
"548 275 OFFCURVE",
"520 299 CURVE",
"581 332 OFFCURVE",
"622 393 OFFCURVE",
"622 451 CURVE SMOOTH",
"622 513 LINE SMOOTH",
"622 625 OFFCURVE",
"542 700 OFFCURVE",
"421 700 CURVE SMOOTH"
);
},
{
closed = 1;
nodes = (
"459 580 OFFCURVE",
"484 556 OFFCURVE",
"484 519 CURVE SMOOTH",
"484 451 LINE SMOOTH",
"484 404 OFFCURVE",
"449 372 OFFCURVE",
"396 372 CURVE SMOOTH",
"183 372 LINE",
"183 580 LINE",
"421 580 LINE SMOOTH"
);
}
);
};
layerId = "EA06CE92-4115-4482-8874-2441C279E756";
paths = (
{
closed = 1;
nodes = (
"45 700 LINE",
"45 0 LINE",
"183 0 LINE",
"183 252 LINE",
"358 252 LINE SMOOTH",
"409 252 OFFCURVE",
"438 214 OFFCURVE",
"456 161 CURVE SMOOTH",
"511 0 LINE",
"654 0 LINE",
"594 177 LINE SMOOTH",
"577 228 OFFCURVE",
"547 277 OFFCURVE",
"517 300 CURVE",
"580 334 OFFCURVE",
"622 394 OFFCURVE",
"622 451 CURVE SMOOTH",
"622 513 LINE SMOOTH",
"622 625 OFFCURVE",
"542 700 OFFCURVE",
"421 700 CURVE SMOOTH"
);
},
{
closed = 1;
nodes = (
"459 580 OFFCURVE",
"484 556 OFFCURVE",
"484 519 CURVE SMOOTH",
"484 451 LINE SMOOTH",
"484 404 OFFCURVE",
"449 372 OFFCURVE",
"396 372 CURVE SMOOTH",
"181 372 LINE",
"181 580 LINE",
"421 580 LINE SMOOTH"
);
}
);
width = 659;
},
{
associatedMasterId = "020CB1CC-CCFF-4D13-936A-D2256F19E5D3";
layerId = "8AF6BA7E-4672-4BE4-A9AE-4DB948958C2C";
width = 600;
},
{
associatedMasterId = "020CB1CC-CCFF-4D13-936A-D2256F19E5D3";
layerId = "B534C071-F737-4F5D-BBDF-160D283A8C0C";
width = 600;
},
{
anchors = (
{
name = bottom;
position = "{324, 0}";
},
{
name = top;
position = "{324, 700}";
}
);
background = {
paths = (
{
closed = 1;
nodes = (
"76 0 LINE",
"145 0 LINE",
"145 302 LINE",
"238 302 LINE SMOOTH",
"328 302 OFFCURVE",
"356 260 OFFCURVE",
"391 207 CURVE SMOOTH",
"528 0 LINE",
"606 0 LINE",
"471 207 LINE SMOOTH",
"444 249 OFFCURVE",
"421 280 OFFCURVE",
"381 304 CURVE",
"392 304 LINE SMOOTH",
"492 304 OFFCURVE",
"576 386 OFFCURVE",
"576 503 CURVE SMOOTH",
"576 621 OFFCURVE",
"498 700 OFFCURVE",
"382 700 CURVE SMOOTH",
"76 700 LINE"
);
},
{
closed = 1;
nodes = (
"382 638 LINE SMOOTH",
"456 638 OFFCURVE",
"505 584 OFFCURVE",
"505 503 CURVE SMOOTH",
"505 420 OFFCURVE",
"456 364 OFFCURVE",
"382 364 CURVE SMOOTH",
"145 364 LINE",
"145 638 LINE"
);
}
);
};
layerId = "020CB1CC-CCFF-4D13-936A-D2256F19E5D3";
paths = (
{
closed = 1;
nodes = (
"93 700 LINE",
"93 0 LINE",
"129 0 LINE",
"129 322 LINE",
"355 322 LINE SMOOTH",
"420 322 OFFCURVE",
"479 282 OFFCURVE",
"502 203 CURVE SMOOTH",
"560 0 LINE",
"597 0 LINE",
"541 193 LINE SMOOTH",
"521 262 OFFCURVE",
"481 307 OFFCURVE",
"432 322 CURVE",
"513 336 OFFCURVE",
"568 399 OFFCURVE",
"568 480 CURVE SMOOTH",
"568 558 LINE SMOOTH",
"568 643 OFFCURVE",
"507 700 OFFCURVE",
"418 700 CURVE SMOOTH"
);
},
{
closed = 1;
nodes = (
"486 666 OFFCURVE",
"532 623 OFFCURVE",
"532 561 CURVE SMOOTH",
"532 480 LINE SMOOTH",
"532 406 OFFCURVE",
"476 356 OFFCURVE",
"393 356 CURVE SMOOTH",
"130 356 LINE",
"130 666 LINE",
"418 666 LINE SMOOTH"
);
}
);
width = 645;
},
{
associatedMasterId = "020CB1CC-CCFF-4D13-936A-D2256F19E5D3";
layerId = "D7A6115E-1A1D-4224-861B-64AE24996F6F";
width = 600;
},
{
anchors = (
{
name = bottom;
position = "{325, 0}";
},
{
name = top;
position = "{325, 700}";
}
);
layerId = "76C6DC51-463D-4A0C-B694-3EB424048C5D";
paths = (
{
closed = 1;
nodes = (
"75 700 LINE",
"75 0 LINE",
"149 0 LINE",
"149 296 LINE",
"356 296 LINE SMOOTH",
"416 296 OFFCURVE",
"464 256 OFFCURVE",
"485 187 CURVE SMOOTH",
"542 0 LINE",
"618 0 LINE",
"561 187 LINE SMOOTH",
"542 249 OFFCURVE",
"506 296 OFFCURVE",
"464 314 CURVE",
"538 335 OFFCURVE",
"588 397 OFFCURVE",
"588 469 CURVE SMOOTH",
"588 541 LINE SMOOTH",
"588 636 OFFCURVE",
"520 700 OFFCURVE",
"419 700 CURVE SMOOTH"
);
},
{
closed = 1;
nodes = (
"476 634 OFFCURVE",
"514 598 OFFCURVE",
"514 545 CURVE SMOOTH",
"514 469 LINE SMOOTH",
"514 405 OFFCURVE",
"466 362 OFFCURVE",
"394 362 CURVE SMOOTH",
"149 362 LINE",
"149 634 LINE",
"419 634 LINE SMOOTH"
);
}
);
width = 650;
}
);
note = R;
unicode = 0052;
},
{
glyphname = S;
lastChange = "2018-02-12 08:59:17 +0000";
layers = (
{
anchors = (
{
name = bottom;
position = "{319, 0}";
},
{
name = top;
position = "{319, 700}";
}
);
background = {
paths = (
{
closed = 1;
nodes = (
"362 -6 LINE SMOOTH",
"499 -6 OFFCURVE",
"591 67 OFFCURVE",
"591 176 CURVE SMOOTH",
"591 200 LINE SMOOTH",
"591 292 OFFCURVE",
"529 356 OFFCURVE",
"423 374 CURVE SMOOTH",
"220 409 LINE SMOOTH",
"168 418 OFFCURVE",
"134 451 OFFCURVE",
"134 492 CURVE SMOOTH",
"134 516 LINE SMOOTH",
"134 590 OFFCURVE",
"187 639 OFFCURVE",
"266 639 CURVE SMOOTH",
"382 639 LINE SMOOTH",
"453 639 OFFCURVE",
"500 583 OFFCURVE",
"500 498 CURVE",
"572 498 LINE",
"572 622 OFFCURVE",
"496 705 OFFCURVE",
"382 705 CURVE SMOOTH",
"266 705 LINE SMOOTH",
"142 705 OFFCURVE",
"60 629 OFFCURVE",
"60 516 CURVE SMOOTH",
"60 492 LINE SMOOTH",
"60 418 OFFCURVE",
"120 358 OFFCURVE",
"210 343 CURVE SMOOTH",
"416 308 LINE SMOOTH",
"479 299 OFFCURVE",
"517 259 OFFCURVE",
"517 200 CURVE SMOOTH",
"517 176 LINE SMOOTH",
"517 106 OFFCURVE",
"455 60 OFFCURVE",
"362 60 CURVE SMOOTH",
"260 60 LINE SMOOTH",
"177 60 OFFCURVE",
"122 124 OFFCURVE",
"122 219 CURVE",
"50 219 LINE",
"50 84 OFFCURVE",
"134 -6 OFFCURVE",
"260 -6 CURVE SMOOTH"
);
}
);
};
layerId = "EA06CE92-4115-4482-8874-2441C279E756";
paths = (
{
closed = 1;
nodes = (
"363 -6 LINE SMOOTH",
"520 -6 OFFCURVE",
"624 72 OFFCURVE",
"624 189 CURVE SMOOTH",
"624 213 LINE SMOOTH",
"624 311 OFFCURVE",
"552 381 OFFCURVE",
"429 402 CURVE SMOOTH",
"226 437 LINE SMOOTH",
"189 443 OFFCURVE",
"167 462 OFFCURVE",
"167 487 CURVE SMOOTH",
"167 511 LINE SMOOTH",
"167 555 OFFCURVE",
"207 584 OFFCURVE",
"267 584 CURVE SMOOTH",
"383 584 LINE SMOOTH",
"434 584 OFFCURVE",
"468 548 OFFCURVE",
"468 493 CURVE",
"604 493 LINE",
"604 621 OFFCURVE",
"516 706 OFFCURVE",
"383 706 CURVE SMOOTH",
"267 706 LINE SMOOTH",
"124 706 OFFCURVE",
"29 628 OFFCURVE",
"29 511 CURVE SMOOTH",
"29 487 LINE SMOOTH",
"29 398 OFFCURVE",
"95 334 OFFCURVE",
"206 315 CURVE SMOOTH",
"412 281 LINE SMOOTH",
"459 274 OFFCURVE",
"486 249 OFFCURVE",
"486 213 CURVE SMOOTH",
"486 189 LINE SMOOTH",
"486 145 OFFCURVE",
"437 116 OFFCURVE",
"363 116 CURVE SMOOTH",
"261 116 LINE SMOOTH",
"198 116 OFFCURVE",
"156 160 OFFCURVE",
"156 225 CURVE",
"20 225 LINE",
"20 86 OFFCURVE",
"116 -6 OFFCURVE",
"261 -6 CURVE SMOOTH"
);
}
);
width = 639;
},
{
associatedMasterId = "020CB1CC-CCFF-4D13-936A-D2256F19E5D3";
layerId = "8AF6BA7E-4672-4BE4-A9AE-4DB948958C2C";
width = 600;
},
{
associatedMasterId = "020CB1CC-CCFF-4D13-936A-D2256F19E5D3";
layerId = "4C2210A5-135A-4B17-8770-5A3101254AF2";
width = 600;
},
{
anchors = (
{
name = bottom;
position = "{317, 0}";
},
{
name = top;
position = "{317, 700}";
}
);
background = {
paths = (
{
closed = 1;
nodes = (
"50 225 LINE",
"50 90 OFFCURVE",
"134 0 OFFCURVE",
"260 0 CURVE SMOOTH",
"362 0 LINE SMOOTH",
"499 0 OFFCURVE",
"591 72 OFFCURVE",
"591 179 CURVE SMOOTH",
"591 203 LINE SMOOTH",
"591 289 OFFCURVE",
"524 357 OFFCURVE",
"423 374 CURVE SMOOTH",
"220 409 LINE SMOOTH",
"165 419 OFFCURVE",
"129 452 OFFCURVE",
"129 492 CURVE SMOOTH",
"129 516 LINE SMOOTH",
"129 592 OFFCURVE",
"183 643 OFFCURVE",
"266 643 CURVE SMOOTH",
"382 643 LINE SMOOTH",
"456 643 OFFCURVE",
"505 585 OFFCURVE",
"505 498 CURVE",
"572 498 LINE",
"572 622 OFFCURVE",
"496 705 OFFCURVE",
"382 705 CURVE SMOOTH",
"266 705 LINE SMOOTH",
"141 705 OFFCURVE",
"60 629 OFFCURVE",
"60 516 CURVE SMOOTH",
"60 492 LINE SMOOTH",
"60 418 OFFCURVE",
"120 358 OFFCURVE",
"210 343 CURVE SMOOTH",
"416 308 LINE SMOOTH",
"480 299 OFFCURVE",
"522 257 OFFCURVE",
"522 203 CURVE SMOOTH",
"522 179 LINE SMOOTH",
"522 109 OFFCURVE",
"458 62 OFFCURVE",
"362 62 CURVE SMOOTH",
"260 62 LINE SMOOTH",
"174 62 OFFCURVE",
"117 127 OFFCURVE",
"117 225 CURVE"
);
}
);
};
layerId = "020CB1CC-CCFF-4D13-936A-D2256F19E5D3";
paths = (
{
closed = 1;
nodes = (
"361 -6 LINE SMOOTH",
"486 -6 OFFCURVE",
"571 64 OFFCURVE",
"571 168 CURVE SMOOTH",
"571 192 LINE SMOOTH",
"571 281 OFFCURVE",
"515 341 OFFCURVE",
"419 357 CURVE SMOOTH",
"217 392 LINE SMOOTH",
"155 403 OFFCURVE",
"114 444 OFFCURVE",
"114 495 CURVE SMOOTH",
"114 519 LINE SMOOTH",
"114 611 OFFCURVE",
"175 672 OFFCURVE",
"265 672 CURVE SMOOTH",
"381 672 LINE SMOOTH",
"464 672 OFFCURVE",
"519 604 OFFCURVE",
"519 501 CURVE",
"553 501 LINE",
"553 623 OFFCURVE",
"484 704 OFFCURVE",
"381 704 CURVE SMOOTH",
"265 704 LINE SMOOTH",
"153 704 OFFCURVE",
"79 630 OFFCURVE",
"79 519 CURVE SMOOTH",
"79 495 LINE SMOOTH",
"79 430 OFFCURVE",
"135 373 OFFCURVE",
"212 360 CURVE SMOOTH",
"419 325 LINE SMOOTH",
"491 313 OFFCURVE",
"536 265 OFFCURVE",
"536 192 CURVE SMOOTH",
"536 168 LINE SMOOTH",
"536 83 OFFCURVE",
"466 26 OFFCURVE",
"361 26 CURVE SMOOTH",
"259 26 LINE SMOOTH",
"164 26 OFFCURVE",
"102 102 OFFCURVE",
"102 215 CURVE",
"68 215 LINE",
"68 83 OFFCURVE",
"145 -6 OFFCURVE",
"259 -6 CURVE SMOOTH"
);
}
);
width = 634;
},
{
associatedMasterId = "020CB1CC-CCFF-4D13-936A-D2256F19E5D3";
layerId = "8A41E671-91F9-4C6A-ACDA-99B8D053A0D5";
width = 600;
},
{
anchors = (
{
name = bottom;
position = "{318, 0}";
},
{
name = top;
position = "{318, 700}";
}
);
layerId = "76C6DC51-463D-4A0C-B694-3EB424048C5D";
paths = (
{
closed = 1;
nodes = (
"362 -6 LINE SMOOTH",
"499 -6 OFFCURVE",
"591 67 OFFCURVE",
"591 176 CURVE SMOOTH",
"591 200 LINE SMOOTH",
"591 292 OFFCURVE",
"529 356 OFFCURVE",
"423 374 CURVE SMOOTH",
"220 409 LINE SMOOTH",
"168 418 OFFCURVE",
"134 451 OFFCURVE",
"134 492 CURVE SMOOTH",
"134 516 LINE SMOOTH",
"134 590 OFFCURVE",
"187 639 OFFCURVE",
"266 639 CURVE SMOOTH",
"382 639 LINE SMOOTH",
"453 639 OFFCURVE",
"500 583 OFFCURVE",
"500 498 CURVE",
"572 498 LINE",
"572 622 OFFCURVE",
"496 705 OFFCURVE",
"382 705 CURVE SMOOTH",
"266 705 LINE SMOOTH",
"142 705 OFFCURVE",
"60 629 OFFCURVE",
"60 516 CURVE SMOOTH",
"60 492 LINE SMOOTH",
"60 418 OFFCURVE",
"120 358 OFFCURVE",
"210 343 CURVE SMOOTH",
"416 308 LINE SMOOTH",
"479 299 OFFCURVE",
"517 259 OFFCURVE",
"517 200 CURVE SMOOTH",
"517 176 LINE SMOOTH",
"517 106 OFFCURVE",
"455 60 OFFCURVE",
"362 60 CURVE SMOOTH",
"260 60 LINE SMOOTH",
"177 60 OFFCURVE",
"122 124 OFFCURVE",
"122 219 CURVE",
"50 219 LINE",
"50 84 OFFCURVE",
"134 -6 OFFCURVE",
"260 -6 CURVE SMOOTH"
);
}
);
width = 636;
}
);
note = S;
unicode = 0053;
},
{
glyphname = T;
lastChange = "2018-02-12 08:59:17 +0000";
layers = (
{
anchors = (
{
name = bottom;
position = "{300, 0}";
},
{
name = center;
position = "{300, 350}";
},
{
name = top;
position = "{300, 700}";
}
);
background = {
paths = (
{
closed = 1;
nodes = (
"262 0 LINE",
"336 0 LINE",
"336 634 LINE",
"561 634 LINE",
"561 700 LINE",
"37 700 LINE",
"37 634 LINE",
"262 634 LINE"
);
}
);
};
layerId = "EA06CE92-4115-4482-8874-2441C279E756";
paths = (
{
closed = 1;
nodes = (
"230 0 LINE",
"368 0 LINE",
"368 578 LINE",
"593 578 LINE",
"593 700 LINE",
"5 700 LINE",
"5 578 LINE",
"230 578 LINE"
);
}
);
width = 598;
},
{
associatedMasterId = "020CB1CC-CCFF-4D13-936A-D2256F19E5D3";
layerId = "8AF6BA7E-4672-4BE4-A9AE-4DB948958C2C";
width = 600;
},
{
associatedMasterId = "020CB1CC-CCFF-4D13-936A-D2256F19E5D3";
layerId = "1ADA52BE-D832-4CC2-881F-BE1D9BDD7F23";
width = 600;
},
{
anchors = (
{
name = bottom;
position = "{295, 0}";
},
{
name = center;
position = "{295, 350}";
},
{
name = top;
position = "{295, 700}";
}
);
layerId = "020CB1CC-CCFF-4D13-936A-D2256F19E5D3";
paths = (
{
closed = 1;
nodes = (
"276 0 LINE",
"312 0 LINE",
"312 668 LINE",
"537 668 LINE",
"537 700 LINE",
"51 700 LINE",
"51 668 LINE",
"276 668 LINE"
);
}
);
width = 590;
},
{
associatedMasterId = "020CB1CC-CCFF-4D13-936A-D2256F19E5D3";
layerId = "285359E2-BB18-4B4D-A366-AA909422BDC7";
width = 600;
},
{
anchors = (
{
name = bottom;
position = "{297, 0}";
},
{
name = center;
position = "{297, 350}";
},
{
name = top;
position = "{297, 700}";
}
);
layerId = "76C6DC51-463D-4A0C-B694-3EB424048C5D";
paths = (
{
closed = 1;
nodes = (
"259 0 LINE",
"333 0 LINE",
"333 634 LINE",
"558 634 LINE",
"558 700 LINE",
"34 700 LINE",
"34 634 LINE",
"259 634 LINE"
);
}
);
width = 593;
}
);
note = T;
unicode = 0054;
},
{
glyphname = U;
lastChange = "2018-02-12 08:59:17 +0000";
layers = (
{
anchors = (
{
name = bottom;
position = "{348, 0}";
},
{
name = ogonek;
position = "{624, 10}";
},
{
name = top;
position = "{348, 700}";
},
{
name = topright;
position = "{673, 700}";
}
);
background = {
paths = (
{
closed = 1;
nodes = (
"72 86 OFFCURVE",
"156 -6 OFFCURVE",
"283 -6 CURVE SMOOTH",
"383 -6 LINE SMOOTH",
"527 -6 OFFCURVE",
"623 102 OFFCURVE",
"623 265 CURVE SMOOTH",
"623 700 LINE",
"549 700 LINE",
"549 265 LINE SMOOTH",
"549 142 OFFCURVE",
"483 60 OFFCURVE",
"383 60 CURVE SMOOTH",
"283 60 LINE SMOOTH",
"201 60 OFFCURVE",
"146 125 OFFCURVE",
"146 223 CURVE SMOOTH",
"146 700 LINE",
"72 700 LINE",
"72 223 LINE SMOOTH"
);
}
);
};
layerId = "EA06CE92-4115-4482-8874-2441C279E756";
paths = (
{
closed = 1;
nodes = (
"40 97 OFFCURVE",
"137 -6 OFFCURVE",
"283 -6 CURVE SMOOTH",
"383 -6 LINE SMOOTH",
"546 -6 OFFCURVE",
"654 114 OFFCURVE",
"654 293 CURVE SMOOTH",
"654 700 LINE",
"516 700 LINE",
"516 293 LINE SMOOTH",
"516 187 OFFCURVE",
"463 116 OFFCURVE",
"383 116 CURVE SMOOTH",
"283 116 LINE SMOOTH",
"220 116 OFFCURVE",
"178 170 OFFCURVE",
"178 251 CURVE SMOOTH",
"178 700 LINE",
"40 700 LINE",
"40 251 LINE SMOOTH"
);
}
);
width = 695;
},
{
associatedMasterId = "020CB1CC-CCFF-4D13-936A-D2256F19E5D3";
layerId = "8AF6BA7E-4672-4BE4-A9AE-4DB948958C2C";
width = 600;
},
{
associatedMasterId = "020CB1CC-CCFF-4D13-936A-D2256F19E5D3";
layerId = "04A8D49C-6E7D-4122-ACF5-C0A4C4E8B37D";
width = 600;
},
{
anchors = (
{
name = bottom;
position = "{345, 0}";
},
{
name = ogonek;
position = "{621, 10}";
},
{
name = top;
position = "{345, 700}";
},
{
name = topright;
position = "{670, 700}";
}
);
background = {
paths = (
{
closed = 1;
nodes = (
"70 95 OFFCURVE",
"154 -6 OFFCURVE",
"281 -6 CURVE SMOOTH",
"381 -6 LINE SMOOTH",
"525 -6 OFFCURVE",
"621 102 OFFCURVE",
"621 265 CURVE SMOOTH",
"621 700 LINE",
"552 700 LINE",
"552 265 LINE SMOOTH",
"552 134 OFFCURVE",
"488 56 OFFCURVE",
"381 56 CURVE SMOOTH",
"281 56 LINE SMOOTH",
"196 56 OFFCURVE",
"139 125 OFFCURVE",
"139 223 CURVE SMOOTH",
"139 700 LINE",
"70 700 LINE",
"70 223 LINE SMOOTH"
);
}
);
};
layerId = "020CB1CC-CCFF-4D13-936A-D2256F19E5D3";
paths = (
{
closed = 1;
nodes = (
"88 79 OFFCURVE",
"164 -6 OFFCURVE",
"280 -6 CURVE SMOOTH",
"380 -6 LINE SMOOTH",
"512 -6 OFFCURVE",
"601 95 OFFCURVE",
"601 248 CURVE SMOOTH",
"601 700 LINE",
"566 700 LINE",
"566 248 LINE SMOOTH",
"566 115 OFFCURVE",
"492 26 OFFCURVE",
"380 26 CURVE SMOOTH",
"280 26 LINE SMOOTH",
"186 26 OFFCURVE",
"124 98 OFFCURVE",
"124 206 CURVE SMOOTH",
"124 700 LINE",
"88 700 LINE",
"88 206 LINE SMOOTH"
);
}
);
width = 688;
},
{
associatedMasterId = "020CB1CC-CCFF-4D13-936A-D2256F19E5D3";
layerId = "DFE83F9F-4A47-4BE5-9843-031C238356D4";
width = 600;
},
{
anchors = (
{
name = bottom;
position = "{346, 0}";
},
{
name = ogonek;
position = "{622, 10}";
},
{
name = top;
position = "{346, 700}";
},
{
name = topright;
position = "{671, 700}";
}
);
layerId = "76C6DC51-463D-4A0C-B694-3EB424048C5D";
paths = (
{
closed = 1;
nodes = (
"70 86 OFFCURVE",
"154 -6 OFFCURVE",
"281 -6 CURVE SMOOTH",
"381 -6 LINE SMOOTH",
"525 -6 OFFCURVE",
"621 102 OFFCURVE",
"621 265 CURVE SMOOTH",
"621 700 LINE",
"547 700 LINE",
"547 265 LINE SMOOTH",
"547 142 OFFCURVE",
"481 60 OFFCURVE",
"381 60 CURVE SMOOTH",
"281 60 LINE SMOOTH",
"199 60 OFFCURVE",
"144 125 OFFCURVE",
"144 223 CURVE SMOOTH",
"144 700 LINE",
"70 700 LINE",
"70 223 LINE SMOOTH"
);
}
);
width = 691;
}
);
note = U;
unicode = 0055;
},
{
color = 1;
glyphname = V;
lastChange = "2018-02-12 09:26:36 +0000";
layers = (
{
anchors = (
{
name = bottom;
position = "{340, 0}";
},
{
name = top;
position = "{340, 700}";
}
);
background = {
paths = (
{
closed = 1;
nodes = (
"272 18 OFFCURVE",
"305 -6 OFFCURVE",
"356 -6 CURVE SMOOTH",
"396 -6 LINE",
"681 700 LINE",
"535 700 LINE",
"317 121 LINE",
"362 121 LINE",
"145 700 LINE",
"0 700 LINE",
"252 69 LINE SMOOTH"
);
}
);
};
layerId = "EA06CE92-4115-4482-8874-2441C279E756";
paths = (
{
closed = 1;
nodes = (
"270 20 OFFCURVE",
"299 0 OFFCURVE",
"342 0 CURVE SMOOTH",
"400 0 LINE",
"681 700 LINE",
"530 700 LINE",
"317 133 LINE",
"362 133 LINE",
"150 700 LINE",
"0 700 LINE",
"252 65 LINE SMOOTH"
);
}
);
width = 681;
},
{
associatedMasterId = "020CB1CC-CCFF-4D13-936A-D2256F19E5D3";
layerId = "8AF6BA7E-4672-4BE4-A9AE-4DB948958C2C";
width = 600;
},
{
associatedMasterId = "020CB1CC-CCFF-4D13-936A-D2256F19E5D3";
layerId = "00A62930-547E-45E6-9563-288AD30966DA";
width = 600;
},
{
anchors = (
{
name = bottom;
position = "{334, 0}";
},
{
name = top;
position = "{334, 700}";
}
);
background = {
paths = (
{
closed = 1;
nodes = (
"306 11 OFFCURVE",
"313 0 OFFCURVE",
"328 0 CURVE SMOOTH",
"354 0 LINE",
"619 700 LINE",
"584 700 LINE",
"347 63 LINE",
"319 63 LINE",
"84 700 LINE",
"48 700 LINE",
"297 35 LINE SMOOTH"
);
}
);
};
layerId = "020CB1CC-CCFF-4D13-936A-D2256F19E5D3";
paths = (
{
closed = 1;
nodes = (
"308 8 OFFCURVE",
"318 0 OFFCURVE",
"334 0 CURVE SMOOTH",
"352 0 LINE",
"619 700 LINE",
"581 700 LINE",
"333 37 LINE",
"332 37 LINE",
"86 700 LINE",
"48 700 LINE",
"301 27 LINE SMOOTH"
);
}
);
width = 667;
},
{
associatedMasterId = "020CB1CC-CCFF-4D13-936A-D2256F19E5D3";
layerId = "77DA89A1-CCCE-4408-864A-0BBB3FB3CEBC";
width = 600;
},
{
anchors = (
{
name = bottom;
position = "{336, 0}";
},
{
name = top;
position = "{336, 700}";
}
);
layerId = "76C6DC51-463D-4A0C-B694-3EB424048C5D";
paths = (
{
closed = 1;
nodes = (
"292 14 OFFCURVE",
"308 0 OFFCURVE",
"333 0 CURVE SMOOTH",
"371 0 LINE",
"642 700 LINE",
"566 700 LINE",
"336 89 LINE",
"335 89 LINE",
"106 700 LINE",
"30 700 LINE",
"280 46 LINE SMOOTH"
);
}
);
width = 672;
}
);
note = V;
unicode = 0056;
},
{
glyphname = W;
lastChange = "2018-02-12 08:59:17 +0000";
layers = (
{
anchors = (
{
name = bottom;
position = "{411, 0}";
},
{
name = top;
position = "{411, 700}";
}
);
background = {
paths = (
{
closed = 1;
nodes = (
"262 -6 LINE",
"427 497 LINE",
"396 497 LINE",
"559 -6 LINE",
"617 -6 LINE SMOOTH",
"667 -6 OFFCURVE",
"695 19 OFFCURVE",
"705 72 CURVE SMOOTH",
"821 700 LINE",
"681 700 LINE",
"597 159 LINE",
"617 159 LINE",
"483 573 LINE SMOOTH",
"470 614 OFFCURVE",
"448 633 OFFCURVE",
"411 633 CURVE SMOOTH",
"361 633 LINE",
"204 159 LINE",
"224 159 LINE",
"140 700 LINE",
"0 700 LINE",
"115 72 LINE SMOOTH",
"125 19 OFFCURVE",
"153 -6 OFFCURVE",
"204 -6 CURVE SMOOTH"
);
}
);
};
layerId = "EA06CE92-4115-4482-8874-2441C279E756";
paths = (
{
closed = 1;
nodes = (
"262 0 LINE",
"427 497 LINE",
"396 497 LINE",
"559 0 LINE",
"617 0 LINE SMOOTH",
"667 0 OFFCURVE",
"695 25 OFFCURVE",
"705 78 CURVE SMOOTH",
"821 700 LINE",
"681 700 LINE",
"597 159 LINE",
"617 159 LINE",
"483 573 LINE SMOOTH",
"470 614 OFFCURVE",
"448 633 OFFCURVE",
"411 633 CURVE SMOOTH",
"361 633 LINE",
"204 159 LINE",
"224 159 LINE",
"140 700 LINE",
"0 700 LINE",
"115 78 LINE SMOOTH",
"125 25 OFFCURVE",
"153 0 OFFCURVE",
"204 0 CURVE SMOOTH"
);
}
);
width = 821;
},
{
associatedMasterId = "020CB1CC-CCFF-4D13-936A-D2256F19E5D3";
layerId = "8AF6BA7E-4672-4BE4-A9AE-4DB948958C2C";
width = 600;
},
{
associatedMasterId = "020CB1CC-CCFF-4D13-936A-D2256F19E5D3";
layerId = "EE58F0DE-A264-4B0D-9C87-988B92A40C83";
width = 600;
},
{
anchors = (
{
name = bottom;
position = "{406, 0}";
},
{
name = top;
position = "{406, 700}";
}
);
background = {
paths = (
{
closed = 1;
nodes = (
"235 -6 LINE",
"408 528 LINE",
"409 528 LINE",
"580 -6 LINE",
"604 -6 LINE SMOOTH",
"646 -6 OFFCURVE",
"665 15 OFFCURVE",
"673 59 CURVE SMOOTH",
"785 700 LINE",
"710 700 LINE",
"612 94 LINE",
"611 94 LINE",
"456 583 LINE SMOOTH",
"444 619 OFFCURVE",
"429 633 OFFCURVE",
"402 633 CURVE SMOOTH",
"378 633 LINE",
"204 94 LINE",
"203 94 LINE",
"105 700 LINE",
"30 700 LINE",
"142 59 LINE SMOOTH",
"150 15 OFFCURVE",
"170 -6 OFFCURVE",
"211 -6 CURVE SMOOTH"
);
}
);
};
layerId = "020CB1CC-CCFF-4D13-936A-D2256F19E5D3";
paths = (
{
closed = 1;
nodes = (
"222 0 LINE",
"397 547 LINE",
"417 547 LINE",
"589 0 LINE",
"603 0 LINE SMOOTH",
"632 0 OFFCURVE",
"648 17 OFFCURVE",
"655 57 CURVE SMOOTH",
"763 700 LINE",
"727 700 LINE",
"621 55 LINE",
"608 55 LINE",
"437 600 LINE SMOOTH",
"430 622 OFFCURVE",
"419 633 OFFCURVE",
"403 633 CURVE SMOOTH",
"388 633 LINE",
"204 55 LINE",
"190 55 LINE",
"84 700 LINE",
"48 700 LINE",
"157 57 LINE SMOOTH",
"164 17 OFFCURVE",
"180 0 OFFCURVE",
"209 0 CURVE SMOOTH"
);
}
);
width = 811;
},
{
associatedMasterId = "020CB1CC-CCFF-4D13-936A-D2256F19E5D3";
layerId = "D4613C8E-5C0A-4038-AF86-DFE4FF76750C";
width = 600;
},
{
anchors = (
{
name = bottom;
position = "{408, 0}";
},
{
name = top;
position = "{408, 700}";
}
);
layerId = "76C6DC51-463D-4A0C-B694-3EB424048C5D";
paths = (
{
closed = 1;
nodes = (
"237 0 LINE",
"408 528 LINE",
"409 528 LINE",
"578 0 LINE",
"608 0 LINE SMOOTH",
"645 0 OFFCURVE",
"666 20 OFFCURVE",
"674 65 CURVE SMOOTH",
"785 700 LINE",
"710 700 LINE",
"612 94 LINE",
"611 94 LINE",
"454 590 LINE SMOOTH",
"445 619 OFFCURVE",
"430 633 OFFCURVE",
"406 633 CURVE SMOOTH",
"378 633 LINE",
"204 94 LINE",
"203 94 LINE",
"105 700 LINE",
"30 700 LINE",
"141 65 LINE SMOOTH",
"149 20 OFFCURVE",
"170 0 OFFCURVE",
"207 0 CURVE SMOOTH"
);
}
);
width = 815;
}
);
note = W;
unicode = 0057;
},
{
glyphname = X;
lastChange = "2018-02-12 08:59:17 +0000";
layers = (
{
anchors = (
{
name = bottom;
position = "{350, 0}";
},
{
name = top;
position = "{350, 700}";
}
);
background = {
paths = (
{
closed = 1;
nodes = (
"545 -28 LINE",
"704 -28 LINE",
"162 728 LINE",
"3 728 LINE"
);
},
{
closed = 1;
nodes = (
"540 728 LINE",
"-3 -28 LINE",
"156 -28 LINE",
"698 728 LINE"
);
}
);
};
layerId = "EA06CE92-4115-4482-8874-2441C279E756";
paths = (
{
closed = 1;
nodes = (
"524 0 LINE",
"686 0 LINE",
"167 700 LINE",
"5 700 LINE"
);
},
{
closed = 1;
nodes = (
"514 700 LINE",
"15 0 LINE",
"177 0 LINE",
"676 700 LINE"
);
}
);
width = 689;
},
{
associatedMasterId = "020CB1CC-CCFF-4D13-936A-D2256F19E5D3";
layerId = "8AF6BA7E-4672-4BE4-A9AE-4DB948958C2C";
width = 600;
},
{
associatedMasterId = "020CB1CC-CCFF-4D13-936A-D2256F19E5D3";
layerId = "C8580B0E-1BF4-4D55-AF17-8C9DA2D046C0";
width = 600;
},
{
anchors = (
{
name = bottom;
position = "{318, 0}";
},
{
name = top;
position = "{318, 700}";
}
);
background = {
paths = (
{
closed = 1;
nodes = (
"373 355 LINE",
"620 700 LINE",
"537 700 LINE",
"330 410 LINE",
"124 700 LINE",
"41 700 LINE",
"288 355 LINE",
"33 0 LINE",
"116 0 LINE",
"330 300 LINE",
"543 0 LINE",
"626 0 LINE"
);
}
);
};
layerId = "020CB1CC-CCFF-4D13-936A-D2256F19E5D3";
paths = (
{
closed = 1;
nodes = (
"554 0 LINE",
"590 0 LINE",
"105 700 LINE",
"69 700 LINE"
);
},
{
closed = 1;
nodes = (
"546 700 LINE",
"47 0 LINE",
"83 0 LINE",
"580 700 LINE"
);
}
);
width = 644;
},
{
associatedMasterId = "020CB1CC-CCFF-4D13-936A-D2256F19E5D3";
layerId = "2FF14CE7-F819-4A2B-BD21-677EFE24EB59";
width = 600;
},
{
anchors = (
{
name = bottom;
position = "{330, 0}";
},
{
name = top;
position = "{330, 700}";
}
);
layerId = "76C6DC51-463D-4A0C-B694-3EB424048C5D";
paths = (
{
closed = 1;
nodes = (
"543 0 LINE",
"626 0 LINE",
"128 700 LINE",
"45 700 LINE"
);
},
{
closed = 1;
nodes = (
"534 700 LINE",
"35 0 LINE",
"118 0 LINE",
"616 700 LINE"
);
}
);
width = 661;
}
);
note = X;
unicode = 0058;
},
{
glyphname = Y;
lastChange = "2018-02-12 08:59:17 +0000";
layers = (
{
anchors = (
{
name = bottom;
position = "{341, 0}";
},
{
name = top;
position = "{341, 700}";
},
{
name = topleft;
position = "{26, 700}";
}
);
background = {
paths = (
{
closed = 1;
nodes = (
"409 286 LINE",
"700 728 LINE",
"545 728 LINE",
"341 413 LINE",
"136 728 LINE",
"-19 728 LINE",
"272 286 LINE",
"272 0 LINE",
"409 0 LINE"
);
}
);
};
layerId = "EA06CE92-4115-4482-8874-2441C279E756";
paths = (
{
closed = 1;
nodes = (
"409 286 LINE",
"681 700 LINE",
"526 700 LINE",
"341 411 LINE",
"155 700 LINE",
"0 700 LINE",
"272 286 LINE",
"272 0 LINE",
"409 0 LINE"
);
}
);
width = 681;
},
{
associatedMasterId = "020CB1CC-CCFF-4D13-936A-D2256F19E5D3";
layerId = "8AF6BA7E-4672-4BE4-A9AE-4DB948958C2C";
width = 600;
},
{
associatedMasterId = "020CB1CC-CCFF-4D13-936A-D2256F19E5D3";
layerId = "78203ADB-2734-4D0A-84AA-2358D21568A1";
width = 600;
},
{
anchors = (
{
name = bottom;
position = "{331, 0}";
},
{
name = top;
position = "{331, 700}";
},
{
name = topleft;
position = "{16, 700}";
}
);
layerId = "020CB1CC-CCFF-4D13-936A-D2256F19E5D3";
paths = (
{
closed = 1;
nodes = (
"348 297 LINE",
"614 700 LINE",
"577 700 LINE",
"331 325 LINE",
"85 700 LINE",
"48 700 LINE",
"314 297 LINE",
"314 0 LINE",
"348 0 LINE"
);
}
);
width = 662;
},
{
associatedMasterId = "020CB1CC-CCFF-4D13-936A-D2256F19E5D3";
layerId = "1A806601-681C-4EEF-8A48-81F6456A8F27";
width = 600;
},
{
anchors = (
{
name = bottom;
position = "{335, 0}";
},
{
name = top;
position = "{335, 700}";
},
{
name = topleft;
position = "{20, 700}";
}
);
layerId = "76C6DC51-463D-4A0C-B694-3EB424048C5D";
paths = (
{
closed = 1;
nodes = (
"371 293 LINE",
"639 700 LINE",
"558 700 LINE",
"335 357 LINE",
"111 700 LINE",
"30 700 LINE",
"298 293 LINE",
"298 0 LINE",
"371 0 LINE"
);
}
);
width = 669;
}
);
note = Y;
unicode = 0059;
},
{
glyphname = Z;
lastChange = "2018-02-12 08:59:17 +0000";
layers = (
{
anchors = (
{
name = bottom;
position = "{303, 0}";
},
{
name = top;
position = "{303, 700}";
}
);
background = {
paths = (
{
closed = 1;
nodes = (
"391 580 LINE",
"6 69 LINE",
"6 0 LINE",
"588 0 LINE",
"588 120 LINE",
"214 120 LINE",
"598 631 LINE",
"598 700 LINE",
"26 700 LINE",
"26 580 LINE"
);
}
);
};
layerId = "EA06CE92-4115-4482-8874-2441C279E756";
paths = (
{
closed = 1;
nodes = (
"395 584 LINE",
"10 69 LINE",
"10 0 LINE",
"584 0 LINE",
"584 116 LINE",
"209 116 LINE",
"594 631 LINE",
"594 700 LINE",
"30 700 LINE",
"30 584 LINE"
);
}
);
width = 604;
},
{
associatedMasterId = "020CB1CC-CCFF-4D13-936A-D2256F19E5D3";
layerId = "8AF6BA7E-4672-4BE4-A9AE-4DB948958C2C";
width = 600;
},
{
associatedMasterId = "020CB1CC-CCFF-4D13-936A-D2256F19E5D3";
layerId = "C63BD5EE-F908-4D10-93B8-728C682AD0C4";
width = 600;
},
{
anchors = (
{
name = bottom;
position = "{306, 0}";
},
{
name = top;
position = "{306, 700}";
}
);
background = {
paths = (
{
closed = 1;
nodes = (
"460 636 LINE",
"40 33 LINE",
"40 0 LINE",
"559 0 LINE",
"559 64 LINE",
"149 64 LINE",
"569 667 LINE",
"569 700 LINE",
"60 700 LINE",
"60 636 LINE"
);
}
);
};
layerId = "020CB1CC-CCFF-4D13-936A-D2256F19E5D3";
paths = (
{
closed = 1;
nodes = (
"486 667 LINE",
"58 11 LINE",
"58 0 LINE",
"531 0 LINE",
"531 33 LINE",
"113 33 LINE",
"541 689 LINE",
"541 700 LINE",
"78 700 LINE",
"78 667 LINE"
);
}
);
width = 599;
},
{
associatedMasterId = "020CB1CC-CCFF-4D13-936A-D2256F19E5D3";
layerId = "2DC570F0-810C-4241-B21D-34E6EBC1CAC4";
width = 600;
},
{
anchors = (
{
name = bottom;
position = "{305, 0}";
},
{
name = top;
position = "{305, 700}";
}
);
layerId = "76C6DC51-463D-4A0C-B694-3EB424048C5D";
paths = (
{
closed = 1;
nodes = (
"452 636 LINE",
"40 33 LINE",
"40 0 LINE",
"551 0 LINE",
"551 64 LINE",
"149 64 LINE",
"561 667 LINE",
"561 700 LINE",
"60 700 LINE",
"60 636 LINE"
);
}
);
width = 601;
}
);
note = Z;
unicode = 005A;
},
{
glyphname = a;
lastChange = "2018-02-12 09:12:17 +0000";
layers = (
{
anchors = (
{
name = bottom;
position = "{274, 0}";
},
{
name = top;
position = "{274, 470}";
}
);
background = {
paths = (
{
closed = 1;
nodes = (
"175 94 OFFCURVE",
"152 112 OFFCURVE",
"152 138 CURVE SMOOTH",
"152 158 LINE SMOOTH",
"152 185 OFFCURVE",
"182 203 OFFCURVE",
"226 203 CURVE SMOOTH",
"308 203 LINE SMOOTH",
"330 203 OFFCURVE",
"356 195 OFFCURVE",
"374 183 CURVE",
"374 156 LINE",
"351 119 OFFCURVE",
"307 94 OFFCURVE",
"264 94 CURVE SMOOTH",
"210 94 LINE SMOOTH"
);
},
{
closed = 1;
nodes = (
"166 372 OFFCURVE",
"200 391 OFFCURVE",
"252 391 CURVE SMOOTH",
"312 391 LINE SMOOTH",
"350 391 OFFCURVE",
"376 374 OFFCURVE",
"376 349 CURVE SMOOTH",
"376 285 LINE",
"352 297 OFFCURVE",
"321 307 OFFCURVE",
"298 307 CURVE SMOOTH",
"216 307 LINE SMOOTH",
"98 307 OFFCURVE",
"20 247 OFFCURVE",
"20 158 CURVE SMOOTH",
"20 138 LINE SMOOTH",
"20 49 OFFCURVE",
"92 -10 OFFCURVE",
"200 -10 CURVE SMOOTH",
"254 -10 LINE SMOOTH",
"295 -10 OFFCURVE",
"347 14 OFFCURVE",
"384 54 CURVE",
"384 0 LINE",
"510 0 LINE",
"510 349 LINE SMOOTH",
"510 444 OFFCURVE",
"431 507 OFFCURVE",
"312 507 CURVE SMOOTH",
"252 507 LINE SMOOTH",
"121 507 OFFCURVE",
"34 441 OFFCURVE",
"34 343 CURVE",
"166 343 LINE"
);
}
);
};
layerId = "EA06CE92-4115-4482-8874-2441C279E756";
paths = (
{
closed = 1;
nodes = (
"175 94 OFFCURVE",
"152 112 OFFCURVE",
"152 139 CURVE SMOOTH",
"152 159 LINE SMOOTH",
"152 185 OFFCURVE",
"178 203 OFFCURVE",
"216 203 CURVE SMOOTH",
"308 203 LINE SMOOTH",
"331 203 OFFCURVE",
"358 195 OFFCURVE",
"376 183 CURVE",
"376 156 LINE",
"353 119 OFFCURVE",
"308 94 OFFCURVE",
"264 94 CURVE SMOOTH",
"210 94 LINE SMOOTH"
);
},
{
closed = 1;
nodes = (
"166 372 OFFCURVE",
"200 391 OFFCURVE",
"252 391 CURVE SMOOTH",
"322 391 LINE SMOOTH",
"353 391 OFFCURVE",
"374 369 OFFCURVE",
"374 337 CURVE SMOOTH",
"374 285 LINE",
"348 298 OFFCURVE",
"317 307 OFFCURVE",
"298 307 CURVE SMOOTH",
"206 307 LINE SMOOTH",
"94 307 OFFCURVE",
"20 248 OFFCURVE",
"20 159 CURVE SMOOTH",
"20 139 LINE SMOOTH",
"20 50 OFFCURVE",
"92 -10 OFFCURVE",
"200 -10 CURVE SMOOTH",
"254 -10 LINE SMOOTH",
"296 -10 OFFCURVE",
"348 16 OFFCURVE",
"384 54 CURVE",
"384 0 LINE",
"510 0 LINE",
"510 337 LINE SMOOTH",
"510 439 OFFCURVE",
"435 507 OFFCURVE",
"322 507 CURVE SMOOTH",
"252 507 LINE SMOOTH",
"121 507 OFFCURVE",
"34 441 OFFCURVE",
"34 343 CURVE",
"166 343 LINE"
);
}
);
width = 550;
},
{
associatedMasterId = "020CB1CC-CCFF-4D13-936A-D2256F19E5D3";
layerId = "8AF6BA7E-4672-4BE4-A9AE-4DB948958C2C";
width = 600;
},
{
associatedMasterId = "020CB1CC-CCFF-4D13-936A-D2256F19E5D3";
layerId = "5B92481F-58DA-4C35-AE88-F14D7E26FA98";
width = 600;
},
{
anchors = (
{
name = bottom;
position = "{274, 0}";
},
{
name = top;
position = "{274, 470}";
}
);
background = {
paths = (
{
closed = 1;
nodes = (
"156 54 OFFCURVE",
"122 86 OFFCURVE",
"122 134 CURVE SMOOTH",
"122 162 LINE SMOOTH",
"122 210 OFFCURVE",
"164 242 OFFCURVE",
"228 242 CURVE SMOOTH",
"295 242 LINE SMOOTH",
"346 242 OFFCURVE",
"390 219 OFFCURVE",
"406 184 CURVE",
"406 161 LINE",
"389 97 OFFCURVE",
"334 54 OFFCURVE",
"269 54 CURVE SMOOTH",
"207 54 LINE SMOOTH"
);
},
{
closed = 1;
nodes = (
"136 414 OFFCURVE",
"182 443 OFFCURVE",
"252 443 CURVE SMOOTH",
"312 443 LINE SMOOTH",
"368 443 OFFCURVE",
"406 405 OFFCURVE",
"406 349 CURVE SMOOTH",
"406 266 LINE",
"380 290 OFFCURVE",
"338 306 OFFCURVE",
"300 306 CURVE SMOOTH",
"228 306 LINE SMOOTH",
"121 306 OFFCURVE",
"50 248 OFFCURVE",
"50 162 CURVE SMOOTH",
"50 134 LINE SMOOTH",
"50 48 OFFCURVE",
"113 -10 OFFCURVE",
"207 -10 CURVE SMOOTH",
"269 -10 LINE SMOOTH",
"323 -10 OFFCURVE",
"378 22 OFFCURVE",
"408 71 CURVE",
"408 0 LINE",
"478 0 LINE",
"478 349 LINE SMOOTH",
"478 444 OFFCURVE",
"412 507 OFFCURVE",
"312 507 CURVE SMOOTH",
"252 507 LINE SMOOTH",
"139 507 OFFCURVE",
"64 453 OFFCURVE",
"64 371 CURVE",
"136 371 LINE"
);
}
);
};
layerId = "020CB1CC-CCFF-4D13-936A-D2256F19E5D3";
paths = (
{
closed = 1;
nodes = (
"145 24 OFFCURVE",
"104 67 OFFCURVE",
"104 128 CURVE SMOOTH",
"104 161 LINE SMOOTH",
"104 222 OFFCURVE",
"156 265 OFFCURVE",
"235 265 CURVE SMOOTH",
"287 265 LINE SMOOTH",
"334 265 OFFCURVE",
"384 243 OFFCURVE",
"424 204 CURVE",
"424 164 LINE",
"411 84 OFFCURVE",
"350 24 OFFCURVE",
"272 24 CURVE SMOOTH",
"205 24 LINE SMOOTH"
);
},
{
closed = 1;
nodes = (
"118 439 OFFCURVE",
"171 473 OFFCURVE",
"252 473 CURVE SMOOTH",
"306 473 LINE SMOOTH",
"377 473 OFFCURVE",
"423 427 OFFCURVE",
"423 356 CURVE SMOOTH",
"423 259 LINE",
"384 288 OFFCURVE",
"341 299 OFFCURVE",
"301 299 CURVE SMOOTH",
"241 299 LINE SMOOTH",
"137 299 OFFCURVE",
"68 245 OFFCURVE",
"68 161 CURVE SMOOTH",
"68 128 LINE SMOOTH",
"68 44 OFFCURVE",
"126 -10 OFFCURVE",
"211 -10 CURVE SMOOTH",
"278 -10 LINE SMOOTH",
"339 -10 OFFCURVE",
"397 26 OFFCURVE",
"423 81 CURVE",
"423 0 LINE",
"459 0 LINE",
"459 356 LINE SMOOTH",
"459 447 OFFCURVE",
"398 507 OFFCURVE",
"306 507 CURVE SMOOTH",
"252 507 LINE SMOOTH",
"150 507 OFFCURVE",
"82 460 OFFCURVE",
"82 388 CURVE",
"118 388 LINE"
);
}
);
width = 547;
},
{
associatedMasterId = "020CB1CC-CCFF-4D13-936A-D2256F19E5D3";
layerId = "5C24E9B9-E964-4912-947A-BFDB4428E28F";
width = 600;
},
{
anchors = (
{
name = bottom;
position = "{274, 0}";
},
{
name = top;
position = "{274, 470}";
}
);
layerId = "76C6DC51-463D-4A0C-B694-3EB424048C5D";
paths = (
{
closed = 1;
nodes = (
"156 54 OFFCURVE",
"122 86 OFFCURVE",
"122 134 CURVE SMOOTH",
"122 162 LINE SMOOTH",
"122 210 OFFCURVE",
"164 242 OFFCURVE",
"228 242 CURVE SMOOTH",
"295 242 LINE SMOOTH",
"333 242 OFFCURVE",
"374 225 OFFCURVE",
"406 196 CURVE",
"406 161 LINE",
"389 97 OFFCURVE",
"334 54 OFFCURVE",
"269 54 CURVE SMOOTH",
"207 54 LINE SMOOTH"
);
},
{
closed = 1;
nodes = (
"136 414 OFFCURVE",
"182 443 OFFCURVE",
"252 443 CURVE SMOOTH",
"312 443 LINE SMOOTH",
"368 443 OFFCURVE",
"406 405 OFFCURVE",
"406 349 CURVE SMOOTH",
"406 269 LINE",
"372 292 OFFCURVE",
"332 306 OFFCURVE",
"300 306 CURVE SMOOTH",
"228 306 LINE SMOOTH",
"121 306 OFFCURVE",
"50 248 OFFCURVE",
"50 162 CURVE SMOOTH",
"50 134 LINE SMOOTH",
"50 48 OFFCURVE",
"113 -10 OFFCURVE",
"207 -10 CURVE SMOOTH",
"269 -10 LINE SMOOTH",
"323 -10 OFFCURVE",
"378 22 OFFCURVE",
"408 71 CURVE",
"408 0 LINE",
"478 0 LINE",
"478 349 LINE SMOOTH",
"478 444 OFFCURVE",
"412 507 OFFCURVE",
"312 507 CURVE SMOOTH",
"252 507 LINE SMOOTH",
"139 507 OFFCURVE",
"64 453 OFFCURVE",
"64 371 CURVE",
"136 371 LINE"
);
}
);
width = 548;
}
);
note = a;
unicode = 0061;
},
{
glyphname = b;
lastChange = "2018-02-12 08:59:17 +0000";
layers = (
{
anchors = (
{
name = bottom;
position = "{276, 0}";
},
{
name = top;
position = "{276, 470}";
}
);
background = {
paths = (
{
closed = 1;
nodes = (
"176 700 LINE",
"40 700 LINE",
"40 0 LINE",
"166 0 LINE",
"166 60 LINE",
"194 18 OFFCURVE",
"237 -10 OFFCURVE",
"278 -10 CURVE SMOOTH",
"336 -10 LINE SMOOTH",
"459 -10 OFFCURVE",
"532 77 OFFCURVE",
"532 225 CURVE SMOOTH",
"532 302 LINE SMOOTH",
"532 431 OFFCURVE",
"462 507 OFFCURVE",
"343 507 CURVE SMOOTH",
"281 507 LINE SMOOTH",
"247 507 OFFCURVE",
"205 489 OFFCURVE",
"176 461 CURVE"
);
},
{
closed = 1;
nodes = (
"176 282 LINE",
"181 345 OFFCURVE",
"223 387 OFFCURVE",
"281 387 CURVE SMOOTH",
"341 387 LINE SMOOTH",
"376 387 OFFCURVE",
"396 355 OFFCURVE",
"396 302 CURVE SMOOTH",
"396 225 LINE SMOOTH",
"396 151 OFFCURVE",
"366 108 OFFCURVE",
"316 108 CURVE SMOOTH",
"258 108 LINE SMOOTH",
"213 108 OFFCURVE",
"180 142 OFFCURVE",
"176 193 CURVE"
);
}
);
};
layerId = "EA06CE92-4115-4482-8874-2441C279E756";
paths = (
{
closed = 1;
nodes = (
"176 700 LINE",
"40 700 LINE",
"40 0 LINE",
"166 0 LINE",
"166 60 LINE",
"194 18 OFFCURVE",
"239 -10 OFFCURVE",
"278 -10 CURVE SMOOTH",
"336 -10 LINE SMOOTH",
"454 -10 OFFCURVE",
"532 84 OFFCURVE",
"532 225 CURVE SMOOTH",
"532 302 LINE SMOOTH",
"532 425 OFFCURVE",
"456 507 OFFCURVE",
"343 507 CURVE SMOOTH",
"281 507 LINE SMOOTH",
"247 507 OFFCURVE",
"205 489 OFFCURVE",
"176 461 CURVE"
);
},
{
closed = 1;
nodes = (
"176 282 LINE",
"181 345 OFFCURVE",
"223 387 OFFCURVE",
"281 387 CURVE SMOOTH",
"341 387 LINE SMOOTH",
"374 387 OFFCURVE",
"396 353 OFFCURVE",
"396 302 CURVE SMOOTH",
"396 225 LINE SMOOTH",
"396 155 OFFCURVE",
"364 108 OFFCURVE",
"316 108 CURVE SMOOTH",
"258 108 LINE SMOOTH",
"213 108 OFFCURVE",
"180 142 OFFCURVE",
"176 193 CURVE"
);
}
);
width = 552;
},
{
associatedMasterId = "020CB1CC-CCFF-4D13-936A-D2256F19E5D3";
layerId = "8AF6BA7E-4672-4BE4-A9AE-4DB948958C2C";
width = 600;
},
{
associatedMasterId = "020CB1CC-CCFF-4D13-936A-D2256F19E5D3";
layerId = "8BF619E7-7D0E-4707-AAD8-EE484C016385";
width = 600;
},
{
anchors = (
{
name = bottom;
position = "{273, 0}";
},
{
name = top;
position = "{273, 470}";
}
);
background = {
paths = (
{
closed = 1;
nodes = (
"184 51 OFFCURVE",
"143 111 OFFCURVE",
"137 200 CURVE",
"137 335 LINE",
"144 404 OFFCURVE",
"208 446 OFFCURVE",
"262 446 CURVE SMOOTH",
"323 446 LINE SMOOTH",
"384 446 OFFCURVE",
"425 402 OFFCURVE",
"425 336 CURVE SMOOTH",
"425 206 LINE SMOOTH",
"425 113 OFFCURVE",
"381 51 OFFCURVE",
"299 51 CURVE SMOOTH",
"254 51 LINE SMOOTH"
);
},
{
closed = 1;
nodes = (
"299 -10 LINE SMOOTH",
"421 -10 OFFCURVE",
"492 76 OFFCURVE",
"492 206 CURVE SMOOTH",
"492 336 LINE SMOOTH",
"492 439 OFFCURVE",
"424 507 OFFCURVE",
"323 507 CURVE SMOOTH",
"262 507 LINE SMOOTH",
"215 507 OFFCURVE",
"166 482 OFFCURVE",
"137 445 CURVE",
"137 700 LINE",
"70 700 LINE",
"70 0 LINE",
"135 0 LINE",
"135 69 LINE",
"164 22 OFFCURVE",
"206 -10 OFFCURVE",
"254 -10 CURVE SMOOTH"
);
}
);
};
layerId = "020CB1CC-CCFF-4D13-936A-D2256F19E5D3";
paths = (
{
closed = 1;
nodes = (
"122 700 LINE",
"88 700 LINE",
"88 -6 LINE",
"124 -6 LINE",
"124 49 LINE",
"154 15 OFFCURVE",
"189 -10 OFFCURVE",
"230 -10 CURVE SMOOTH",
"288 -10 LINE SMOOTH",
"403 -10 OFFCURVE",
"478 63 OFFCURVE",
"478 174 CURVE SMOOTH",
"478 347 LINE SMOOTH",
"478 443 OFFCURVE",
"422 507 OFFCURVE",
"340 507 CURVE SMOOTH",
"278 507 LINE SMOOTH",
"210 507 OFFCURVE",
"159 478 OFFCURVE",
"122 416 CURVE"
);
},
{
closed = 1;
nodes = (
"122 312 LINE",
"127 398 OFFCURVE",
"193 477 OFFCURVE",
"278 477 CURVE SMOOTH",
"341 477 LINE SMOOTH",
"408 477 OFFCURVE",
"444 428 OFFCURVE",
"444 347 CURVE SMOOTH",
"444 174 LINE SMOOTH",
"444 80 OFFCURVE",
"393 22 OFFCURVE",
"300 22 CURVE SMOOTH",
"242 22 LINE SMOOTH",
"184 22 OFFCURVE",
"127 83 OFFCURVE",
"122 156 CURVE"
);
}
);
width = 546;
},
{
associatedMasterId = "020CB1CC-CCFF-4D13-936A-D2256F19E5D3";
layerId = "C1BC3D3C-3856-4896-B4D7-9B37233578AB";
width = 600;
},
{
anchors = (
{
name = bottom;
position = "{274, 0}";
},
{
name = top;
position = "{274, 470}";
}
);
layerId = "76C6DC51-463D-4A0C-B694-3EB424048C5D";
paths = (
{
closed = 1;
nodes = (
"142 700 LINE",
"70 700 LINE",
"70 -4 LINE",
"140 -4 LINE",
"140 53 LINE",
"169 16 OFFCURVE",
"208 -10 OFFCURVE",
"248 -10 CURVE SMOOTH",
"306 -10 LINE SMOOTH",
"422 -10 OFFCURVE",
"498 71 OFFCURVE",
"498 193 CURVE SMOOTH",
"498 330 LINE SMOOTH",
"498 436 OFFCURVE",
"435 507 OFFCURVE",
"341 507 CURVE SMOOTH",
"279 507 LINE SMOOTH",
"224 507 OFFCURVE",
"176 482 OFFCURVE",
"142 433 CURVE"
);
},
{
closed = 1;
nodes = (
"142 301 LINE",
"147 378 OFFCURVE",
"204 443 OFFCURVE",
"279 443 CURVE SMOOTH",
"341 443 LINE SMOOTH",
"395 443 OFFCURVE",
"426 400 OFFCURVE",
"426 330 CURVE SMOOTH",
"426 193 LINE SMOOTH",
"426 108 OFFCURVE",
"382 54 OFFCURVE",
"306 54 CURVE SMOOTH",
"248 54 LINE SMOOTH",
"195 54 OFFCURVE",
"147 105 OFFCURVE",
"142 170 CURVE"
);
}
);
width = 548;
}
);
note = b;
unicode = 0062;
},
{
glyphname = c;
lastChange = "2018-02-12 08:59:17 +0000";
layers = (
{
background = {
paths = (
{
closed = 1;
nodes = (
"506 295 LINE",
"521 419 OFFCURVE",
"437 507 OFFCURVE",
"310 507 CURVE SMOOTH",
"240 507 LINE SMOOTH",
"109 507 OFFCURVE",
"20 412 OFFCURVE",
"20 273 CURVE SMOOTH",
"20 199 LINE SMOOTH",
"20 75 OFFCURVE",
"102 -10 OFFCURVE",
"222 -10 CURVE SMOOTH",
"293 -10 LINE SMOOTH",
"431 -10 OFFCURVE",
"523 90 OFFCURVE",
"509 231 CURVE",
"373 231 LINE",
"384 157 OFFCURVE",
"351 110 OFFCURVE",
"293 110 CURVE SMOOTH",
"222 110 LINE SMOOTH",
"182 110 OFFCURVE",
"156 144 OFFCURVE",
"156 199 CURVE SMOOTH",
"156 273 LINE SMOOTH",
"156 344 OFFCURVE",
"190 387 OFFCURVE",
"240 387 CURVE SMOOTH",
"310 387 LINE SMOOTH",
"359 387 OFFCURVE",
"384 351 OFFCURVE",
"371 295 CURVE"
);
}
);
};
layerId = "EA06CE92-4115-4482-8874-2441C279E756";
paths = (
{
closed = 1;
nodes = (
"506 315 LINE",
"506 430 OFFCURVE",
"428 507 OFFCURVE",
"310 507 CURVE SMOOTH",
"240 507 LINE SMOOTH",
"108 507 OFFCURVE",
"20 413 OFFCURVE",
"20 273 CURVE SMOOTH",
"20 199 LINE SMOOTH",
"20 74 OFFCURVE",
"101 -10 OFFCURVE",
"222 -10 CURVE SMOOTH",
"293 -10 LINE SMOOTH",
"422 -10 OFFCURVE",
"508 75 OFFCURVE",
"508 202 CURVE",
"374 202 LINE",
"374 147 OFFCURVE",
"342 110 OFFCURVE",
"293 110 CURVE SMOOTH",
"222 110 LINE SMOOTH",
"182 110 OFFCURVE",
"156 146 OFFCURVE",
"156 199 CURVE SMOOTH",
"156 273 LINE SMOOTH",
"156 341 OFFCURVE",
"190 387 OFFCURVE",
"240 387 CURVE SMOOTH",
"310 387 LINE SMOOTH",
"348 387 OFFCURVE",
"373 358 OFFCURVE",
"373 315 CURVE"
);
}
);
width = 528;
},
{
associatedMasterId = "020CB1CC-CCFF-4D13-936A-D2256F19E5D3";
layerId = "8AF6BA7E-4672-4BE4-A9AE-4DB948958C2C";
width = 600;
},
{
associatedMasterId = "020CB1CC-CCFF-4D13-936A-D2256F19E5D3";
layerId = "9DC488BC-96ED-4399-9AAD-4AA98E01906C";
width = 600;
},
{
background = {
paths = (
{
closed = 1;
nodes = (
"474 351 LINE",
"474 445 OFFCURVE",
"408 507 OFFCURVE",
"308 507 CURVE SMOOTH",
"238 507 LINE SMOOTH",
"125 507 OFFCURVE",
"50 425 OFFCURVE",
"50 301 CURVE SMOOTH",
"50 171 LINE SMOOTH",
"50 62 OFFCURVE",
"118 -10 OFFCURVE",
"220 -10 CURVE SMOOTH",
"291 -10 LINE SMOOTH",
"402 -10 OFFCURVE",
"476 64 OFFCURVE",
"476 175 CURVE",
"409 175 LINE",
"409 101 OFFCURVE",
"362 51 OFFCURVE",
"291 51 CURVE SMOOTH",
"220 51 LINE SMOOTH",
"158 51 OFFCURVE",
"117 99 OFFCURVE",
"117 171 CURVE SMOOTH",
"117 301 LINE SMOOTH",
"117 388 OFFCURVE",
"165 446 OFFCURVE",
"238 446 CURVE SMOOTH",
"308 446 LINE SMOOTH",
"368 446 OFFCURVE",
"408 408 OFFCURVE",
"408 351 CURVE"
);
}
);
};
layerId = "020CB1CC-CCFF-4D13-936A-D2256F19E5D3";
paths = (
{
closed = 1;
nodes = (
"455 373 LINE",
"455 454 OFFCURVE",
"396 507 OFFCURVE",
"307 507 CURVE SMOOTH",
"237 507 LINE SMOOTH",
"135 507 OFFCURVE",
"68 432 OFFCURVE",
"68 318 CURVE SMOOTH",
"68 154 LINE SMOOTH",
"68 55 OFFCURVE",
"128 -10 OFFCURVE",
"219 -10 CURVE SMOOTH",
"290 -10 LINE SMOOTH",
"390 -10 OFFCURVE",
"457 57 OFFCURVE",
"457 159 CURVE",
"424 159 LINE",
"424 75 OFFCURVE",
"369 20 OFFCURVE",
"290 20 CURVE SMOOTH",
"219 20 LINE SMOOTH",
"148 20 OFFCURVE",
"102 74 OFFCURVE",
"102 154 CURVE SMOOTH",
"102 318 LINE SMOOTH",
"102 413 OFFCURVE",
"155 477 OFFCURVE",
"237 477 CURVE SMOOTH",
"307 477 LINE SMOOTH",
"377 477 OFFCURVE",
"423 435 OFFCURVE",
"423 373 CURVE"
);
}
);
width = 525;
},
{
associatedMasterId = "020CB1CC-CCFF-4D13-936A-D2256F19E5D3";
layerId = "587A334F-709E-4469-A54C-3553B06EC754";
width = 600;
},
{
layerId = "76C6DC51-463D-4A0C-B694-3EB424048C5D";
paths = (
{
closed = 1;
nodes = (
"474 351 LINE",
"474 445 OFFCURVE",
"408 507 OFFCURVE",
"308 507 CURVE SMOOTH",
"238 507 LINE SMOOTH",
"125 507 OFFCURVE",
"50 425 OFFCURVE",
"50 301 CURVE SMOOTH",
"50 171 LINE SMOOTH",
"50 62 OFFCURVE",
"118 -10 OFFCURVE",
"220 -10 CURVE SMOOTH",
"291 -10 LINE SMOOTH",
"402 -10 OFFCURVE",
"476 64 OFFCURVE",
"476 175 CURVE",
"405 175 LINE",
"405 102 OFFCURVE",
"359 54 OFFCURVE",
"291 54 CURVE SMOOTH",
"220 54 LINE SMOOTH",
"161 54 OFFCURVE",
"122 101 OFFCURVE",
"122 171 CURVE SMOOTH",
"122 301 LINE SMOOTH",
"122 386 OFFCURVE",
"168 443 OFFCURVE",
"238 443 CURVE SMOOTH",
"308 443 LINE SMOOTH",
"366 443 OFFCURVE",
"404 406 OFFCURVE",
"404 351 CURVE"
);
}
);
width = 526;
}
);
note = c;
unicode = 0063;
},
{
glyphname = d;
lastChange = "2018-02-12 09:13:35 +0000";
layers = (
{
anchors = (
{
name = bottom;
position = "{276, 0}";
},
{
name = center;
position = "{276, 235}";
},
{
name = top;
position = "{276, 470}";
},
{
name = topright;
position = "{530, 470}";
}
);
background = {
anchors = (
{
name = bottom;
position = "{276, 0}";
},
{
name = center;
position = "{276, 235}";
},
{
name = top;
position = "{276, 470}";
},
{
name = topright;
position = "{530, 470}";
}
);
paths = (
{
closed = 1;
nodes = (
"261 -10 LINE SMOOTH",
"308 -10 OFFCURVE",
"358 18 OFFCURVE",
"386 60 CURVE",
"386 0 LINE",
"512 0 LINE",
"512 700 LINE",
"376 700 LINE",
"376 461 LINE",
"354 489 OFFCURVE",
"317 507 OFFCURVE",
"283 507 CURVE SMOOTH",
"225 507 LINE SMOOTH",
"102 507 OFFCURVE",
"20 419 OFFCURVE",
"20 286 CURVE SMOOTH",
"20 175 LINE SMOOTH",
"20 64 OFFCURVE",
"88 -10 OFFCURVE",
"189 -10 CURVE SMOOTH"
);
},
{
closed = 1;
nodes = (
"182 108 OFFCURVE",
"156 135 OFFCURVE",
"156 175 CURVE SMOOTH",
"156 286 LINE SMOOTH",
"156 348 OFFCURVE",
"192 389 OFFCURVE",
"245 389 CURVE SMOOTH",
"297 389 LINE SMOOTH",
"340 389 OFFCURVE",
"372 357 OFFCURVE",
"376 310 CURVE",
"376 215 LINE",
"371 151 OFFCURVE",
"329 108 OFFCURVE",
"271 108 CURVE SMOOTH",
"217 108 LINE SMOOTH"
);
}
);
};
layerId = "EA06CE92-4115-4482-8874-2441C279E756";
paths = (
{
closed = 1;
nodes = (
"261 -10 LINE SMOOTH",
"308 -10 OFFCURVE",
"358 18 OFFCURVE",
"386 60 CURVE",
"386 0 LINE",
"512 0 LINE",
"512 700 LINE",
"376 700 LINE",
"376 461 LINE",
"354 489 OFFCURVE",
"317 507 OFFCURVE",
"283 507 CURVE SMOOTH",
"225 507 LINE SMOOTH",
"102 507 OFFCURVE",
"20 419 OFFCURVE",
"20 286 CURVE SMOOTH",
"20 175 LINE SMOOTH",
"20 64 OFFCURVE",
"88 -10 OFFCURVE",
"189 -10 CURVE SMOOTH"
);
},
{
closed = 1;
nodes = (
"180 108 OFFCURVE",
"156 135 OFFCURVE",
"156 175 CURVE SMOOTH",
"156 286 LINE SMOOTH",
"156 348 OFFCURVE",
"192 389 OFFCURVE",
"245 389 CURVE SMOOTH",
"297 389 LINE SMOOTH",
"340 389 OFFCURVE",
"372 357 OFFCURVE",
"376 310 CURVE",
"376 215 LINE",
"371 151 OFFCURVE",
"329 108 OFFCURVE",
"271 108 CURVE SMOOTH",
"217 108 LINE SMOOTH"
);
}
);
width = 552;
},
{
associatedMasterId = "020CB1CC-CCFF-4D13-936A-D2256F19E5D3";
layerId = "8AF6BA7E-4672-4BE4-A9AE-4DB948958C2C";
width = 600;
},
{
associatedMasterId = "020CB1CC-CCFF-4D13-936A-D2256F19E5D3";
layerId = "E1356629-3779-458F-8D54-D9ED906A4909";
width = 600;
},
{
anchors = (
{
name = bottom;
position = "{273, -141}";
},
{
name = center;
position = "{273, 376}";
},
{
name = top;
position = "{273, 470}";
},
{
name = topright;
position = "{527, 470}";
}
);
background = {
paths = (
{
closed = 1;
nodes = (
"269 -10 LINE SMOOTH",
"321 -10 OFFCURVE",
"378 22 OFFCURVE",
"408 71 CURVE",
"408 0 LINE",
"478 0 LINE",
"478 501 LINE",
"408 501 LINE",
"408 446 LINE",
"382 483 OFFCURVE",
"341 507 OFFCURVE",
"305 507 CURVE SMOOTH",
"243 507 LINE SMOOTH",
"127 507 OFFCURVE",
"50 422 OFFCURVE",
"50 294 CURVE SMOOTH",
"50 167 LINE SMOOTH",
"50 61 OFFCURVE",
"113 -10 OFFCURVE",
"207 -10 CURVE SMOOTH"
);
},
{
closed = 1;
nodes = (
"156 54 OFFCURVE",
"122 99 OFFCURVE",
"122 167 CURVE SMOOTH",
"122 294 LINE SMOOTH",
"122 383 OFFCURVE",
"170 443 OFFCURVE",
"243 443 CURVE SMOOTH",
"305 443 LINE SMOOTH",
"356 443 OFFCURVE",
"397 395 OFFCURVE",
"406 324 CURVE",
"406 187 LINE",
"387 107 OFFCURVE",
"333 54 OFFCURVE",
"269 54 CURVE SMOOTH",
"207 54 LINE SMOOTH"
);
}
);
};
layerId = "020CB1CC-CCFF-4D13-936A-D2256F19E5D3";
paths = (
{
closed = 1;
nodes = (
"274 -10 LINE SMOOTH",
"329 -10 OFFCURVE",
"391 24 OFFCURVE",
"422 78 CURVE",
"422 0 LINE",
"458 0 LINE",
"458 700 LINE",
"422 700 LINE",
"422 439 LINE",
"395 481 OFFCURVE",
"359 507 OFFCURVE",
"326 507 CURVE SMOOTH",
"262 507 LINE SMOOTH",
"145 507 OFFCURVE",
"68 424 OFFCURVE",
"68 299 CURVE SMOOTH",
"68 162 LINE SMOOTH",
"68 59 OFFCURVE",
"128 -10 OFFCURVE",
"218 -10 CURVE SMOOTH"
);
},
{
closed = 1;
nodes = (
"142 24 OFFCURVE",
"104 77 OFFCURVE",
"104 162 CURVE SMOOTH",
"104 299 LINE SMOOTH",
"104 404 OFFCURVE",
"160 473 OFFCURVE",
"250 473 CURVE SMOOTH",
"310 473 LINE SMOOTH",
"366 473 OFFCURVE",
"408 418 OFFCURVE",
"422 332 CURVE",
"422 170 LINE",
"395 81 OFFCURVE",
"335 24 OFFCURVE",
"268 24 CURVE SMOOTH",
"201 24 LINE SMOOTH"
);
}
);
width = 546;
},
{
associatedMasterId = "020CB1CC-CCFF-4D13-936A-D2256F19E5D3";
layerId = "2582ADA2-ACE0-473E-9BD3-8A8BC2931528";
width = 600;
},
{
anchors = (
{
name = bottom;
position = "{274, 0}";
},
{
name = center;
position = "{274, 235}";
},
{
name = top;
position = "{274, 470}";
},
{
name = topright;
position = "{528, 470}";
}
);
layerId = "76C6DC51-463D-4A0C-B694-3EB424048C5D";
paths = (
{
closed = 1;
nodes = (
"269 -10 LINE SMOOTH",
"321 -10 OFFCURVE",
"378 22 OFFCURVE",
"408 71 CURVE",
"408 0 LINE",
"478 0 LINE",
"478 700 LINE",
"406 700 LINE",
"406 447 LINE",
"381 484 OFFCURVE",
"343 507 OFFCURVE",
"310 507 CURVE SMOOTH",
"248 507 LINE SMOOTH",
"129 507 OFFCURVE",
"50 422 OFFCURVE",
"50 294 CURVE SMOOTH",
"50 167 LINE SMOOTH",
"50 61 OFFCURVE",
"113 -10 OFFCURVE",
"207 -10 CURVE SMOOTH"
);
},
{
closed = 1;
nodes = (
"156 54 OFFCURVE",
"122 99 OFFCURVE",
"122 167 CURVE SMOOTH",
"122 294 LINE SMOOTH",
"122 383 OFFCURVE",
"172 443 OFFCURVE",
"248 443 CURVE SMOOTH",
"305 443 LINE SMOOTH",
"356 443 OFFCURVE",
"397 395 OFFCURVE",
"406 324 CURVE",
"406 187 LINE",
"387 107 OFFCURVE",
"333 54 OFFCURVE",
"269 54 CURVE SMOOTH",
"207 54 LINE SMOOTH"
);
}
);
width = 548;
}
);
note = d;
unicode = 0064;
},
{
glyphname = e;
lastChange = "2018-02-12 09:15:17 +0000";
layers = (
{
anchors = (
{
name = bottom;
position = "{269, 0}";
},
{
name = ogonek;
position = "{483, 10}";
},
{
name = top;
position = "{269, 470}";
}
);
background = {
paths = (
{
closed = 1;
nodes = (
"382 233 LINE",
"518 233 LINE",
"518 298 LINE SMOOTH",
"518 423 OFFCURVE",
"436 507 OFFCURVE",
"312 507 CURVE SMOOTH",
"240 507 LINE SMOOTH",
"108 507 OFFCURVE",
"20 413 OFFCURVE",
"20 273 CURVE SMOOTH",
"20 199 LINE SMOOTH",
"20 74 OFFCURVE",
"101 -10 OFFCURVE",
"222 -10 CURVE SMOOTH",
"293 -10 LINE SMOOTH",
"426 -10 OFFCURVE",
"514 63 OFFCURVE",
"514 173 CURVE",
"378 173 LINE",
"378 135 OFFCURVE",
"344 110 OFFCURVE",
"293 110 CURVE SMOOTH",
"222 110 LINE SMOOTH",
"182 110 OFFCURVE",
"156 146 OFFCURVE",
"156 199 CURVE SMOOTH",
"156 273 LINE SMOOTH",
"156 341 OFFCURVE",
"190 387 OFFCURVE",
"240 387 CURVE SMOOTH",
"312 387 LINE SMOOTH",
"354 387 OFFCURVE",
"382 351 OFFCURVE",
"382 298 CURVE SMOOTH"
);
},
{
closed = 1;
nodes = (
"31 211 LINE",
"518 211 LINE",
"518 301 LINE",
"31 301 LINE"
);
}
);
};
layerId = "EA06CE92-4115-4482-8874-2441C279E756";
paths = (
{
closed = 1;
nodes = (
"384 233 LINE",
"518 233 LINE",
"518 298 LINE SMOOTH",
"518 423 OFFCURVE",
"436 507 OFFCURVE",
"312 507 CURVE SMOOTH",
"240 507 LINE SMOOTH",
"108 507 OFFCURVE",
"20 413 OFFCURVE",
"20 273 CURVE SMOOTH",
"20 199 LINE SMOOTH",
"20 74 OFFCURVE",
"101 -10 OFFCURVE",
"222 -10 CURVE SMOOTH",
"293 -10 LINE SMOOTH",
"426 -10 OFFCURVE",
"514 60 OFFCURVE",
"514 165 CURVE",
"380 165 LINE",
"380 130 OFFCURVE",
"345 106 OFFCURVE",
"293 106 CURVE SMOOTH",
"222 106 LINE SMOOTH",
"181 106 OFFCURVE",
"154 143 OFFCURVE",
"154 199 CURVE SMOOTH",
"154 273 LINE SMOOTH",
"154 344 OFFCURVE",
"188 391 OFFCURVE",
"240 391 CURVE SMOOTH",
"312 391 LINE SMOOTH",
"355 391 OFFCURVE",
"384 354 OFFCURVE",
"384 298 CURVE SMOOTH"
);
},
{
closed = 1;
nodes = (
"31 211 LINE",
"518 211 LINE",
"518 299 LINE",
"31 299 LINE"
);
}
);
width = 538;
},
{
associatedMasterId = "020CB1CC-CCFF-4D13-936A-D2256F19E5D3";
layerId = "8AF6BA7E-4672-4BE4-A9AE-4DB948958C2C";
width = 600;
},
{
associatedMasterId = "020CB1CC-CCFF-4D13-936A-D2256F19E5D3";
layerId = "341EC5D8-9ECE-4B25-808D-61F6DF56EA64";
width = 600;
},
{
anchors = (
{
name = bottom;
position = "{266, 0}";
},
{
name = ogonek;
position = "{480, 10}";
},
{
name = top;
position = "{266, 470}";
}
);
background = {
paths = (
{
closed = 1;
nodes = (
"412 261 LINE",
"484 261 LINE",
"484 316 LINE SMOOTH",
"484 431 OFFCURVE",
"415 507 OFFCURVE",
"311 507 CURVE SMOOTH",
"239 507 LINE SMOOTH",
"126 507 OFFCURVE",
"50 425 OFFCURVE",
"50 301 CURVE SMOOTH",
"50 171 LINE SMOOTH",
"50 68 OFFCURVE",
"120 -10 OFFCURVE",
"224 -10 CURVE SMOOTH",
"295 -10 LINE SMOOTH",
"407 -10 OFFCURVE",
"482 60 OFFCURVE",
"482 165 CURVE",
"415 165 LINE",
"415 97 OFFCURVE",
"367 51 OFFCURVE",
"295 51 CURVE SMOOTH",
"224 51 LINE SMOOTH",
"160 51 OFFCURVE",
"117 105 OFFCURVE",
"117 171 CURVE SMOOTH",
"117 301 LINE SMOOTH",
"117 388 OFFCURVE",
"166 446 OFFCURVE",
"239 446 CURVE SMOOTH",
"311 446 LINE SMOOTH",
"375 446 OFFCURVE",
"412 394 OFFCURVE",
"412 316 CURVE"
);
},
{
closed = 1;
nodes = (
"61 236 LINE",
"484 236 LINE",
"484 295 LINE",
"61 295 LINE"
);
}
);
};
layerId = "020CB1CC-CCFF-4D13-936A-D2256F19E5D3";
paths = (
{
closed = 1;
nodes = (
"428 278 LINE",
"464 278 LINE",
"464 343 LINE SMOOTH",
"464 442 OFFCURVE",
"401 507 OFFCURVE",
"309 507 CURVE SMOOTH",
"237 507 LINE SMOOTH",
"135 507 OFFCURVE",
"68 432 OFFCURVE",
"68 318 CURVE SMOOTH",
"68 154 LINE SMOOTH",
"68 55 OFFCURVE",
"128 -10 OFFCURVE",
"219 -10 CURVE SMOOTH",
"290 -10 LINE SMOOTH",
"394 -10 OFFCURVE",
"463 60 OFFCURVE",
"463 165 CURVE",
"427 165 LINE",
"427 79 OFFCURVE",
"374 24 OFFCURVE",
"290 24 CURVE SMOOTH",
"219 24 LINE SMOOTH",
"149 24 OFFCURVE",
"104 76 OFFCURVE",
"104 154 CURVE SMOOTH",
"104 318 LINE SMOOTH",
"104 411 OFFCURVE",
"156 473 OFFCURVE",
"237 473 CURVE SMOOTH",
"309 473 LINE SMOOTH",
"381 473 OFFCURVE",
"428 421 OFFCURVE",
"428 343 CURVE"
);
},
{
closed = 1;
nodes = (
"79 256 LINE",
"464 256 LINE",
"464 302 LINE",
"79 302 LINE"
);
}
);
width = 532;
},
{
associatedMasterId = "020CB1CC-CCFF-4D13-936A-D2256F19E5D3";
layerId = "8C537367-385B-439A-AA90-55BFD8E9B844";
width = 600;
},
{
anchors = (
{
name = bottom;
position = "{267, 0}";
},
{
name = ogonek;
position = "{481, 10}";
},
{
name = top;
position = "{267, 470}";
}
);
layerId = "76C6DC51-463D-4A0C-B694-3EB424048C5D";
paths = (
{
closed = 1;
nodes = (
"412 261 LINE",
"484 261 LINE",
"484 326 LINE SMOOTH",
"484 435 OFFCURVE",
"414 507 OFFCURVE",
"310 507 CURVE SMOOTH",
"238 507 LINE SMOOTH",
"125 507 OFFCURVE",
"50 425 OFFCURVE",
"50 301 CURVE SMOOTH",
"50 171 LINE SMOOTH",
"50 62 OFFCURVE",
"118 -10 OFFCURVE",
"220 -10 CURVE SMOOTH",
"291 -10 LINE SMOOTH",
"406 -10 OFFCURVE",
"482 60 OFFCURVE",
"482 165 CURVE",
"411 165 LINE",
"411 98 OFFCURVE",
"363 54 OFFCURVE",
"291 54 CURVE SMOOTH",
"220 54 LINE SMOOTH",
"161 54 OFFCURVE",
"122 101 OFFCURVE",
"122 171 CURVE SMOOTH",
"122 301 LINE SMOOTH",
"122 386 OFFCURVE",
"168 443 OFFCURVE",
"238 443 CURVE SMOOTH",
"310 443 LINE SMOOTH",
"371 443 OFFCURVE",
"412 396 OFFCURVE",
"412 326 CURVE"
);
},
{
closed = 1;
nodes = (
"61 239 LINE",
"484 239 LINE",
"484 301 LINE",
"61 301 LINE"
);
}
);
width = 534;
}
);
note = e;
unicode = 0065;
},
{
glyphname = f;
lastChange = "2018-02-12 08:59:17 +0000";
layers = (
{
anchors = (
{
name = bottom;
position = "{167, 0}";
},
{
name = top;
position = "{167, 470}";
}
);
background = {
paths = (
{
closed = 1;
nodes = (
"190 0 LINE",
"190 437 LINE",
"310 437 LINE",
"310 501 LINE",
"190 501 LINE",
"190 538 LINE SMOOTH",
"190 609 OFFCURVE",
"219 642 OFFCURVE",
"283 642 CURVE SMOOTH",
"321 642 LINE",
"321 704 LINE",
"283 704 LINE SMOOTH",
"175 704 OFFCURVE",
"118 647 OFFCURVE",
"118 538 CURVE SMOOTH",
"118 501 LINE",
"32 501 LINE",
"32 437 LINE",
"118 437 LINE",
"118 0 LINE"
);
}
);
};
layerId = "EA06CE92-4115-4482-8874-2441C279E756";
paths = (
{
closed = 1;
nodes = (
"222 0 LINE",
"222 383 LINE",
"342 383 LINE",
"342 501 LINE",
"222 501 LINE",
"222 511 LINE SMOOTH",
"222 564 OFFCURVE",
"241 588 OFFCURVE",
"283 588 CURVE SMOOTH",
"353 588 LINE",
"353 704 LINE",
"283 704 LINE SMOOTH",
"154 704 OFFCURVE",
"86 638 OFFCURVE",
"86 511 CURVE SMOOTH",
"86 501 LINE",
"0 501 LINE",
"0 383 LINE",
"86 383 LINE",
"86 0 LINE"
);
}
);
width = 353;
},
{
associatedMasterId = "020CB1CC-CCFF-4D13-936A-D2256F19E5D3";
layerId = "8AF6BA7E-4672-4BE4-A9AE-4DB948958C2C";
width = 600;
},
{
associatedMasterId = "020CB1CC-CCFF-4D13-936A-D2256F19E5D3";
layerId = "B33D8315-4E2D-432F-81CC-4B4588C953F3";
width = 600;
},
{
anchors = (
{
name = bottom;
position = "{156, 0}";
},
{
name = top;
position = "{156, 470}";
}
);
layerId = "020CB1CC-CCFF-4D13-936A-D2256F19E5D3";
paths = (
{
closed = 1;
nodes = (
"160 0 LINE",
"160 469 LINE",
"280 469 LINE",
"280 501 LINE",
"160 501 LINE",
"160 554 LINE SMOOTH",
"160 636 OFFCURVE",
"195 674 OFFCURVE",
"272 674 CURVE SMOOTH",
"291 674 LINE",
"291 704 LINE",
"272 704 LINE SMOOTH",
"176 704 OFFCURVE",
"126 652 OFFCURVE",
"126 554 CURVE SMOOTH",
"126 501 LINE",
"40 501 LINE",
"40 469 LINE",
"126 469 LINE",
"126 0 LINE"
);
}
);
width = 299;
},
{
associatedMasterId = "020CB1CC-CCFF-4D13-936A-D2256F19E5D3";
layerId = "54995933-DB9F-46B4-9B9C-949F3ED27267";
width = 600;
},
{
anchors = (
{
name = bottom;
position = "{160, 0}";
},
{
name = top;
position = "{160, 470}";
}
);
layerId = "76C6DC51-463D-4A0C-B694-3EB424048C5D";
paths = (
{
closed = 1;
nodes = (
"183 0 LINE",
"183 437 LINE",
"303 437 LINE",
"303 501 LINE",
"183 501 LINE",
"183 538 LINE SMOOTH",
"183 609 OFFCURVE",
"212 642 OFFCURVE",
"276 642 CURVE SMOOTH",
"314 642 LINE",
"314 704 LINE",
"276 704 LINE SMOOTH",
"168 704 OFFCURVE",
"111 647 OFFCURVE",
"111 538 CURVE SMOOTH",
"111 501 LINE",
"25 501 LINE",
"25 437 LINE",
"111 437 LINE",
"111 0 LINE"
);
}
);
width = 319;
}
);
note = f;
unicode = 0066;
},
{
glyphname = g;
lastChange = "2018-02-12 09:14:05 +0000";
layers = (
{
anchors = (
{
name = bottom;
position = "{276, 0}";
},
{
name = top;
position = "{276, 470}";
}
);
background = {
paths = (
{
closed = 1;
nodes = (
"378 507 LINE",
"378 493 LINE",
"357 506 OFFCURVE",
"334 513 OFFCURVE",
"312 513 CURVE SMOOTH",
"250 513 LINE SMOOTH",
"113 513 OFFCURVE",
"20 416 OFFCURVE",
"20 272 CURVE SMOOTH",
"20 195 LINE SMOOTH",
"20 73 OFFCURVE",
"97 -10 OFFCURVE",
"209 -10 CURVE SMOOTH",
"271 -10 LINE SMOOTH",
"307 -10 OFFCURVE",
"344 2 OFFCURVE",
"376 24 CURVE",
"376 -8 LINE SMOOTH",
"376 -71 OFFCURVE",
"341 -111 OFFCURVE",
"286 -111 CURVE SMOOTH",
"227 -111 LINE SMOOTH",
"194 -111 OFFCURVE",
"172 -83 OFFCURVE",
"175 -38 CURVE",
"39 -38 LINE",
"34 -149 OFFCURVE",
"115 -229 OFFCURVE",
"227 -229 CURVE SMOOTH",
"286 -229 LINE SMOOTH",
"420 -229 OFFCURVE",
"512 -139 OFFCURVE",
"512 -8 CURVE SMOOTH",
"512 507 LINE"
);
},
{
closed = 1;
nodes = (
"156 346 OFFCURVE",
"193 393 OFFCURVE",
"250 393 CURVE SMOOTH",
"307 393 LINE SMOOTH",
"339 393 OFFCURVE",
"368 356 OFFCURVE",
"376 300 CURVE",
"376 218 LINE",
"359 152 OFFCURVE",
"318 110 OFFCURVE",
"271 110 CURVE SMOOTH",
"209 110 LINE SMOOTH",
"178 110 OFFCURVE",
"156 143 OFFCURVE",
"156 195 CURVE SMOOTH",
"156 272 LINE SMOOTH"
);
}
);
};
layerId = "EA06CE92-4115-4482-8874-2441C279E756";
paths = (
{
closed = 1;
nodes = (
"286 -209 LINE SMOOTH",
"422 -209 OFFCURVE",
"512 -125 OFFCURVE",
"512 2 CURVE SMOOTH",
"512 501 LINE",
"386 501 LINE",
"386 451 LINE",
"359 485 OFFCURVE",
"318 507 OFFCURVE",
"283 507 CURVE SMOOTH",
"225 507 LINE SMOOTH",
"102 507 OFFCURVE",
"20 419 OFFCURVE",
"20 286 CURVE SMOOTH",
"20 205 LINE SMOOTH",
"20 94 OFFCURVE",
"88 20 OFFCURVE",
"189 20 CURVE SMOOTH",
"261 20 LINE SMOOTH",
"305 20 OFFCURVE",
"351 42 OFFCURVE",
"376 74 CURVE",
"376 2 LINE SMOOTH",
"376 -55 OFFCURVE",
"340 -93 OFFCURVE",
"286 -93 CURVE SMOOTH",
"228 -93 LINE SMOOTH",
"199 -93 OFFCURVE",
"177 -72 OFFCURVE",
"174 -40 CURVE",
"40 -40 LINE",
"48 -141 OFFCURVE",
"123 -209 OFFCURVE",
"228 -209 CURVE SMOOTH"
);
},
{
closed = 1;
nodes = (
"180 138 OFFCURVE",
"156 165 OFFCURVE",
"156 205 CURVE SMOOTH",
"156 286 LINE SMOOTH",
"156 348 OFFCURVE",
"192 389 OFFCURVE",
"245 389 CURVE SMOOTH",
"297 389 LINE SMOOTH",
"340 389 OFFCURVE",
"372 357 OFFCURVE",
"376 310 CURVE",
"376 245 LINE",
"372 181 OFFCURVE",
"330 138 OFFCURVE",
"271 138 CURVE SMOOTH",
"217 138 LINE SMOOTH"
);
}
);
width = 552;
},
{
associatedMasterId = "020CB1CC-CCFF-4D13-936A-D2256F19E5D3";
layerId = "8AF6BA7E-4672-4BE4-A9AE-4DB948958C2C";
width = 600;
},
{
associatedMasterId = "020CB1CC-CCFF-4D13-936A-D2256F19E5D3";
layerId = "BF02D11D-FE9D-4C71-A5A7-2FA3CA3236A0";
width = 600;
},
{
anchors = (
{
name = bottom;
position = "{273, 0}";
},
{
name = top;
position = "{273, 470}";
}
);
background = {
paths = (
{
closed = 1;
nodes = (
"283 -196 LINE SMOOTH",
"387 -196 OFFCURVE",
"458 -123 OFFCURVE",
"458 -14 CURVE SMOOTH",
"458 501 LINE",
"421 501 LINE",
"421 443 LINE",
"396 482 OFFCURVE",
"358 507 OFFCURVE",
"326 507 CURVE SMOOTH",
"262 507 LINE SMOOTH",
"145 507 OFFCURVE",
"68 424 OFFCURVE",
"68 299 CURVE SMOOTH",
"68 192 LINE SMOOTH",
"68 89 OFFCURVE",
"128 20 OFFCURVE",
"218 20 CURVE SMOOTH",
"274 20 LINE SMOOTH",
"331 20 OFFCURVE",
"391 58 OFFCURVE",
"424 117 CURVE",
"424 -14 LINE SMOOTH",
"424 -106 OFFCURVE",
"367 -167 OFFCURVE",
"283 -167 CURVE SMOOTH",
"223 -167 LINE SMOOTH",
"172 -167 OFFCURVE",
"132 -133 OFFCURVE",
"123 -82 CURVE",
"88 -82 LINE",
"96 -151 OFFCURVE",
"150 -196 OFFCURVE",
"223 -196 CURVE SMOOTH"
);
},
{
closed = 1;
nodes = (
"142 52 OFFCURVE",
"102 107 OFFCURVE",
"102 192 CURVE SMOOTH",
"102 299 LINE SMOOTH",
"102 404 OFFCURVE",
"160 475 OFFCURVE",
"250 475 CURVE SMOOTH",
"310 475 LINE SMOOTH",
"366 475 OFFCURVE",
"412 418 OFFCURVE",
"424 332 CURVE",
"424 200 LINE",
"396 111 OFFCURVE",
"335 52 OFFCURVE",
"268 52 CURVE SMOOTH",
"201 52 LINE SMOOTH"
);
}
);
};
layerId = "020CB1CC-CCFF-4D13-936A-D2256F19E5D3";
paths = (
{
closed = 1;
nodes = (
"283 -196 LINE SMOOTH",
"387 -196 OFFCURVE",
"458 -123 OFFCURVE",
"458 -14 CURVE SMOOTH",
"458 501 LINE",
"421 501 LINE",
"421 443 LINE",
"396 482 OFFCURVE",
"358 507 OFFCURVE",
"326 507 CURVE SMOOTH",
"262 507 LINE SMOOTH",
"145 507 OFFCURVE",
"68 424 OFFCURVE",
"68 299 CURVE SMOOTH",
"68 192 LINE SMOOTH",
"68 89 OFFCURVE",
"128 20 OFFCURVE",
"218 20 CURVE SMOOTH",
"274 20 LINE SMOOTH",
"331 20 OFFCURVE",
"389 58 OFFCURVE",
"422 117 CURVE",
"422 -14 LINE SMOOTH",
"422 -106 OFFCURVE",
"367 -162 OFFCURVE",
"283 -162 CURVE SMOOTH",
"223 -162 LINE SMOOTH",
"172 -162 OFFCURVE",
"133 -133 OFFCURVE",
"124 -82 CURVE",
"88 -82 LINE",
"96 -151 OFFCURVE",
"150 -196 OFFCURVE",
"223 -196 CURVE SMOOTH"
);
},
{
closed = 1;
nodes = (
"142 54 OFFCURVE",
"104 107 OFFCURVE",
"104 192 CURVE SMOOTH",
"104 299 LINE SMOOTH",
"104 404 OFFCURVE",
"160 473 OFFCURVE",
"250 473 CURVE SMOOTH",
"310 473 LINE SMOOTH",
"366 473 OFFCURVE",
"410 418 OFFCURVE",
"422 332 CURVE",
"422 200 LINE",
"394 111 OFFCURVE",
"335 54 OFFCURVE",
"268 54 CURVE SMOOTH",
"201 54 LINE SMOOTH"
);
}
);
width = 546;
},
{
associatedMasterId = "020CB1CC-CCFF-4D13-936A-D2256F19E5D3";
layerId = "1D1F3AD7-E233-4313-A299-75635C8EA5DC";
width = 600;
},
{
anchors = (
{
name = bottom;
position = "{274, 0}";
},
{
name = top;
position = "{274, 470}";
}
);
layerId = "76C6DC51-463D-4A0C-B694-3EB424048C5D";
paths = (
{
closed = 1;
nodes = (
"284 -201 LINE SMOOTH",
"400 -201 OFFCURVE",
"478 -124 OFFCURVE",
"478 -8 CURVE SMOOTH",
"478 501 LINE",
"408 501 LINE",
"408 446 LINE",
"382 483 OFFCURVE",
"343 507 OFFCURVE",
"310 507 CURVE SMOOTH",
"248 507 LINE SMOOTH",
"129 507 OFFCURVE",
"50 422 OFFCURVE",
"50 294 CURVE SMOOTH",
"50 197 LINE SMOOTH",
"50 91 OFFCURVE",
"113 20 OFFCURVE",
"207 20 CURVE SMOOTH",
"269 20 LINE SMOOTH",
"321 20 OFFCURVE",
"376 52 OFFCURVE",
"406 101 CURVE",
"406 -8 LINE SMOOTH",
"406 -87 OFFCURVE",
"357 -139 OFFCURVE",
"284 -139 CURVE SMOOTH",
"225 -139 LINE SMOOTH",
"182 -139 OFFCURVE",
"149 -110 OFFCURVE",
"142 -66 CURVE",
"70 -66 LINE",
"78 -147 OFFCURVE",
"140 -201 OFFCURVE",
"225 -201 CURVE SMOOTH"
);
},
{
closed = 1;
nodes = (
"156 84 OFFCURVE",
"122 129 OFFCURVE",
"122 197 CURVE SMOOTH",
"122 294 LINE SMOOTH",
"122 383 OFFCURVE",
"172 443 OFFCURVE",
"248 443 CURVE SMOOTH",
"305 443 LINE SMOOTH",
"356 443 OFFCURVE",
"397 395 OFFCURVE",
"406 324 CURVE",
"406 217 LINE",
"387 137 OFFCURVE",
"333 84 OFFCURVE",
"269 84 CURVE SMOOTH",
"207 84 LINE SMOOTH"
);
}
);
width = 548;
}
);
note = g;
unicode = 0067;
},
{
glyphname = h;
lastChange = "2018-02-12 08:59:17 +0000";
layers = (
{
anchors = (
{
name = bottom;
position = "{281, 0}";
},
{
name = center;
position = "{281, 235}";
},
{
name = top;
position = "{281, 470}";
}
);
background = {
paths = (
{
closed = 1;
nodes = (
"390 0 LINE",
"526 0 LINE",
"526 320 LINE SMOOTH",
"526 438 OFFCURVE",
"460 507 OFFCURVE",
"349 507 CURVE SMOOTH",
"287 507 LINE SMOOTH",
"247 507 OFFCURVE",
"199 481 OFFCURVE",
"168 443 CURVE",
"168 701 LINE",
"40 701 LINE",
"40 0 LINE",
"176 0 LINE",
"176 297 LINE",
"188 351 OFFCURVE",
"232 387 OFFCURVE",
"285 387 CURVE SMOOTH",
"334 387 LINE SMOOTH",
"368 387 OFFCURVE",
"390 360 OFFCURVE",
"390 320 CURVE SMOOTH"
);
}
);
};
layerId = "EA06CE92-4115-4482-8874-2441C279E756";
paths = (
{
closed = 1;
nodes = (
"390 0 LINE",
"526 0 LINE",
"526 320 LINE SMOOTH",
"526 438 OFFCURVE",
"460 507 OFFCURVE",
"349 507 CURVE SMOOTH",
"287 507 LINE SMOOTH",
"251 507 OFFCURVE",
"207 485 OFFCURVE",
"176 452 CURVE",
"176 700 LINE",
"40 700 LINE",
"40 0 LINE",
"176 0 LINE",
"176 297 LINE",
"188 351 OFFCURVE",
"232 387 OFFCURVE",
"285 387 CURVE SMOOTH",
"334 387 LINE SMOOTH",
"368 387 OFFCURVE",
"390 360 OFFCURVE",
"390 320 CURVE SMOOTH"
);
}
);
width = 561;
},
{
associatedMasterId = "020CB1CC-CCFF-4D13-936A-D2256F19E5D3";
layerId = "8AF6BA7E-4672-4BE4-A9AE-4DB948958C2C";
width = 600;
},
{
associatedMasterId = "020CB1CC-CCFF-4D13-936A-D2256F19E5D3";
layerId = "4019E62D-36FC-4729-9971-B480EF9733E3";
width = 600;
},
{
anchors = (
{
name = bottom;
position = "{278, 0}";
},
{
name = center;
position = "{278, 235}";
},
{
name = top;
position = "{278, 470}";
}
);
background = {
paths = (
{
closed = 1;
nodes = (
"420 0 LINE",
"492 0 LINE",
"492 336 LINE SMOOTH",
"492 439 OFFCURVE",
"430 507 OFFCURVE",
"336 507 CURVE SMOOTH",
"275 507 LINE SMOOTH",
"225 507 OFFCURVE",
"171 477 OFFCURVE",
"140 431 CURVE",
"140 501 LINE",
"70 501 LINE",
"70 0 LINE",
"142 0 LINE",
"142 320 LINE",
"159 386 OFFCURVE",
"212 443 OFFCURVE",
"275 443 CURVE SMOOTH",
"336 443 LINE SMOOTH",
"386 443 OFFCURVE",
"420 401 OFFCURVE",
"420 339 CURVE SMOOTH"
);
}
);
};
layerId = "020CB1CC-CCFF-4D13-936A-D2256F19E5D3";
paths = (
{
closed = 1;
nodes = (
"438 0 LINE",
"472 0 LINE",
"472 346 LINE SMOOTH",
"472 440 OFFCURVE",
"412 507 OFFCURVE",
"328 507 CURVE SMOOTH",
"268 507 LINE SMOOTH",
"209 507 OFFCURVE",
"153 480 OFFCURVE",
"122 428 CURVE",
"122 700 LINE",
"88 700 LINE",
"88 0 LINE",
"122 0 LINE",
"122 340 LINE",
"142 413 OFFCURVE",
"200 477 OFFCURVE",
"269 477 CURVE SMOOTH",
"337 477 LINE SMOOTH",
"397 477 OFFCURVE",
"438 426 OFFCURVE",
"438 350 CURVE SMOOTH"
);
}
);
width = 555;
},
{
associatedMasterId = "020CB1CC-CCFF-4D13-936A-D2256F19E5D3";
layerId = "9100CF85-BBA1-4EA3-B489-0AAA4ECDA1E7";
width = 600;
},
{
anchors = (
{
name = bottom;
position = "{279, 0}";
},
{
name = center;
position = "{279, 235}";
},
{
name = top;
position = "{279, 470}";
}
);
layerId = "76C6DC51-463D-4A0C-B694-3EB424048C5D";
paths = (
{
closed = 1;
nodes = (
"420 0 LINE",
"492 0 LINE",
"492 336 LINE SMOOTH",
"492 439 OFFCURVE",
"430 507 OFFCURVE",
"336 507 CURVE SMOOTH",
"275 507 LINE SMOOTH",
"225 507 OFFCURVE",
"173 482 OFFCURVE",
"142 437 CURVE",
"142 700 LINE",
"70 700 LINE",
"70 0 LINE",
"142 0 LINE",
"142 324 LINE",
"159 390 OFFCURVE",
"212 443 OFFCURVE",
"275 443 CURVE SMOOTH",
"336 443 LINE SMOOTH",
"386 443 OFFCURVE",
"420 401 OFFCURVE",
"420 339 CURVE SMOOTH"
);
}
);
width = 557;
}
);
note = h;
unicode = 0068;
},
{
glyphname = i;
lastChange = "2018-02-12 08:59:17 +0000";
layers = (
{
anchors = (
{
name = bottom;
position = "{127, 0}";
}
);
background = {
paths = (
{
closed = 1;
nodes = (
"90 0 LINE",
"162 0 LINE",
"162 501 LINE",
"90 501 LINE"
);
},
{
closed = 1;
nodes = (
"73 596 OFFCURVE",
"94 574 OFFCURVE",
"126 574 CURVE SMOOTH",
"158 574 OFFCURVE",
"180 596 OFFCURVE",
"180 628 CURVE SMOOTH",
"180 660 OFFCURVE",
"158 682 OFFCURVE",
"126 682 CURVE SMOOTH",
"94 682 OFFCURVE",
"73 660 OFFCURVE",
"73 628 CURVE SMOOTH"
);
}
);
};
layerId = "EA06CE92-4115-4482-8874-2441C279E756";
paths = (
{
closed = 1;
nodes = (
"58 0 LINE",
"194 0 LINE",
"194 501 LINE",
"58 501 LINE"
);
},
{
closed = 1;
nodes = (
"40 579 OFFCURVE",
"74 546 OFFCURVE",
"126 546 CURVE SMOOTH",
"178 546 OFFCURVE",
"212 579 OFFCURVE",
"212 628 CURVE SMOOTH",
"212 677 OFFCURVE",
"178 710 OFFCURVE",
"126 710 CURVE SMOOTH",
"74 710 OFFCURVE",
"40 677 OFFCURVE",
"40 628 CURVE SMOOTH"
);
}
);
width = 252;
},
{
associatedMasterId = "020CB1CC-CCFF-4D13-936A-D2256F19E5D3";
layerId = "8AF6BA7E-4672-4BE4-A9AE-4DB948958C2C";
width = 600;
},
{
associatedMasterId = "020CB1CC-CCFF-4D13-936A-D2256F19E5D3";
layerId = "E3526FF5-4434-457A-BBC4-16DD12B25907";
width = 600;
},
{
anchors = (
{
name = bottom;
position = "{116, 0}";
}
);
layerId = "020CB1CC-CCFF-4D13-936A-D2256F19E5D3";
paths = (
{
closed = 1;
nodes = (
"98 0 LINE",
"132 0 LINE",
"132 501 LINE",
"98 501 LINE"
);
},
{
closed = 1;
nodes = (
"80 606 OFFCURVE",
"95 591 OFFCURVE",
"115 591 CURVE SMOOTH",
"135 591 OFFCURVE",
"150 606 OFFCURVE",
"150 628 CURVE SMOOTH",
"150 650 OFFCURVE",
"135 665 OFFCURVE",
"115 665 CURVE SMOOTH",
"95 665 OFFCURVE",
"80 650 OFFCURVE",
"80 628 CURVE SMOOTH"
);
}
);
width = 230;
},
{
associatedMasterId = "020CB1CC-CCFF-4D13-936A-D2256F19E5D3";
layerId = "763B5CE8-A0D8-4259-B799-29FA7F31AAEF";
width = 600;
},
{
anchors = (
{
name = bottom;
position = "{120, 0}";
}
);
layerId = "76C6DC51-463D-4A0C-B694-3EB424048C5D";
paths = (
{
closed = 1;
nodes = (
"83 0 LINE",
"155 0 LINE",
"155 501 LINE",
"83 501 LINE"
);
},
{
closed = 1;
nodes = (
"65 596 OFFCURVE",
"87 574 OFFCURVE",
"119 574 CURVE SMOOTH",
"151 574 OFFCURVE",
"173 596 OFFCURVE",
"173 628 CURVE SMOOTH",
"173 660 OFFCURVE",
"151 682 OFFCURVE",
"119 682 CURVE SMOOTH",
"87 682 OFFCURVE",
"65 660 OFFCURVE",
"65 628 CURVE SMOOTH"
);
}
);
width = 238;
}
);
note = i;
unicode = 0069;
},
{
glyphname = j;
lastChange = "2018-02-12 08:59:17 +0000";
layers = (
{
background = {
paths = (
{
closed = 1;
nodes = (
"92 -87 OFFCURVE",
"75 -107 OFFCURVE",
"27 -107 CURVE SMOOTH",
"-40 -107 LINE",
"-40 -227 LINE",
"27 -227 LINE SMOOTH",
"167 -227 OFFCURVE",
"228 -160 OFFCURVE",
"228 -10 CURVE SMOOTH",
"228 507 LINE",
"92 507 LINE",
"92 -15 LINE SMOOTH"
);
},
{
closed = 1;
nodes = (
"75 580 OFFCURVE",
"111 546 OFFCURVE",
"160 546 CURVE SMOOTH",
"210 546 OFFCURVE",
"246 581 OFFCURVE",
"246 628 CURVE SMOOTH",
"246 675 OFFCURVE",
"210 710 OFFCURVE",
"160 710 CURVE SMOOTH",
"111 710 OFFCURVE",
"75 676 OFFCURVE",
"75 628 CURVE SMOOTH"
);
}
);
};
layerId = "EA06CE92-4115-4482-8874-2441C279E756";
paths = (
{
closed = 1;
nodes = (
"92 -56 OFFCURVE",
"73 -83 OFFCURVE",
"27 -83 CURVE SMOOTH",
"-40 -83 LINE",
"-40 -199 LINE",
"27 -199 LINE SMOOTH",
"171 -199 OFFCURVE",
"228 -137 OFFCURVE",
"228 18 CURVE SMOOTH",
"228 501 LINE",
"92 501 LINE",
"92 13 LINE SMOOTH"
);
},
{
closed = 1;
nodes = (
"74 579 OFFCURVE",
"108 546 OFFCURVE",
"160 546 CURVE SMOOTH",
"212 546 OFFCURVE",
"246 579 OFFCURVE",
"246 628 CURVE SMOOTH",
"246 677 OFFCURVE",
"212 710 OFFCURVE",
"160 710 CURVE SMOOTH",
"108 710 OFFCURVE",
"74 677 OFFCURVE",
"74 628 CURVE SMOOTH"
);
}
);
width = 281;
},
{
associatedMasterId = "020CB1CC-CCFF-4D13-936A-D2256F19E5D3";
layerId = "8AF6BA7E-4672-4BE4-A9AE-4DB948958C2C";
width = 600;
},
{
associatedMasterId = "020CB1CC-CCFF-4D13-936A-D2256F19E5D3";
layerId = "0E1E4CF4-D89B-42A0-8819-7912B529B1AD";
width = 600;
},
{
background = {
paths = (
{
closed = 1;
nodes = (
"127 -10 LINE SMOOTH",
"127 -91 OFFCURVE",
"105 -138 OFFCURVE",
"25 -138 CURVE SMOOTH",
"-14 -138 LINE",
"-14 -199 LINE",
"25 -199 LINE SMOOTH",
"144 -199 OFFCURVE",
"194 -129 OFFCURVE",
"194 -10 CURVE SMOOTH",
"194 501 LINE",
"127 501 LINE"
);
},
{
closed = 1;
nodes = (
"110 609 OFFCURVE",
"132 586 OFFCURVE",
"161 586 CURVE SMOOTH",
"191 586 OFFCURVE",
"213 609 OFFCURVE",
"213 638 CURVE SMOOTH",
"213 667 OFFCURVE",
"191 690 OFFCURVE",
"161 690 CURVE SMOOTH",
"132 690 OFFCURVE",
"110 667 OFFCURVE",
"110 638 CURVE SMOOTH"
);
}
);
};
layerId = "020CB1CC-CCFF-4D13-936A-D2256F19E5D3";
paths = (
{
closed = 1;
nodes = (
"140 -128 OFFCURVE",
"107 -166 OFFCURVE",
"24 -166 CURVE SMOOTH",
"8 -166 LINE",
"8 -199 LINE",
"24 -199 LINE SMOOTH",
"131 -199 OFFCURVE",
"174 -150 OFFCURVE",
"174 -27 CURVE SMOOTH",
"174 501 LINE",
"140 501 LINE",
"140 -32 LINE SMOOTH"
);
},
{
closed = 1;
nodes = (
"124 606 OFFCURVE",
"137 591 OFFCURVE",
"157 591 CURVE SMOOTH",
"177 591 OFFCURVE",
"192 606 OFFCURVE",
"192 628 CURVE SMOOTH",
"192 650 OFFCURVE",
"177 665 OFFCURVE",
"157 665 CURVE SMOOTH",
"137 665 OFFCURVE",
"124 650 OFFCURVE",
"124 628 CURVE SMOOTH"
);
}
);
width = 275;
},
{
associatedMasterId = "020CB1CC-CCFF-4D13-936A-D2256F19E5D3";
layerId = "F8D7DAFE-ABED-4AB6-A5EC-2C5D89DC6AF5";
width = 600;
},
{
layerId = "76C6DC51-463D-4A0C-B694-3EB424048C5D";
paths = (
{
closed = 1;
nodes = (
"122 -101 OFFCURVE",
"94 -135 OFFCURVE",
"25 -135 CURVE SMOOTH",
"-10 -135 LINE",
"-10 -199 LINE",
"25 -199 LINE SMOOTH",
"146 -199 OFFCURVE",
"194 -145 OFFCURVE",
"194 -10 CURVE SMOOTH",
"194 501 LINE",
"122 501 LINE",
"122 -15 LINE SMOOTH"
);
},
{
closed = 1;
nodes = (
"105 596 OFFCURVE",
"126 574 OFFCURVE",
"158 574 CURVE SMOOTH",
"190 574 OFFCURVE",
"212 596 OFFCURVE",
"212 628 CURVE SMOOTH",
"212 660 OFFCURVE",
"190 682 OFFCURVE",
"158 682 CURVE SMOOTH",
"126 682 OFFCURVE",
"105 660 OFFCURVE",
"105 628 CURVE SMOOTH"
);
}
);
width = 277;
}
);
note = j;
unicode = 006A;
},
{
glyphname = k;
lastChange = "2018-02-12 08:59:17 +0000";
layers = (
{
anchors = (
{
name = bottom;
position = "{260, 0}";
},
{
name = top;
position = "{260, 470}";
}
);
background = {
paths = (
{
closed = 1;
nodes = (
"548 529 LINE",
"387 529 LINE",
"210 315 LINE",
"176 315 LINE",
"176 728 LINE",
"40 728 LINE",
"40 -28 LINE",
"176 -28 LINE",
"176 195 LINE",
"210 195 LINE",
"405 -28 LINE",
"570 -28 LINE",
"326 255 LINE"
);
}
);
};
layerId = "EA06CE92-4115-4482-8874-2441C279E756";
paths = (
{
closed = 1;
nodes = (
"522 501 LINE",
"362 501 LINE",
"228 312 LINE",
"176 312 LINE",
"176 700 LINE",
"40 700 LINE",
"40 0 LINE",
"176 0 LINE",
"176 194 LINE",
"228 194 LINE",
"376 0 LINE",
"538 0 LINE",
"340 253 LINE"
);
}
);
width = 538;
},
{
associatedMasterId = "020CB1CC-CCFF-4D13-936A-D2256F19E5D3";
layerId = "8AF6BA7E-4672-4BE4-A9AE-4DB948958C2C";
width = 600;
},
{
associatedMasterId = "020CB1CC-CCFF-4D13-936A-D2256F19E5D3";
layerId = "BCF04DBD-D570-4585-B651-22C67AA3650B";
width = 600;
},
{
anchors = (
{
name = bottom;
position = "{257, 0}";
},
{
name = top;
position = "{257, 470}";
}
);
background = {
paths = (
{
closed = 1;
nodes = (
"486 501 LINE",
"404 501 LINE",
"226 285 LINE",
"137 285 LINE",
"137 700 LINE",
"70 700 LINE",
"70 0 LINE",
"137 0 LINE",
"137 224 LINE",
"226 224 LINE",
"422 0 LINE",
"506 0 LINE",
"284 255 LINE"
);
}
);
};
layerId = "020CB1CC-CCFF-4D13-936A-D2256F19E5D3";
paths = (
{
closed = 1;
nodes = (
"461 501 LINE",
"424 501 LINE",
"222 272 LINE",
"122 272 LINE",
"122 700 LINE",
"88 700 LINE",
"88 0 LINE",
"122 0 LINE",
"122 240 LINE",
"222 240 LINE",
"445 0 LINE",
"484 0 LINE",
"250 256 LINE"
);
}
);
width = 500;
},
{
associatedMasterId = "020CB1CC-CCFF-4D13-936A-D2256F19E5D3";
layerId = "2150BE49-3EED-4D7C-8F9D-34E11D37D6A5";
width = 600;
},
{
anchors = (
{
name = bottom;
position = "{258, 0}";
},
{
name = top;
position = "{258, 470}";
}
);
layerId = "76C6DC51-463D-4A0C-B694-3EB424048C5D";
paths = (
{
closed = 1;
nodes = (
"484 501 LINE",
"401 501 LINE",
"224 287 LINE",
"142 287 LINE",
"142 700 LINE",
"70 700 LINE",
"70 0 LINE",
"142 0 LINE",
"142 223 LINE",
"224 223 LINE",
"419 0 LINE",
"504 0 LINE",
"284 255 LINE"
);
}
);
width = 514;
}
);
note = k;
unicode = 006B;
},
{
glyphname = l;
lastChange = "2018-02-12 09:33:52 +0000";
layers = (
{
anchors = (
{
name = bottom;
position = "{111, 0}";
},
{
name = center;
position = "{111, 235}";
},
{
name = top;
position = "{111, 470}";
},
{
name = topright;
position = "{199, 470}";
}
);
background = {
paths = (
{
closed = 1;
nodes = (
"45 0 LINE",
"181 0 LINE",
"181 700 LINE",
"45 700 LINE"
);
}
);
};
layerId = "EA06CE92-4115-4482-8874-2441C279E756";
paths = (
{
closed = 1;
nodes = (
"45 44 OFFCURVE",
"94 0 OFFCURVE",
"215 0 CURVE SMOOTH",
"281 0 LINE",
"281 118 LINE",
"225 118 LINE SMOOTH",
"194 118 OFFCURVE",
"181 131 OFFCURVE",
"181 164 CURVE SMOOTH",
"181 700 LINE",
"45 700 LINE",
"45 154 LINE SMOOTH"
);
}
);
width = 286;
},
{
associatedMasterId = "020CB1CC-CCFF-4D13-936A-D2256F19E5D3";
layerId = "8AF6BA7E-4672-4BE4-A9AE-4DB948958C2C";
width = 600;
},
{
associatedMasterId = "020CB1CC-CCFF-4D13-936A-D2256F19E5D3";
layerId = "13B12C61-9F26-467A-9EFC-F09E8D0FC6C7";
width = 600;
},
{
anchors = (
{
name = bottom;
position = "{108, -141}";
},
{
name = center;
position = "{108, 376}";
},
{
name = top;
position = "{108, 470}";
},
{
name = topright;
position = "{196, 470}";
}
);
background = {
paths = (
{
closed = 1;
nodes = (
"75 31 OFFCURVE",
"110 0 OFFCURVE",
"213 0 CURVE SMOOTH",
"247 0 LINE",
"247 62 LINE",
"223 62 LINE SMOOTH",
"174 62 OFFCURVE",
"147 88 OFFCURVE",
"147 136 CURVE SMOOTH",
"147 644 LINE",
"75 644 LINE",
"75 126 LINE SMOOTH"
);
}
);
};
layerId = "020CB1CC-CCFF-4D13-936A-D2256F19E5D3";
paths = (
{
closed = 1;
nodes = (
"91 36 OFFCURVE",
"125 0 OFFCURVE",
"209 0 CURVE SMOOTH",
"227 0 LINE",
"227 34 LINE",
"209 34 LINE SMOOTH",
"150 34 OFFCURVE",
"127 58 OFFCURVE",
"127 119 CURVE SMOOTH",
"127 700 LINE",
"91 700 LINE",
"91 125 LINE SMOOTH"
);
}
);
width = 240;
},
{
associatedMasterId = "020CB1CC-CCFF-4D13-936A-D2256F19E5D3";
layerId = "0E319710-E777-46CA-A8D4-7230326FF994";
width = 600;
},
{
anchors = (
{
name = bottom;
position = "{109, 0}";
},
{
name = center;
position = "{109, 235}";
},
{
name = top;
position = "{109, 470}";
},
{
name = topright;
position = "{197, 470}";
}
);
layerId = "76C6DC51-463D-4A0C-B694-3EB424048C5D";
paths = (
{
closed = 1;
nodes = (
"75 39 OFFCURVE",
"114 0 OFFCURVE",
"213 0 CURVE SMOOTH",
"247 0 LINE",
"247 64 LINE",
"213 64 LINE SMOOTH",
"166 64 OFFCURVE",
"147 85 OFFCURVE",
"147 136 CURVE SMOOTH",
"147 700 LINE",
"75 700 LINE",
"75 136 LINE SMOOTH"
);
}
);
width = 257;
}
);
note = l;
unicode = 006C;
},
{
glyphname = m;
lastChange = "2018-02-12 08:59:17 +0000";
layers = (
{
background = {
paths = (
{
closed = 1;
nodes = (
"572 507 LINE SMOOTH",
"506 507 OFFCURVE",
"440 459 OFFCURVE",
"407 388 CURVE",
"452 363 LINE",
"452 379 LINE SMOOTH",
"452 456 OFFCURVE",
"403 507 OFFCURVE",
"329 507 CURVE SMOOTH",
"277 507 LINE SMOOTH",
"238 507 OFFCURVE",
"193 479 OFFCURVE",
"166 443 CURVE",
"166 501 LINE",
"40 501 LINE",
"40 0 LINE",
"176 0 LINE",
"176 302 LINE",
"188 356 OFFCURVE",
"225 387 OFFCURVE",
"265 387 CURVE SMOOTH",
"298 387 LINE SMOOTH",
"325 387 OFFCURVE",
"338 363 OFFCURVE",
"338 310 CURVE SMOOTH",
"338 0 LINE",
"474 0 LINE",
"474 311 LINE",
"485 357 OFFCURVE",
"519 387 OFFCURVE",
"560 387 CURVE SMOOTH",
"593 387 LINE SMOOTH",
"622 387 OFFCURVE",
"635 363 OFFCURVE",
"635 310 CURVE SMOOTH",
"635 0 LINE",
"771 0 LINE",
"771 320 LINE SMOOTH",
"771 443 OFFCURVE",
"721 507 OFFCURVE",
"624 507 CURVE SMOOTH"
);
}
);
};
layerId = "EA06CE92-4115-4482-8874-2441C279E756";
paths = (
{
closed = 1;
nodes = (
"572 507 LINE SMOOTH",
"506 507 OFFCURVE",
"440 459 OFFCURVE",
"407 388 CURVE",
"452 363 LINE",
"452 379 LINE SMOOTH",
"452 446 OFFCURVE",
"403 507 OFFCURVE",
"329 507 CURVE SMOOTH",
"277 507 LINE SMOOTH",
"239 507 OFFCURVE",
"195 481 OFFCURVE",
"166 443 CURVE",
"166 501 LINE",
"40 501 LINE",
"40 0 LINE",
"176 0 LINE",
"176 302 LINE",
"188 354 OFFCURVE",
"223 389 OFFCURVE",
"265 389 CURVE SMOOTH",
"298 389 LINE SMOOTH",
"323 389 OFFCURVE",
"339 360 OFFCURVE",
"339 312 CURVE SMOOTH",
"339 0 LINE",
"473 0 LINE",
"473 311 LINE",
"484 358 OFFCURVE",
"520 389 OFFCURVE",
"560 389 CURVE SMOOTH",
"593 389 LINE SMOOTH",
"619 389 OFFCURVE",
"635 360 OFFCURVE",
"635 312 CURVE SMOOTH",
"635 0 LINE",
"771 0 LINE",
"771 320 LINE SMOOTH",
"771 438 OFFCURVE",
"716 507 OFFCURVE",
"624 507 CURVE SMOOTH"
);
}
);
width = 806;
},
{
associatedMasterId = "020CB1CC-CCFF-4D13-936A-D2256F19E5D3";
layerId = "8AF6BA7E-4672-4BE4-A9AE-4DB948958C2C";
width = 600;
},
{
associatedMasterId = "020CB1CC-CCFF-4D13-936A-D2256F19E5D3";
layerId = "0B423661-E5C6-4573-82BF-E536DFE94819";
width = 600;
},
{
background = {
paths = (
{
closed = 1;
nodes = (
"368 0 LINE",
"440 0 LINE",
"440 336 LINE SMOOTH",
"440 439 OFFCURVE",
"400 507 OFFCURVE",
"306 507 CURVE SMOOTH",
"265 507 LINE SMOOTH",
"215 507 OFFCURVE",
"171 479 OFFCURVE",
"140 433 CURVE",
"140 501 LINE",
"70 501 LINE",
"70 0 LINE",
"142 0 LINE",
"142 322 LINE",
"159 388 OFFCURVE",
"202 443 OFFCURVE",
"265 443 CURVE SMOOTH",
"306 443 LINE SMOOTH",
"356 443 OFFCURVE",
"368 401 OFFCURVE",
"368 339 CURVE SMOOTH"
);
},
{
closed = 1;
nodes = (
"665 0 LINE",
"737 0 LINE",
"737 336 LINE SMOOTH",
"737 439 OFFCURVE",
"698 507 OFFCURVE",
"604 507 CURVE SMOOTH",
"563 507 LINE SMOOTH",
"513 507 OFFCURVE",
"469 479 OFFCURVE",
"438 433 CURVE",
"368 251 LINE",
"368 0 LINE",
"440 0 LINE",
"440 322 LINE",
"457 388 OFFCURVE",
"500 443 OFFCURVE",
"563 443 CURVE SMOOTH",
"604 443 LINE SMOOTH",
"654 443 OFFCURVE",
"665 401 OFFCURVE",
"665 339 CURVE SMOOTH"
);
}
);
};
layerId = "020CB1CC-CCFF-4D13-936A-D2256F19E5D3";
paths = (
{
closed = 1;
nodes = (
"558 507 LINE SMOOTH",
"487 507 OFFCURVE",
"427 486 OFFCURVE",
"391 385 CURVE",
"426 349 LINE",
"426 369 LINE SMOOTH",
"426 425 OFFCURVE",
"392 507 OFFCURVE",
"292 507 CURVE SMOOTH",
"258 507 LINE SMOOTH",
"201 507 OFFCURVE",
"157 478 OFFCURVE",
"124 427 CURVE",
"124 501 LINE",
"88 501 LINE",
"88 0 LINE",
"122 0 LINE",
"122 334 LINE",
"142 408 OFFCURVE",
"189 475 OFFCURVE",
"265 475 CURVE SMOOTH",
"311 475 LINE SMOOTH",
"376 475 OFFCURVE",
"385 426 OFFCURVE",
"385 355 CURVE SMOOTH",
"385 0 LINE",
"420 0 LINE",
"420 361 LINE",
"441 438 OFFCURVE",
"488 475 OFFCURVE",
"565 475 CURVE SMOOTH",
"611 475 LINE SMOOTH",
"675 475 OFFCURVE",
"683 426 OFFCURVE",
"683 355 CURVE SMOOTH",
"683 0 LINE",
"717 0 LINE",
"717 346 LINE SMOOTH",
"717 440 OFFCURVE",
"687 507 OFFCURVE",
"592 507 CURVE SMOOTH"
);
}
);
width = 800;
},
{
associatedMasterId = "020CB1CC-CCFF-4D13-936A-D2256F19E5D3";
layerId = "22675DCB-C56D-4C2F-BF92-EECD512C7AFD";
width = 600;
},
{
layerId = "76C6DC51-463D-4A0C-B694-3EB424048C5D";
paths = (
{
closed = 1;
nodes = (
"563 507 LINE SMOOTH",
"494 507 OFFCURVE",
"432 476 OFFCURVE",
"397 386 CURVE",
"436 354 LINE",
"436 373 LINE SMOOTH",
"436 433 OFFCURVE",
"396 507 OFFCURVE",
"306 507 CURVE SMOOTH",
"265 507 LINE SMOOTH",
"215 507 OFFCURVE",
"171 479 OFFCURVE",
"140 433 CURVE",
"140 501 LINE",
"70 501 LINE",
"70 0 LINE",
"142 0 LINE",
"142 322 LINE",
"159 388 OFFCURVE",
"202 443 OFFCURVE",
"265 443 CURVE SMOOTH",
"306 443 LINE SMOOTH",
"356 443 OFFCURVE",
"368 401 OFFCURVE",
"368 339 CURVE SMOOTH",
"368 0 LINE",
"440 0 LINE",
"440 342 LINE",
"457 408 OFFCURVE",
"500 443 OFFCURVE",
"563 443 CURVE SMOOTH",
"604 443 LINE SMOOTH",
"654 443 OFFCURVE",
"665 401 OFFCURVE",
"665 339 CURVE SMOOTH",
"665 0 LINE",
"737 0 LINE",
"737 336 LINE SMOOTH",
"737 439 OFFCURVE",
"698 507 OFFCURVE",
"604 507 CURVE SMOOTH"
);
}
);
width = 802;
}
);
note = m;
unicode = 006D;
},
{
glyphname = n;
lastChange = "2018-02-12 09:33:33 +0000";
layers = (
{
anchors = (
{
name = bottom;
position = "{281, 0}";
},
{
name = top;
position = "{281, 470}";
}
);
background = {
paths = (
{
closed = 1;
nodes = (
"390 0 LINE",
"526 0 LINE",
"526 320 LINE SMOOTH",
"526 438 OFFCURVE",
"460 507 OFFCURVE",
"349 507 CURVE SMOOTH",
"287 507 LINE SMOOTH",
"247 507 OFFCURVE",
"198 481 OFFCURVE",
"168 443 CURVE",
"168 501 LINE",
"40 501 LINE",
"40 0 LINE",
"176 0 LINE",
"176 297 LINE",
"188 351 OFFCURVE",
"231 387 OFFCURVE",
"285 387 CURVE SMOOTH",
"334 387 LINE SMOOTH",
"368 387 OFFCURVE",
"390 360 OFFCURVE",
"390 320 CURVE SMOOTH"
);
}
);
};
layerId = "EA06CE92-4115-4482-8874-2441C279E756";
paths = (
{
closed = 1;
nodes = (
"390 0 LINE",
"526 0 LINE",
"526 320 LINE SMOOTH",
"526 438 OFFCURVE",
"460 507 OFFCURVE",
"349 507 CURVE SMOOTH",
"287 507 LINE SMOOTH",
"247 507 OFFCURVE",
"199 481 OFFCURVE",
"168 443 CURVE",
"168 501 LINE",
"40 501 LINE",
"40 0 LINE",
"176 0 LINE",
"176 297 LINE",
"188 351 OFFCURVE",
"232 387 OFFCURVE",
"285 387 CURVE SMOOTH",
"334 387 LINE SMOOTH",
"368 387 OFFCURVE",
"390 360 OFFCURVE",
"390 320 CURVE SMOOTH"
);
}
);
width = 561;
},
{
associatedMasterId = "020CB1CC-CCFF-4D13-936A-D2256F19E5D3";
layerId = "8AF6BA7E-4672-4BE4-A9AE-4DB948958C2C";
width = 600;
},
{
associatedMasterId = "020CB1CC-CCFF-4D13-936A-D2256F19E5D3";
layerId = "47C07CAE-9BD5-43A6-A9DD-C73DACD8BF04";
width = 600;
},
{
anchors = (
{
name = bottom;
position = "{278, 0}";
},
{
name = top;
position = "{278, 470}";
}
);
background = {
paths = (
{
closed = 1;
nodes = (
"436 0 LINE",
"472 0 LINE",
"472 346 LINE SMOOTH",
"472 440 OFFCURVE",
"412 507 OFFCURVE",
"328 507 CURVE SMOOTH",
"268 507 LINE SMOOTH",
"212 507 OFFCURVE",
"157 468 OFFCURVE",
"124 417 CURVE",
"124 501 LINE",
"88 501 LINE",
"88 0 LINE",
"124 0 LINE",
"124 344 LINE",
"144 417 OFFCURVE",
"200 473 OFFCURVE",
"269 473 CURVE SMOOTH",
"337 473 LINE SMOOTH",
"397 473 OFFCURVE",
"436 426 OFFCURVE",
"436 350 CURVE SMOOTH"
);
}
);
};
layerId = "020CB1CC-CCFF-4D13-936A-D2256F19E5D3";
paths = (
{
closed = 1;
nodes = (
"436 0 LINE",
"472 0 LINE",
"472 346 LINE SMOOTH",
"472 447 OFFCURVE",
"420 507 OFFCURVE",
"331 507 CURVE SMOOTH",
"269 507 LINE SMOOTH",
"213 507 OFFCURVE",
"159 474 OFFCURVE",
"124 417 CURVE",
"124 501 LINE",
"88 501 LINE",
"88 0 LINE",
"124 0 LINE",
"124 359 LINE",
"157 431 OFFCURVE",
"211 473 OFFCURVE",
"269 473 CURVE SMOOTH",
"337 473 LINE SMOOTH",
"399 473 OFFCURVE",
"436 427 OFFCURVE",
"436 350 CURVE SMOOTH"
);
}
);
width = 555;
},
{
associatedMasterId = "020CB1CC-CCFF-4D13-936A-D2256F19E5D3";
layerId = "5082048F-81E1-4B93-8311-C6C6A1A34DF5";
width = 600;
},
{
anchors = (
{
name = bottom;
position = "{279, 0}";
},
{
name = top;
position = "{279, 470}";
}
);
layerId = "76C6DC51-463D-4A0C-B694-3EB424048C5D";
paths = (
{
closed = 1;
nodes = (
"420 0 LINE",
"492 0 LINE",
"492 336 LINE SMOOTH",
"492 439 OFFCURVE",
"430 507 OFFCURVE",
"336 507 CURVE SMOOTH",
"275 507 LINE SMOOTH",
"225 507 OFFCURVE",
"172 479 OFFCURVE",
"140 433 CURVE",
"140 501 LINE",
"70 501 LINE",
"70 0 LINE",
"142 0 LINE",
"142 322 LINE",
"159 388 OFFCURVE",
"212 443 OFFCURVE",
"275 443 CURVE SMOOTH",
"336 443 LINE SMOOTH",
"386 443 OFFCURVE",
"420 401 OFFCURVE",
"420 339 CURVE SMOOTH"
);
}
);
width = 557;
}
);
note = n;
unicode = 006E;
},
{
glyphname = o;
lastChange = "2018-02-12 09:14:32 +0000";
layers = (
{
anchors = (
{
name = bottom;
position = "{273, 0}";
},
{
name = center;
position = "{273, 235}";
},
{
name = ogonek;
position = "{490, 10}";
},
{
name = top;
position = "{273, 470}";
},
{
name = topright;
position = "{524, 470}";
}
);
background = {
paths = (
{
closed = 1;
nodes = (
"494 326 LINE SMOOTH",
"494 435 OFFCURVE",
"426 507 OFFCURVE",
"325 507 CURVE SMOOTH",
"254 507 LINE SMOOTH",
"133 507 OFFCURVE",
"52 425 OFFCURVE",
"52 301 CURVE SMOOTH",
"52 171 LINE SMOOTH",
"52 62 OFFCURVE",
"119 -10 OFFCURVE",
"219 -10 CURVE SMOOTH",
"291 -10 LINE SMOOTH",
"413 -10 OFFCURVE",
"494 72 OFFCURVE",
"494 196 CURVE SMOOTH"
);
},
{
closed = 1;
nodes = (
"422 196 LINE SMOOTH",
"422 111 OFFCURVE",
"370 54 OFFCURVE",
"291 54 CURVE SMOOTH",
"219 54 LINE SMOOTH",
"162 54 OFFCURVE",
"124 101 OFFCURVE",
"124 171 CURVE SMOOTH",
"124 301 LINE SMOOTH",
"124 386 OFFCURVE",
"176 443 OFFCURVE",
"254 443 CURVE SMOOTH",
"325 443 LINE SMOOTH",
"383 443 OFFCURVE",
"422 396 OFFCURVE",
"422 326 CURVE SMOOTH"
);
}
);
};
layerId = "EA06CE92-4115-4482-8874-2441C279E756";
paths = (
{
closed = 1;
nodes = (
"526 300 LINE SMOOTH",
"526 424 OFFCURVE",
"446 507 OFFCURVE",
"325 507 CURVE SMOOTH",
"254 507 LINE SMOOTH",
"114 507 OFFCURVE",
"20 414 OFFCURVE",
"20 275 CURVE SMOOTH",
"20 197 LINE SMOOTH",
"20 73 OFFCURVE",
"100 -10 OFFCURVE",
"219 -10 CURVE SMOOTH",
"291 -10 LINE SMOOTH",
"432 -10 OFFCURVE",
"526 83 OFFCURVE",
"526 222 CURVE SMOOTH"
);
},
{
closed = 1;
nodes = (
"390 222 LINE SMOOTH",
"390 154 OFFCURVE",
"350 108 OFFCURVE",
"291 108 CURVE SMOOTH",
"219 108 LINE SMOOTH",
"181 108 OFFCURVE",
"156 144 OFFCURVE",
"156 197 CURVE SMOOTH",
"156 275 LINE SMOOTH",
"156 343 OFFCURVE",
"195 389 OFFCURVE",
"254 389 CURVE SMOOTH",
"325 389 LINE SMOOTH",
"364 389 OFFCURVE",
"390 353 OFFCURVE",
"390 300 CURVE SMOOTH"
);
}
);
width = 546;
},
{
associatedMasterId = "020CB1CC-CCFF-4D13-936A-D2256F19E5D3";
layerId = "8AF6BA7E-4672-4BE4-A9AE-4DB948958C2C";
width = 600;
},
{
associatedMasterId = "020CB1CC-CCFF-4D13-936A-D2256F19E5D3";
layerId = "03A1FE11-82FD-4266-82BB-1D6DD515064D";
width = 600;
},
{
anchors = (
{
name = bottom;
position = "{270, -141}";
},
{
name = center;
position = "{270, 376}";
},
{
name = ogonek;
position = "{487, 10}";
},
{
name = top;
position = "{270, 470}";
},
{
name = topright;
position = "{521, 470}";
}
);
background = {
paths = (
{
closed = 1;
nodes = (
"492 326 LINE SMOOTH",
"492 435 OFFCURVE",
"424 507 OFFCURVE",
"323 507 CURVE SMOOTH",
"252 507 LINE SMOOTH",
"131 507 OFFCURVE",
"50 425 OFFCURVE",
"50 301 CURVE SMOOTH",
"50 171 LINE SMOOTH",
"50 62 OFFCURVE",
"117 -10 OFFCURVE",
"217 -10 CURVE SMOOTH",
"289 -10 LINE SMOOTH",
"411 -10 OFFCURVE",
"492 72 OFFCURVE",
"492 196 CURVE SMOOTH"
);
},
{
closed = 1;
nodes = (
"420 196 LINE SMOOTH",
"420 111 OFFCURVE",
"368 54 OFFCURVE",
"289 54 CURVE SMOOTH",
"217 54 LINE SMOOTH",
"160 54 OFFCURVE",
"122 101 OFFCURVE",
"122 171 CURVE SMOOTH",
"122 301 LINE SMOOTH",
"122 386 OFFCURVE",
"174 443 OFFCURVE",
"252 443 CURVE SMOOTH",
"323 443 LINE SMOOTH",
"381 443 OFFCURVE",
"420 396 OFFCURVE",
"420 326 CURVE SMOOTH"
);
}
);
};
layerId = "020CB1CC-CCFF-4D13-936A-D2256F19E5D3";
paths = (
{
closed = 1;
nodes = (
"472 342 LINE SMOOTH",
"472 442 OFFCURVE",
"411 507 OFFCURVE",
"322 507 CURVE SMOOTH",
"251 507 LINE SMOOTH",
"141 507 OFFCURVE",
"68 432 OFFCURVE",
"68 317 CURVE SMOOTH",
"68 155 LINE SMOOTH",
"68 55 OFFCURVE",
"127 -10 OFFCURVE",
"216 -10 CURVE SMOOTH",
"288 -10 LINE SMOOTH",
"398 -10 OFFCURVE",
"472 65 OFFCURVE",
"472 180 CURVE SMOOTH"
);
},
{
closed = 1;
nodes = (
"436 180 LINE SMOOTH",
"436 85 OFFCURVE",
"379 24 OFFCURVE",
"288 24 CURVE SMOOTH",
"216 24 LINE SMOOTH",
"147 24 OFFCURVE",
"104 75 OFFCURVE",
"104 155 CURVE SMOOTH",
"104 317 LINE SMOOTH",
"104 412 OFFCURVE",
"161 473 OFFCURVE",
"251 473 CURVE SMOOTH",
"322 473 LINE SMOOTH",
"391 473 OFFCURVE",
"436 422 OFFCURVE",
"436 342 CURVE SMOOTH"
);
}
);
width = 540;
},
{
associatedMasterId = "020CB1CC-CCFF-4D13-936A-D2256F19E5D3";
layerId = "F75547CE-474F-45BA-8C4B-93AD57A6FFD9";
width = 600;
},
{
anchors = (
{
name = bottom;
position = "{271, 0}";
},
{
name = center;
position = "{271, 235}";
},
{
name = ogonek;
position = "{488, 10}";
},
{
name = top;
position = "{271, 470}";
},
{
name = topright;
position = "{522, 470}";
}
);
layerId = "76C6DC51-463D-4A0C-B694-3EB424048C5D";
paths = (
{
closed = 1;
nodes = (
"492 326 LINE SMOOTH",
"492 435 OFFCURVE",
"424 507 OFFCURVE",
"323 507 CURVE SMOOTH",
"252 507 LINE SMOOTH",
"131 507 OFFCURVE",
"50 425 OFFCURVE",
"50 301 CURVE SMOOTH",
"50 171 LINE SMOOTH",
"50 62 OFFCURVE",
"117 -10 OFFCURVE",
"217 -10 CURVE SMOOTH",
"289 -10 LINE SMOOTH",
"411 -10 OFFCURVE",
"492 72 OFFCURVE",
"492 196 CURVE SMOOTH"
);
},
{
closed = 1;
nodes = (
"420 196 LINE SMOOTH",
"420 111 OFFCURVE",
"368 54 OFFCURVE",
"289 54 CURVE SMOOTH",
"217 54 LINE SMOOTH",
"160 54 OFFCURVE",
"122 101 OFFCURVE",
"122 171 CURVE SMOOTH",
"122 301 LINE SMOOTH",
"122 386 OFFCURVE",
"174 443 OFFCURVE",
"252 443 CURVE SMOOTH",
"323 443 LINE SMOOTH",
"381 443 OFFCURVE",
"420 396 OFFCURVE",
"420 326 CURVE SMOOTH"
);
}
);
width = 542;
}
);
note = o;
unicode = 006F;
},
{
glyphname = p;
lastChange = "2018-02-12 08:59:17 +0000";
layers = (
{
anchors = (
{
name = bottom;
position = "{276, 0}";
},
{
name = top;
position = "{276, 470}";
}
);
background = {
paths = (
{
closed = 1;
nodes = (
"200 1 OFFCURVE",
"226 -6 OFFCURVE",
"251 -6 CURVE SMOOTH",
"313 -6 LINE SMOOTH",
"444 -6 OFFCURVE",
"532 92 OFFCURVE",
"532 235 CURVE SMOOTH",
"532 302 LINE SMOOTH",
"532 424 OFFCURVE",
"455 507 OFFCURVE",
"343 507 CURVE SMOOTH",
"281 507 LINE SMOOTH",
"244 507 OFFCURVE",
"206 495 OFFCURVE",
"174 473 CURVE",
"174 497 LINE",
"40 497 LINE",
"40 -199 LINE",
"176 -199 LINE",
"176 14 LINE"
);
},
{
closed = 1;
nodes = (
"396 161 OFFCURVE",
"362 114 OFFCURVE",
"313 114 CURVE SMOOTH",
"256 114 LINE SMOOTH",
"216 114 OFFCURVE",
"184 150 OFFCURVE",
"176 207 CURVE",
"176 279 LINE",
"193 345 OFFCURVE",
"235 387 OFFCURVE",
"281 387 CURVE SMOOTH",
"343 387 LINE SMOOTH",
"374 387 OFFCURVE",
"396 354 OFFCURVE",
"396 302 CURVE SMOOTH",
"396 235 LINE SMOOTH"
);
}
);
};
layerId = "EA06CE92-4115-4482-8874-2441C279E756";
paths = (
{
closed = 1;
nodes = (
"176 -203 LINE",
"176 36 LINE",
"198 8 OFFCURVE",
"236 -10 OFFCURVE",
"271 -10 CURVE SMOOTH",
"329 -10 LINE SMOOTH",
"451 -10 OFFCURVE",
"532 78 OFFCURVE",
"532 211 CURVE SMOOTH",
"532 322 LINE SMOOTH",
"532 433 OFFCURVE",
"464 507 OFFCURVE",
"361 507 CURVE SMOOTH",
"289 507 LINE SMOOTH",
"243 507 OFFCURVE",
"194 479 OFFCURVE",
"166 437 CURVE",
"166 497 LINE",
"40 497 LINE",
"40 -203 LINE"
);
},
{
closed = 1;
nodes = (
"212 108 OFFCURVE",
"180 140 OFFCURVE",
"176 187 CURVE",
"176 282 LINE",
"184 346 OFFCURVE",
"225 389 OFFCURVE",
"279 389 CURVE SMOOTH",
"333 389 LINE SMOOTH",
"371 389 OFFCURVE",
"396 362 OFFCURVE",
"396 322 CURVE SMOOTH",
"396 211 LINE SMOOTH",
"396 149 OFFCURVE",
"361 108 OFFCURVE",
"309 108 CURVE SMOOTH",
"257 108 LINE SMOOTH"
);
}
);
width = 552;
},
{
associatedMasterId = "020CB1CC-CCFF-4D13-936A-D2256F19E5D3";
layerId = "8AF6BA7E-4672-4BE4-A9AE-4DB948958C2C";
width = 600;
},
{
associatedMasterId = "020CB1CC-CCFF-4D13-936A-D2256F19E5D3";
layerId = "F3D3A55D-AA3E-479A-9A1E-FB8352773663";
width = 600;
},
{
anchors = (
{
name = bottom;
position = "{273, 0}";
},
{
name = top;
position = "{273, 470}";
}
);
background = {
paths = (
{
closed = 1;
nodes = (
"135 501 LINE",
"70 501 LINE",
"70 -201 LINE",
"137 -201 LINE",
"137 49 LINE",
"162 14 OFFCURVE",
"207 -10 OFFCURVE",
"249 -10 CURVE SMOOTH",
"311 -10 LINE SMOOTH",
"423 -10 OFFCURVE",
"498 75 OFFCURVE",
"498 203 CURVE SMOOTH",
"498 330 LINE SMOOTH",
"498 436 OFFCURVE",
"431 507 OFFCURVE",
"337 507 CURVE SMOOTH",
"275 507 LINE SMOOTH",
"220 507 OFFCURVE",
"165 475 OFFCURVE",
"135 426 CURVE"
);
},
{
closed = 1;
nodes = (
"137 301 LINE",
"142 378 OFFCURVE",
"200 446 OFFCURVE",
"275 446 CURVE SMOOTH",
"337 446 LINE SMOOTH",
"391 446 OFFCURVE",
"431 400 OFFCURVE",
"431 330 CURVE SMOOTH",
"431 203 LINE SMOOTH",
"431 112 OFFCURVE",
"383 51 OFFCURVE",
"311 51 CURVE SMOOTH",
"249 51 LINE SMOOTH",
"196 51 OFFCURVE",
"142 103 OFFCURVE",
"137 168 CURVE"
);
}
);
};
layerId = "020CB1CC-CCFF-4D13-936A-D2256F19E5D3";
paths = (
{
closed = 1;
nodes = (
"122 -197 LINE",
"122 65 LINE",
"147 24 OFFCURVE",
"193 -4 OFFCURVE",
"236 -4 CURVE SMOOTH",
"300 -4 LINE SMOOTH",
"406 -4 OFFCURVE",
"478 80 OFFCURVE",
"478 205 CURVE SMOOTH",
"478 341 LINE SMOOTH",
"478 444 OFFCURVE",
"418 513 OFFCURVE",
"329 513 CURVE SMOOTH",
"273 513 LINE SMOOTH",
"214 513 OFFCURVE",
"156 479 OFFCURVE",
"124 426 CURVE",
"124 503 LINE",
"88 503 LINE",
"88 -197 LINE"
);
},
{
closed = 1;
nodes = (
"186 28 OFFCURVE",
"134 86 OFFCURVE",
"122 171 CURVE",
"122 333 LINE",
"147 423 OFFCURVE",
"211 482 OFFCURVE",
"279 482 CURVE SMOOTH",
"346 482 LINE SMOOTH",
"405 482 OFFCURVE",
"444 426 OFFCURVE",
"444 341 CURVE SMOOTH",
"444 205 LINE SMOOTH",
"444 99 OFFCURVE",
"391 28 OFFCURVE",
"312 28 CURVE SMOOTH",
"252 28 LINE SMOOTH"
);
}
);
width = 546;
},
{
associatedMasterId = "020CB1CC-CCFF-4D13-936A-D2256F19E5D3";
layerId = "4D4041F6-E48A-4310-8614-124B21729F1C";
width = 600;
},
{
anchors = (
{
name = bottom;
position = "{274, 0}";
},
{
name = top;
position = "{274, 470}";
}
);
layerId = "76C6DC51-463D-4A0C-B694-3EB424048C5D";
paths = (
{
closed = 1;
nodes = (
"142 -199 LINE",
"142 54 LINE",
"166 18 OFFCURVE",
"209 -6 OFFCURVE",
"249 -6 CURVE SMOOTH",
"311 -6 LINE SMOOTH",
"423 -6 OFFCURVE",
"498 79 OFFCURVE",
"498 207 CURVE SMOOTH",
"498 334 LINE SMOOTH",
"498 440 OFFCURVE",
"435 511 OFFCURVE",
"341 511 CURVE SMOOTH",
"279 511 LINE SMOOTH",
"225 511 OFFCURVE",
"170 479 OFFCURVE",
"140 430 CURVE",
"140 501 LINE",
"70 501 LINE",
"70 -199 LINE"
);
},
{
closed = 1;
nodes = (
"196 58 OFFCURVE",
"151 106 OFFCURVE",
"142 177 CURVE",
"142 314 LINE",
"161 394 OFFCURVE",
"216 447 OFFCURVE",
"279 447 CURVE SMOOTH",
"341 447 LINE SMOOTH",
"392 447 OFFCURVE",
"426 402 OFFCURVE",
"426 334 CURVE SMOOTH",
"426 207 LINE SMOOTH",
"426 118 OFFCURVE",
"380 58 OFFCURVE",
"311 58 CURVE SMOOTH",
"254 58 LINE SMOOTH"
);
}
);
width = 548;
}
);
note = p;
unicode = 0070;
},
{
glyphname = q;
lastChange = "2018-02-12 08:59:17 +0000";
layers = (
{
background = {
paths = (
{
closed = 1;
nodes = (
"408 -203 LINE",
"480 -203 LINE",
"480 501 LINE",
"410 501 LINE",
"410 442 LINE",
"383 483 OFFCURVE",
"342 507 OFFCURVE",
"302 507 CURVE SMOOTH",
"249 507 LINE SMOOTH",
"131 507 OFFCURVE",
"52 424 OFFCURVE",
"52 300 CURVE SMOOTH",
"52 167 LINE SMOOTH",
"52 61 OFFCURVE",
"115 -10 OFFCURVE",
"209 -10 CURVE SMOOTH",
"271 -10 LINE SMOOTH",
"326 -10 OFFCURVE",
"374 15 OFFCURVE",
"408 64 CURVE"
);
},
{
closed = 1;
nodes = (
"408 196 LINE",
"403 119 OFFCURVE",
"346 54 OFFCURVE",
"271 54 CURVE SMOOTH",
"209 54 LINE SMOOTH",
"155 54 OFFCURVE",
"124 97 OFFCURVE",
"124 167 CURVE SMOOTH",
"124 300 LINE SMOOTH",
"124 386 OFFCURVE",
"174 443 OFFCURVE",
"249 443 CURVE SMOOTH",
"302 443 LINE SMOOTH",
"355 443 OFFCURVE",
"403 390 OFFCURVE",
"408 325 CURVE"
);
}
);
};
layerId = "EA06CE92-4115-4482-8874-2441C279E756";
paths = (
{
closed = 1;
nodes = (
"376 -203 LINE",
"512 -203 LINE",
"512 501 LINE",
"386 501 LINE",
"386 441 LINE",
"360 481 OFFCURVE",
"315 507 OFFCURVE",
"274 507 CURVE SMOOTH",
"216 507 LINE SMOOTH",
"98 507 OFFCURVE",
"20 413 OFFCURVE",
"20 272 CURVE SMOOTH",
"20 195 LINE SMOOTH",
"20 72 OFFCURVE",
"96 -10 OFFCURVE",
"211 -10 CURVE SMOOTH",
"271 -10 LINE SMOOTH",
"305 -10 OFFCURVE",
"347 8 OFFCURVE",
"376 36 CURVE"
);
},
{
closed = 1;
nodes = (
"376 214 LINE",
"371 152 OFFCURVE",
"329 110 OFFCURVE",
"271 110 CURVE SMOOTH",
"211 110 LINE SMOOTH",
"178 110 OFFCURVE",
"156 144 OFFCURVE",
"156 195 CURVE SMOOTH",
"156 272 LINE SMOOTH",
"156 342 OFFCURVE",
"189 389 OFFCURVE",
"238 389 CURVE SMOOTH",
"294 389 LINE SMOOTH",
"339 389 OFFCURVE",
"372 355 OFFCURVE",
"376 304 CURVE"
);
}
);
width = 552;
},
{
associatedMasterId = "020CB1CC-CCFF-4D13-936A-D2256F19E5D3";
layerId = "8AF6BA7E-4672-4BE4-A9AE-4DB948958C2C";
width = 600;
},
{
associatedMasterId = "020CB1CC-CCFF-4D13-936A-D2256F19E5D3";
layerId = "FD3CABC1-744E-4369-8779-2240BBC6EE40";
width = 600;
},
{
background = {
paths = (
{
closed = 1;
nodes = (
"411 -203 LINE",
"478 -203 LINE",
"478 501 LINE",
"413 501 LINE",
"413 446 LINE",
"387 483 OFFCURVE",
"344 507 OFFCURVE",
"305 507 CURVE SMOOTH",
"243 507 LINE SMOOTH",
"127 507 OFFCURVE",
"50 422 OFFCURVE",
"50 294 CURVE SMOOTH",
"50 167 LINE SMOOTH",
"50 61 OFFCURVE",
"113 -10 OFFCURVE",
"207 -10 CURVE SMOOTH",
"269 -10 LINE SMOOTH",
"324 -10 OFFCURVE",
"381 22 OFFCURVE",
"411 71 CURVE"
);
},
{
closed = 1;
nodes = (
"411 196 LINE",
"406 119 OFFCURVE",
"344 51 OFFCURVE",
"269 51 CURVE SMOOTH",
"207 51 LINE SMOOTH",
"153 51 OFFCURVE",
"117 97 OFFCURVE",
"117 167 CURVE SMOOTH",
"117 294 LINE SMOOTH",
"117 385 OFFCURVE",
"167 446 OFFCURVE",
"243 446 CURVE SMOOTH",
"305 446 LINE SMOOTH",
"358 446 OFFCURVE",
"406 394 OFFCURVE",
"411 329 CURVE"
);
}
);
};
layerId = "020CB1CC-CCFF-4D13-936A-D2256F19E5D3";
paths = (
{
closed = 1;
nodes = (
"424 -203 LINE",
"458 -203 LINE",
"458 501 LINE",
"421 501 LINE",
"421 443 LINE",
"394 484 OFFCURVE",
"355 507 OFFCURVE",
"316 507 CURVE SMOOTH",
"266 507 LINE SMOOTH",
"148 507 OFFCURVE",
"68 431 OFFCURVE",
"68 317 CURVE SMOOTH",
"68 150 LINE SMOOTH",
"68 54 OFFCURVE",
"123 -10 OFFCURVE",
"205 -10 CURVE SMOOTH",
"268 -10 LINE SMOOTH",
"335 -10 OFFCURVE",
"387 19 OFFCURVE",
"424 81 CURVE"
);
},
{
closed = 1;
nodes = (
"424 185 LINE",
"419 99 OFFCURVE",
"353 20 OFFCURVE",
"268 20 CURVE SMOOTH",
"205 20 LINE SMOOTH",
"138 20 OFFCURVE",
"102 69 OFFCURVE",
"102 150 CURVE SMOOTH",
"102 317 LINE SMOOTH",
"102 412 OFFCURVE",
"162 475 OFFCURVE",
"252 475 CURVE SMOOTH",
"304 475 LINE SMOOTH",
"361 475 OFFCURVE",
"418 411 OFFCURVE",
"424 338 CURVE"
);
}
);
width = 546;
},
{
associatedMasterId = "020CB1CC-CCFF-4D13-936A-D2256F19E5D3";
layerId = "E532909E-AB0C-431B-A1C1-8AECADFB6509";
width = 600;
},
{
layerId = "76C6DC51-463D-4A0C-B694-3EB424048C5D";
paths = (
{
closed = 1;
nodes = (
"406 -203 LINE",
"478 -203 LINE",
"478 501 LINE",
"408 501 LINE",
"408 442 LINE",
"381 483 OFFCURVE",
"340 507 OFFCURVE",
"300 507 CURVE SMOOTH",
"247 507 LINE SMOOTH",
"129 507 OFFCURVE",
"50 424 OFFCURVE",
"50 300 CURVE SMOOTH",
"50 167 LINE SMOOTH",
"50 61 OFFCURVE",
"113 -10 OFFCURVE",
"207 -10 CURVE SMOOTH",
"269 -10 LINE SMOOTH",
"324 -10 OFFCURVE",
"372 15 OFFCURVE",
"406 64 CURVE"
);
},
{
closed = 1;
nodes = (
"406 196 LINE",
"401 119 OFFCURVE",
"344 54 OFFCURVE",
"269 54 CURVE SMOOTH",
"207 54 LINE SMOOTH",
"153 54 OFFCURVE",
"122 97 OFFCURVE",
"122 167 CURVE SMOOTH",
"122 300 LINE SMOOTH",
"122 386 OFFCURVE",
"172 443 OFFCURVE",
"247 443 CURVE SMOOTH",
"300 443 LINE SMOOTH",
"353 443 OFFCURVE",
"401 390 OFFCURVE",
"406 325 CURVE"
);
}
);
width = 548;
}
);
note = q;
unicode = 0071;
},
{
glyphname = r;
lastChange = "2018-02-12 08:59:17 +0000";
layers = (
{
anchors = (
{
name = bottom;
position = "{178, 0}";
},
{
name = top;
position = "{178, 470}";
}
);
background = {
paths = (
{
closed = 1;
nodes = (
"40 0 LINE",
"176 0 LINE",
"176 273 LINE SMOOTH",
"176 343 OFFCURVE",
"224 389 OFFCURVE",
"295 389 CURVE SMOOTH",
"361 389 LINE",
"361 507 LINE",
"295 507 LINE SMOOTH",
"245 507 OFFCURVE",
"194 481 OFFCURVE",
"166 443 CURVE",
"166 501 LINE",
"40 501 LINE"
);
}
);
};
layerId = "EA06CE92-4115-4482-8874-2441C279E756";
paths = (
{
closed = 1;
nodes = (
"40 0 LINE",
"176 0 LINE",
"176 271 LINE SMOOTH",
"176 338 OFFCURVE",
"224 383 OFFCURVE",
"295 383 CURVE SMOOTH",
"361 383 LINE",
"361 501 LINE",
"295 501 LINE SMOOTH",
"244 501 OFFCURVE",
"193 477 OFFCURVE",
"166 441 CURVE",
"166 501 LINE",
"40 501 LINE"
);
}
);
width = 361;
},
{
associatedMasterId = "020CB1CC-CCFF-4D13-936A-D2256F19E5D3";
layerId = "8AF6BA7E-4672-4BE4-A9AE-4DB948958C2C";
width = 600;
},
{
associatedMasterId = "020CB1CC-CCFF-4D13-936A-D2256F19E5D3";
layerId = "6CE3180D-0404-46DC-94B0-E3DB3C22A0E2";
width = 600;
},
{
anchors = (
{
name = bottom;
position = "{175, 0}";
},
{
name = top;
position = "{175, 470}";
}
);
layerId = "020CB1CC-CCFF-4D13-936A-D2256F19E5D3";
paths = (
{
closed = 1;
nodes = (
"88 0 LINE",
"122 0 LINE",
"122 319 LINE SMOOTH",
"122 416 OFFCURVE",
"182 481 OFFCURVE",
"276 481 CURVE SMOOTH",
"307 481 LINE",
"307 511 LINE",
"276 511 LINE SMOOTH",
"214 511 OFFCURVE",
"151 474 OFFCURVE",
"124 420 CURVE",
"124 501 LINE",
"88 501 LINE"
);
}
);
width = 347;
},
{
associatedMasterId = "020CB1CC-CCFF-4D13-936A-D2256F19E5D3";
layerId = "B10E8A80-0A7E-4C46-86F1-939F9A49D23F";
width = 600;
},
{
anchors = (
{
name = bottom;
position = "{176, 0}";
},
{
name = top;
position = "{176, 470}";
}
);
layerId = "76C6DC51-463D-4A0C-B694-3EB424048C5D";
paths = (
{
closed = 1;
nodes = (
"70 0 LINE",
"142 0 LINE",
"142 301 LINE SMOOTH",
"142 387 OFFCURVE",
"198 444 OFFCURVE",
"283 444 CURVE SMOOTH",
"327 444 LINE",
"327 507 LINE",
"283 507 LINE SMOOTH",
"225 507 OFFCURVE",
"167 475 OFFCURVE",
"140 428 CURVE",
"140 501 LINE",
"70 501 LINE"
);
}
);
width = 352;
}
);
note = r;
unicode = 0072;
},
{
glyphname = s;
lastChange = "2018-02-12 09:15:38 +0000";
layers = (
{
anchors = (
{
name = bottom;
position = "{255, 0}";
},
{
name = top;
position = "{255, 470}";
}
);
background = {
paths = (
{
closed = 1;
nodes = (
"339 207 LINE SMOOTH",
"371 202 OFFCURVE",
"393 180 OFFCURVE",
"393 152 CURVE SMOOTH",
"393 132 LINE SMOOTH",
"393 84 OFFCURVE",
"351 52 OFFCURVE",
"288 52 CURVE SMOOTH",
"207 52 LINE SMOOTH",
"152 52 OFFCURVE",
"115 90 OFFCURVE",
"115 146 CURVE",
"45 146 LINE",
"45 52 OFFCURVE",
"110 -10 OFFCURVE",
"207 -10 CURVE SMOOTH",
"288 -10 LINE SMOOTH",
"394 -10 OFFCURVE",
"465 48 OFFCURVE",
"465 134 CURVE SMOOTH",
"465 152 LINE SMOOTH",
"465 212 OFFCURVE",
"421 259 OFFCURVE",
"355 269 CURVE SMOOTH",
"185 295 LINE SMOOTH",
"150 301 OFFCURVE",
"126 324 OFFCURVE",
"126 352 CURVE SMOOTH",
"126 371 LINE SMOOTH",
"126 415 OFFCURVE",
"169 445 OFFCURVE",
"234 445 CURVE SMOOTH",
"297 445 LINE SMOOTH",
"346 445 OFFCURVE",
"379 412 OFFCURVE",
"380 363 CURVE",
"450 363 LINE",
"450 449 OFFCURVE",
"389 507 OFFCURVE",
"297 507 CURVE SMOOTH",
"234 507 LINE SMOOTH",
"126 507 OFFCURVE",
"54 452 OFFCURVE",
"54 370 CURVE SMOOTH",
"54 351 LINE SMOOTH",
"54 291 OFFCURVE",
"100 244 OFFCURVE",
"169 233 CURVE"
);
}
);
};
layerId = "EA06CE92-4115-4482-8874-2441C279E756";
paths = (
{
closed = 1;
nodes = (
"332 186 LINE SMOOTH",
"349 183 OFFCURVE",
"361 174 OFFCURVE",
"361 164 CURVE SMOOTH",
"361 148 LINE SMOOTH",
"361 123 OFFCURVE",
"332 106 OFFCURVE",
"288 106 CURVE SMOOTH",
"207 106 LINE SMOOTH",
"171 106 OFFCURVE",
"147 128 OFFCURVE",
"147 162 CURVE",
"15 162 LINE",
"15 59 OFFCURVE",
"92 -10 OFFCURVE",
"207 -10 CURVE SMOOTH",
"288 -10 LINE SMOOTH",
"413 -10 OFFCURVE",
"497 53 OFFCURVE",
"497 148 CURVE SMOOTH",
"497 166 LINE SMOOTH",
"497 231 OFFCURVE",
"445 275 OFFCURVE",
"358 289 CURVE SMOOTH",
"190 316 LINE SMOOTH",
"171 319 OFFCURVE",
"158 328 OFFCURVE",
"158 339 CURVE SMOOTH",
"158 355 LINE SMOOTH",
"158 377 OFFCURVE",
"188 391 OFFCURVE",
"234 391 CURVE SMOOTH",
"297 391 LINE SMOOTH",
"328 391 OFFCURVE",
"348 373 OFFCURVE",
"348 346 CURVE",
"480 346 LINE",
"480 443 OFFCURVE",
"407 507 OFFCURVE",
"297 507 CURVE SMOOTH",
"234 507 LINE SMOOTH",
"107 507 OFFCURVE",
"22 446 OFFCURVE",
"22 355 CURVE SMOOTH",
"22 337 LINE SMOOTH",
"22 272 OFFCURVE",
"75 226 OFFCURVE",
"164 212 CURVE SMOOTH"
);
}
);
width = 512;
},
{
associatedMasterId = "020CB1CC-CCFF-4D13-936A-D2256F19E5D3";
layerId = "8AF6BA7E-4672-4BE4-A9AE-4DB948958C2C";
width = 600;
},
{
associatedMasterId = "020CB1CC-CCFF-4D13-936A-D2256F19E5D3";
layerId = "CA90FAB9-7C2B-40F6-888F-658266802C14";
width = 600;
},
{
anchors = (
{
name = bottom;
position = "{255, 0}";
},
{
name = top;
position = "{255, 470}";
}
);
background = {
paths = (
{
closed = 1;
nodes = (
"339 209 LINE SMOOTH",
"374 204 OFFCURVE",
"398 181 OFFCURVE",
"398 152 CURVE SMOOTH",
"398 132 LINE SMOOTH",
"398 82 OFFCURVE",
"354 49 OFFCURVE",
"288 49 CURVE SMOOTH",
"207 49 LINE SMOOTH",
"149 49 OFFCURVE",
"111 88 OFFCURVE",
"111 146 CURVE",
"45 146 LINE",
"45 52 OFFCURVE",
"110 -10 OFFCURVE",
"207 -10 CURVE SMOOTH",
"288 -10 LINE SMOOTH",
"394 -10 OFFCURVE",
"465 48 OFFCURVE",
"465 134 CURVE SMOOTH",
"465 152 LINE SMOOTH",
"465 212 OFFCURVE",
"421 258 OFFCURVE",
"355 268 CURVE SMOOTH",
"185 294 LINE SMOOTH",
"147 300 OFFCURVE",
"121 323 OFFCURVE",
"121 352 CURVE SMOOTH",
"121 371 LINE SMOOTH",
"121 417 OFFCURVE",
"166 448 OFFCURVE",
"234 448 CURVE SMOOTH",
"297 448 LINE SMOOTH",
"346 448 OFFCURVE",
"380 414 OFFCURVE",
"381 363 CURVE",
"448 363 LINE",
"448 449 OFFCURVE",
"388 507 OFFCURVE",
"297 507 CURVE SMOOTH",
"234 507 LINE SMOOTH",
"126 507 OFFCURVE",
"54 452 OFFCURVE",
"54 370 CURVE SMOOTH",
"54 351 LINE SMOOTH",
"54 292 OFFCURVE",
"100 246 OFFCURVE",
"169 235 CURVE"
);
}
);
};
layerId = "020CB1CC-CCFF-4D13-936A-D2256F19E5D3";
paths = (
{
closed = 1;
nodes = (
"343 220 LINE SMOOTH",
"384 214 OFFCURVE",
"410 184 OFFCURVE",
"410 145 CURVE SMOOTH",
"410 122 LINE SMOOTH",
"410 61 OFFCURVE",
"362 24 OFFCURVE",
"288 24 CURVE SMOOTH",
"207 24 LINE SMOOTH",
"141 24 OFFCURVE",
"99 67 OFFCURVE",
"99 136 CURVE",
"63 136 LINE",
"63 48 OFFCURVE",
"121 -10 OFFCURVE",
"207 -10 CURVE SMOOTH",
"288 -10 LINE SMOOTH",
"383 -10 OFFCURVE",
"446 45 OFFCURVE",
"446 126 CURVE SMOOTH",
"446 144 LINE SMOOTH",
"446 201 OFFCURVE",
"406 249 OFFCURVE",
"353 257 CURVE SMOOTH",
"182 283 LINE SMOOTH",
"137 290 OFFCURVE",
"109 322 OFFCURVE",
"109 360 CURVE SMOOTH",
"109 381 LINE SMOOTH",
"109 438 OFFCURVE",
"158 473 OFFCURVE",
"234 473 CURVE SMOOTH",
"297 473 LINE SMOOTH",
"357 473 OFFCURVE",
"395 435 OFFCURVE",
"396 373 CURVE",
"432 373 LINE",
"432 453 OFFCURVE",
"378 507 OFFCURVE",
"297 507 CURVE SMOOTH",
"234 507 LINE SMOOTH",
"137 507 OFFCURVE",
"73 456 OFFCURVE",
"73 379 CURVE SMOOTH",
"73 359 LINE SMOOTH",
"73 302 OFFCURVE",
"115 255 OFFCURVE",
"172 246 CURVE"
);
}
);
width = 509;
},
{
associatedMasterId = "020CB1CC-CCFF-4D13-936A-D2256F19E5D3";
layerId = "992EEB1C-C872-42CF-A804-9DBAF5E47250";
width = 600;
},
{
anchors = (
{
name = bottom;
position = "{255, 0}";
},
{
name = top;
position = "{255, 470}";
}
);
layerId = "76C6DC51-463D-4A0C-B694-3EB424048C5D";
paths = (
{
closed = 1;
nodes = (
"339 207 LINE SMOOTH",
"371 202 OFFCURVE",
"393 180 OFFCURVE",
"393 152 CURVE SMOOTH",
"393 132 LINE SMOOTH",
"393 84 OFFCURVE",
"351 52 OFFCURVE",
"288 52 CURVE SMOOTH",
"207 52 LINE SMOOTH",
"152 52 OFFCURVE",
"115 90 OFFCURVE",
"115 146 CURVE",
"45 146 LINE",
"45 52 OFFCURVE",
"110 -10 OFFCURVE",
"207 -10 CURVE SMOOTH",
"288 -10 LINE SMOOTH",
"394 -10 OFFCURVE",
"465 48 OFFCURVE",
"465 134 CURVE SMOOTH",
"465 152 LINE SMOOTH",
"465 212 OFFCURVE",
"421 259 OFFCURVE",
"355 269 CURVE SMOOTH",
"185 295 LINE SMOOTH",
"150 301 OFFCURVE",
"126 324 OFFCURVE",
"126 352 CURVE SMOOTH",
"126 371 LINE SMOOTH",
"126 415 OFFCURVE",
"169 445 OFFCURVE",
"234 445 CURVE SMOOTH",
"297 445 LINE SMOOTH",
"346 445 OFFCURVE",
"379 412 OFFCURVE",
"380 363 CURVE",
"450 363 LINE",
"450 449 OFFCURVE",
"389 507 OFFCURVE",
"297 507 CURVE SMOOTH",
"234 507 LINE SMOOTH",
"126 507 OFFCURVE",
"54 452 OFFCURVE",
"54 370 CURVE SMOOTH",
"54 351 LINE SMOOTH",
"54 291 OFFCURVE",
"100 244 OFFCURVE",
"169 233 CURVE"
);
}
);
width = 510;
}
);
note = s;
unicode = 0073;
},
{
glyphname = t;
lastChange = "2018-02-12 08:59:17 +0000";
layers = (
{
anchors = (
{
name = bottom;
position = "{174, 0}";
},
{
name = center;
position = "{174, 235}";
},
{
name = top;
position = "{174, 470}";
},
{
name = topright;
position = "{326, 470}";
}
);
background = {
paths = (
{
closed = 1;
nodes = (
"119 439 LINE",
"32 439 LINE",
"32 501 LINE",
"119 501 LINE",
"119 700 LINE",
"191 700 LINE",
"191 501 LINE",
"311 501 LINE",
"311 439 LINE",
"191 439 LINE",
"191 146 LINE SMOOTH",
"191 86 OFFCURVE",
"213 64 OFFCURVE",
"267 64 CURVE SMOOTH",
"311 64 LINE",
"311 0 LINE",
"267 0 LINE SMOOTH",
"161 0 OFFCURVE",
"119 42 OFFCURVE",
"119 146 CURVE SMOOTH"
);
}
);
};
layerId = "EA06CE92-4115-4482-8874-2441C279E756";
paths = (
{
closed = 1;
nodes = (
"343 0 LINE",
"343 118 LINE",
"267 118 LINE SMOOTH",
"236 118 OFFCURVE",
"223 134 OFFCURVE",
"223 174 CURVE SMOOTH",
"223 383 LINE",
"343 383 LINE",
"343 501 LINE",
"223 501 LINE",
"223 651 LINE",
"87 651 LINE",
"87 501 LINE",
"0 501 LINE",
"0 383 LINE",
"87 383 LINE",
"87 174 LINE SMOOTH",
"87 50 OFFCURVE",
"138 0 OFFCURVE",
"267 0 CURVE SMOOTH"
);
}
);
width = 363;
},
{
associatedMasterId = "020CB1CC-CCFF-4D13-936A-D2256F19E5D3";
layerId = "8AF6BA7E-4672-4BE4-A9AE-4DB948958C2C";
width = 600;
},
{
associatedMasterId = "020CB1CC-CCFF-4D13-936A-D2256F19E5D3";
layerId = "63A305DA-24A4-445B-99F6-70B1FE659541";
width = 600;
},
{
anchors = (
{
name = bottom;
position = "{171, -141}";
},
{
name = center;
position = "{171, 376}";
},
{
name = top;
position = "{171, 470}";
},
{
name = topright;
position = "{323, 470}";
}
);
background = {
paths = (
{
closed = 1;
nodes = (
"117 439 LINE",
"30 439 LINE",
"30 501 LINE",
"117 501 LINE",
"117 700 LINE",
"189 700 LINE",
"189 501 LINE",
"309 501 LINE",
"309 439 LINE",
"189 439 LINE",
"189 146 LINE SMOOTH",
"189 86 OFFCURVE",
"211 64 OFFCURVE",
"265 64 CURVE SMOOTH",
"309 64 LINE",
"309 0 LINE",
"265 0 LINE SMOOTH",
"159 0 OFFCURVE",
"117 42 OFFCURVE",
"117 146 CURVE SMOOTH"
);
}
);
};
layerId = "020CB1CC-CCFF-4D13-936A-D2256F19E5D3";
paths = (
{
closed = 1;
nodes = (
"289 0 LINE",
"289 32 LINE",
"264 32 LINE SMOOTH",
"196 32 OFFCURVE",
"169 59 OFFCURVE",
"169 129 CURVE SMOOTH",
"169 469 LINE",
"289 469 LINE",
"289 501 LINE",
"169 501 LINE",
"169 649 LINE",
"135 649 LINE",
"135 501 LINE",
"48 501 LINE",
"48 469 LINE",
"135 469 LINE",
"135 129 LINE SMOOTH",
"135 37 OFFCURVE",
"172 0 OFFCURVE",
"264 0 CURVE SMOOTH"
);
}
);
width = 333;
},
{
associatedMasterId = "020CB1CC-CCFF-4D13-936A-D2256F19E5D3";
layerId = "7E091DFF-4E05-4888-B536-173E6B1D6610";
width = 600;
},
{
anchors = (
{
name = bottom;
position = "{172, 0}";
},
{
name = center;
position = "{172, 235}";
},
{
name = top;
position = "{172, 470}";
},
{
name = topright;
position = "{324, 470}";
}
);
layerId = "76C6DC51-463D-4A0C-B694-3EB424048C5D";
paths = (
{
closed = 1;
nodes = (
"309 0 LINE",
"309 64 LINE",
"265 64 LINE SMOOTH",
"211 64 OFFCURVE",
"189 87 OFFCURVE",
"189 146 CURVE SMOOTH",
"189 437 LINE",
"309 437 LINE",
"309 501 LINE",
"189 501 LINE",
"189 650 LINE",
"117 650 LINE",
"117 501 LINE",
"30 501 LINE",
"30 437 LINE",
"117 437 LINE",
"117 146 LINE SMOOTH",
"117 42 OFFCURVE",
"159 0 OFFCURVE",
"265 0 CURVE SMOOTH"
);
}
);
width = 344;
}
);
note = t;
unicode = 0074;
},
{
glyphname = u;
lastChange = "2018-02-12 08:59:17 +0000";
layers = (
{
anchors = (
{
name = bottom;
position = "{276, 0}";
},
{
name = ogonek;
position = "{498, 10}";
},
{
name = top;
position = "{276, 470}";
},
{
name = topright;
position = "{534, 470}";
}
);
background = {
paths = (
{
closed = 1;
nodes = (
"171 501 LINE",
"35 501 LINE",
"35 189 LINE SMOOTH",
"35 70 OFFCURVE",
"110 -10 OFFCURVE",
"223 -10 CURVE SMOOTH",
"284 -10 LINE SMOOTH",
"319 -10 OFFCURVE",
"362 17 OFFCURVE",
"393 57 CURVE",
"393 0 LINE",
"521 0 LINE",
"521 501 LINE",
"385 501 LINE",
"385 210 LINE",
"371 149 OFFCURVE",
"330 108 OFFCURVE",
"284 108 CURVE SMOOTH",
"223 108 LINE SMOOTH",
"192 108 OFFCURVE",
"171 139 OFFCURVE",
"171 186 CURVE SMOOTH"
);
}
);
};
layerId = "EA06CE92-4115-4482-8874-2441C279E756";
paths = (
{
closed = 1;
nodes = (
"171 501 LINE",
"35 501 LINE",
"35 181 LINE SMOOTH",
"35 66 OFFCURVE",
"105 -10 OFFCURVE",
"210 -10 CURVE SMOOTH",
"272 -10 LINE SMOOTH",
"312 -10 OFFCURVE",
"360 17 OFFCURVE",
"393 58 CURVE",
"393 0 LINE",
"521 0 LINE",
"521 501 LINE",
"385 501 LINE",
"385 204 LINE",
"372 148 OFFCURVE",
"328 110 OFFCURVE",
"274 110 CURVE SMOOTH",
"225 110 LINE SMOOTH",
"193 110 OFFCURVE",
"171 138 OFFCURVE",
"171 181 CURVE SMOOTH"
);
}
);
width = 561;
},
{
associatedMasterId = "020CB1CC-CCFF-4D13-936A-D2256F19E5D3";
layerId = "8AF6BA7E-4672-4BE4-A9AE-4DB948958C2C";
width = 600;
},
{
associatedMasterId = "020CB1CC-CCFF-4D13-936A-D2256F19E5D3";
layerId = "229F074A-ECAB-42F7-8200-F4586F81301F";
width = 600;
},
{
anchors = (
{
name = bottom;
position = "{281, 0}";
},
{
name = ogonek;
position = "{503, 10}";
},
{
name = top;
position = "{281, 470}";
},
{
name = topright;
position = "{539, 470}";
}
);
background = {
paths = (
{
closed = 1;
nodes = (
"142 501 LINE",
"70 501 LINE",
"70 165 LINE SMOOTH",
"70 62 OFFCURVE",
"132 -6 OFFCURVE",
"226 -6 CURVE SMOOTH",
"287 -6 LINE SMOOTH",
"337 -6 OFFCURVE",
"390 24 OFFCURVE",
"422 68 CURVE",
"422 0 LINE",
"492 0 LINE",
"492 501 LINE",
"420 501 LINE",
"420 177 LINE",
"403 113 OFFCURVE",
"350 58 OFFCURVE",
"287 58 CURVE SMOOTH",
"226 58 LINE SMOOTH",
"176 58 OFFCURVE",
"142 100 OFFCURVE",
"142 162 CURVE SMOOTH"
);
}
);
};
layerId = "020CB1CC-CCFF-4D13-936A-D2256F19E5D3";
paths = (
{
closed = 1;
nodes = (
"125 501 LINE",
"91 501 LINE",
"91 149 LINE SMOOTH",
"91 53 OFFCURVE",
"148 -10 OFFCURVE",
"236 -10 CURVE SMOOTH",
"296 -10 LINE SMOOTH",
"352 -10 OFFCURVE",
"408 31 OFFCURVE",
"439 77 CURVE",
"439 0 LINE",
"475 0 LINE",
"475 501 LINE",
"441 501 LINE",
"441 164 LINE",
"422 98 OFFCURVE",
"363 20 OFFCURVE",
"295 20 CURVE SMOOTH",
"227 20 LINE SMOOTH",
"166 20 OFFCURVE",
"125 71 OFFCURVE",
"125 144 CURVE SMOOTH"
);
}
);
width = 555;
},
{
associatedMasterId = "020CB1CC-CCFF-4D13-936A-D2256F19E5D3";
layerId = "5DFE651B-3114-48B1-89EA-65EBA87DF4ED";
width = 600;
},
{
anchors = (
{
name = bottom;
position = "{279, 0}";
},
{
name = ogonek;
position = "{501, 10}";
},
{
name = top;
position = "{279, 470}";
},
{
name = topright;
position = "{537, 470}";
}
);
layerId = "76C6DC51-463D-4A0C-B694-3EB424048C5D";
paths = (
{
closed = 1;
nodes = (
"142 501 LINE",
"70 501 LINE",
"70 161 LINE SMOOTH",
"70 58 OFFCURVE",
"132 -10 OFFCURVE",
"226 -10 CURVE SMOOTH",
"287 -10 LINE SMOOTH",
"337 -10 OFFCURVE",
"390 26 OFFCURVE",
"422 70 CURVE",
"422 0 LINE",
"492 0 LINE",
"492 501 LINE",
"420 501 LINE",
"420 179 LINE",
"403 117 OFFCURVE",
"350 54 OFFCURVE",
"287 54 CURVE SMOOTH",
"226 54 LINE SMOOTH",
"176 54 OFFCURVE",
"142 96 OFFCURVE",
"142 158 CURVE SMOOTH"
);
}
);
width = 557;
}
);
note = u;
unicode = 0075;
},
{
glyphname = v;
lastChange = "2018-02-12 09:15:00 +0000";
layers = (
{
anchors = (
{
name = bottom;
position = "{261, 0}";
},
{
name = top;
position = "{261, 470}";
}
);
background = {
paths = (
{
closed = 1;
nodes = (
"522 501 LINE",
"381 501 LINE",
"261 166 LINE",
"260 166 LINE",
"142 501 LINE",
"0 501 LINE",
"166 79 LINE SMOOTH",
"189 21 OFFCURVE",
"221 -6 OFFCURVE",
"264 -6 CURVE SMOOTH",
"320 -6 LINE"
);
}
);
};
layerId = "EA06CE92-4115-4482-8874-2441C279E756";
paths = (
{
closed = 1;
nodes = (
"522 501 LINE",
"381 501 LINE",
"246 124 LINE",
"276 124 LINE",
"142 501 LINE",
"0 501 LINE",
"172 65 LINE SMOOTH",
"189 20 OFFCURVE",
"215 0 OFFCURVE",
"254 0 CURVE SMOOTH",
"322 0 LINE"
);
}
);
width = 522;
},
{
associatedMasterId = "020CB1CC-CCFF-4D13-936A-D2256F19E5D3";
layerId = "8AF6BA7E-4672-4BE4-A9AE-4DB948958C2C";
width = 600;
},
{
associatedMasterId = "020CB1CC-CCFF-4D13-936A-D2256F19E5D3";
layerId = "1CDD641D-C439-4491-9829-91DE26DDB4D6";
width = 600;
},
{
anchors = (
{
name = bottom;
position = "{255, 0}";
},
{
name = top;
position = "{255, 470}";
}
);
background = {
paths = (
{
closed = 1;
nodes = (
"484 501 LINE",
"408 501 LINE",
"257 79 LINE",
"256 79 LINE",
"106 501 LINE",
"30 501 LINE",
"195 59 LINE SMOOTH",
"214 8 OFFCURVE",
"231 -10 OFFCURVE",
"265 -10 CURVE SMOOTH",
"289 -10 LINE"
);
}
);
};
layerId = "020CB1CC-CCFF-4D13-936A-D2256F19E5D3";
paths = (
{
closed = 1;
nodes = (
"461 501 LINE",
"424 501 LINE",
"264 52 LINE",
"244 52 LINE",
"84 501 LINE",
"48 501 LINE",
"214 43 LINE SMOOTH",
"225 14 OFFCURVE",
"241 0 OFFCURVE",
"262 0 CURVE SMOOTH",
"276 0 LINE"
);
}
);
width = 509;
},
{
associatedMasterId = "020CB1CC-CCFF-4D13-936A-D2256F19E5D3";
layerId = "EA70CE9C-58A8-4CE3-9DC4-A40E56F9BA8C";
width = 600;
},
{
anchors = (
{
name = bottom;
position = "{257, 0}";
},
{
name = top;
position = "{257, 470}";
}
);
layerId = "76C6DC51-463D-4A0C-B694-3EB424048C5D";
paths = (
{
closed = 1;
nodes = (
"484 501 LINE",
"408 501 LINE",
"257 79 LINE",
"256 79 LINE",
"106 501 LINE",
"30 501 LINE",
"198 51 LINE SMOOTH",
"212 16 OFFCURVE",
"231 0 OFFCURVE",
"259 0 CURVE SMOOTH",
"293 0 LINE"
);
}
);
width = 514;
}
);
note = v;
unicode = 0076;
},
{
glyphname = w;
lastChange = "2018-02-12 08:59:17 +0000";
layers = (
{
anchors = (
{
name = bottom;
position = "{363, 0}";
},
{
name = top;
position = "{363, 470}";
}
);
background = {
paths = (
{
closed = 1;
nodes = (
"255 0 LINE",
"365 316 LINE",
"471 0 LINE",
"528 0 LINE SMOOTH",
"573 0 OFFCURVE",
"600 25 OFFCURVE",
"614 78 CURVE SMOOTH",
"725 501 LINE",
"585 501 LINE",
"504 150 LINE",
"528 151 LINE",
"429 446 LINE SMOOTH",
"419 474 OFFCURVE",
"401 487 OFFCURVE",
"370 487 CURVE SMOOTH",
"313 487 LINE",
"197 150 LINE",
"222 149 LINE",
"140 501 LINE",
"0 501 LINE",
"113 78 LINE SMOOTH",
"128 25 OFFCURVE",
"155 0 OFFCURVE",
"199 0 CURVE SMOOTH"
);
}
);
};
layerId = "EA06CE92-4115-4482-8874-2441C279E756";
paths = (
{
closed = 1;
nodes = (
"255 0 LINE",
"365 316 LINE",
"471 0 LINE",
"528 0 LINE SMOOTH",
"573 0 OFFCURVE",
"600 25 OFFCURVE",
"614 78 CURVE SMOOTH",
"725 501 LINE",
"585 501 LINE",
"505 150 LINE",
"527 151 LINE",
"429 446 LINE SMOOTH",
"420 474 OFFCURVE",
"401 487 OFFCURVE",
"370 487 CURVE SMOOTH",
"313 487 LINE",
"198 150 LINE",
"221 149 LINE",
"140 501 LINE",
"0 501 LINE",
"113 78 LINE SMOOTH",
"127 25 OFFCURVE",
"155 0 OFFCURVE",
"199 0 CURVE SMOOTH"
);
}
);
width = 725;
},
{
associatedMasterId = "020CB1CC-CCFF-4D13-936A-D2256F19E5D3";
layerId = "8AF6BA7E-4672-4BE4-A9AE-4DB948958C2C";
width = 600;
},
{
associatedMasterId = "020CB1CC-CCFF-4D13-936A-D2256F19E5D3";
layerId = "0C70D5BA-42DE-425B-A154-802EC4F123A4";
width = 600;
},
{
anchors = (
{
name = bottom;
position = "{358, 0}";
},
{
name = top;
position = "{358, 470}";
}
);
background = {
paths = (
{
closed = 1;
nodes = (
"230 -10 LINE",
"362 377 LINE",
"490 -10 LINE",
"512 -10 LINE SMOOTH",
"551 -10 OFFCURVE",
"569 7 OFFCURVE",
"581 58 CURVE SMOOTH",
"689 501 LINE",
"613 501 LINE",
"521 82 LINE",
"399 455 LINE SMOOTH",
"391 479 OFFCURVE",
"377 487 OFFCURVE",
"357 487 CURVE SMOOTH",
"334 487 LINE",
"199 82 LINE",
"106 501 LINE",
"30 501 LINE",
"139 58 LINE SMOOTH",
"151 7 OFFCURVE",
"169 -10 OFFCURVE",
"206 -10 CURVE SMOOTH"
);
}
);
};
layerId = "020CB1CC-CCFF-4D13-936A-D2256F19E5D3";
paths = (
{
closed = 1;
nodes = (
"220 0 LINE",
"360 417 LINE",
"497 0 LINE",
"517 0 LINE SMOOTH",
"541 0 OFFCURVE",
"555 14 OFFCURVE",
"562 46 CURVE SMOOTH",
"667 501 LINE",
"630 501 LINE",
"515 -28 LINE",
"539 -28 LINE",
"381 460 LINE SMOOTH",
"375 478 OFFCURVE",
"367 487 OFFCURVE",
"354 487 CURVE SMOOTH",
"347 487 LINE",
"182 -13 LINE",
"197 -13 LINE",
"86 501 LINE",
"48 501 LINE",
"154 46 LINE SMOOTH",
"162 14 OFFCURVE",
"176 0 OFFCURVE",
"199 0 CURVE SMOOTH"
);
}
);
width = 715;
},
{
associatedMasterId = "020CB1CC-CCFF-4D13-936A-D2256F19E5D3";
layerId = "41C6E2AC-87D1-4C4B-83DE-767115DB1E07";
width = 600;
},
{
anchors = (
{
name = bottom;
position = "{360, 0}";
},
{
name = top;
position = "{360, 470}";
}
);
layerId = "76C6DC51-463D-4A0C-B694-3EB424048C5D";
paths = (
{
closed = 1;
nodes = (
"233 0 LINE",
"362 379 LINE",
"487 0 LINE",
"521 0 LINE SMOOTH",
"553 0 OFFCURVE",
"572 18 OFFCURVE",
"581 58 CURVE SMOOTH",
"689 501 LINE",
"613 501 LINE",
"511 39 LINE",
"535 39 LINE",
"399 455 LINE SMOOTH",
"392 477 OFFCURVE",
"380 487 OFFCURVE",
"360 487 CURVE SMOOTH",
"334 487 LINE",
"188 48 LINE",
"206 48 LINE",
"106 501 LINE",
"30 501 LINE",
"139 58 LINE SMOOTH",
"149 18 OFFCURVE",
"168 0 OFFCURVE",
"199 0 CURVE SMOOTH"
);
}
);
width = 719;
}
);
note = w;
unicode = 0077;
},
{
glyphname = x;
lastChange = "2018-02-12 08:59:17 +0000";
layers = (
{
anchors = (
{
name = bottom;
position = "{276, 0}";
},
{
name = top;
position = "{276, 470}";
}
);
background = {
paths = (
{
closed = 1;
nodes = (
"404 -28 LINE",
"562 -28 LINE",
"150 529 LINE",
"-8 529 LINE"
);
},
{
closed = 1;
nodes = (
"402 529 LINE",
"-10 -28 LINE",
"148 -28 LINE",
"560 529 LINE"
);
}
);
};
layerId = "EA06CE92-4115-4482-8874-2441C279E756";
paths = (
{
closed = 1;
nodes = (
"388 0 LINE",
"544 0 LINE",
"169 501 LINE",
"13 501 LINE"
);
},
{
closed = 1;
nodes = (
"383 501 LINE",
"8 0 LINE",
"164 0 LINE",
"539 501 LINE"
);
}
);
width = 552;
},
{
associatedMasterId = "020CB1CC-CCFF-4D13-936A-D2256F19E5D3";
layerId = "8AF6BA7E-4672-4BE4-A9AE-4DB948958C2C";
width = 600;
},
{
associatedMasterId = "020CB1CC-CCFF-4D13-936A-D2256F19E5D3";
layerId = "3BD25D80-F6F9-47A6-88C6-E46E9006D3EB";
width = 600;
},
{
anchors = (
{
name = bottom;
position = "{261, 0}";
},
{
name = top;
position = "{261, 470}";
}
);
background = {
paths = (
{
closed = 1;
nodes = (
"250 314 LINE",
"106 500 LINE",
"23 500 LINE",
"206 264 LINE",
"-3 0 LINE",
"81 0 LINE",
"250 214 LINE",
"421 0 LINE",
"505 0 LINE",
"294 264 LINE",
"478 500 LINE",
"396 500 LINE"
);
}
);
};
layerId = "020CB1CC-CCFF-4D13-936A-D2256F19E5D3";
paths = (
{
closed = 1;
nodes = (
"426 0 LINE",
"464 0 LINE",
"97 501 LINE",
"59 501 LINE"
);
},
{
closed = 1;
nodes = (
"426 501 LINE",
"59 0 LINE",
"97 0 LINE",
"464 501 LINE"
);
}
);
width = 523;
},
{
associatedMasterId = "020CB1CC-CCFF-4D13-936A-D2256F19E5D3";
layerId = "C17673C5-702D-4EB6-BC60-244C49B39EF9";
width = 600;
},
{
anchors = (
{
name = bottom;
position = "{267, 0}";
},
{
name = top;
position = "{267, 470}";
}
);
layerId = "76C6DC51-463D-4A0C-B694-3EB424048C5D";
paths = (
{
closed = 1;
nodes = (
"412 0 LINE",
"494 0 LINE",
"124 501 LINE",
"42 501 LINE"
);
},
{
closed = 1;
nodes = (
"410 501 LINE",
"40 0 LINE",
"122 0 LINE",
"492 501 LINE"
);
}
);
width = 534;
}
);
note = x;
unicode = 0078;
},
{
glyphname = y;
lastChange = "2018-02-12 08:59:17 +0000";
layers = (
{
anchors = (
{
name = bottom;
position = "{278, 0}";
},
{
name = top;
position = "{278, 470}";
}
);
background = {
paths = (
{
closed = 1;
nodes = (
"390 -71 OFFCURVE",
"355 -111 OFFCURVE",
"300 -111 CURVE SMOOTH",
"241 -111 LINE SMOOTH",
"208 -111 OFFCURVE",
"186 -83 OFFCURVE",
"189 -38 CURVE",
"53 -38 LINE",
"48 -149 OFFCURVE",
"129 -229 OFFCURVE",
"241 -229 CURVE SMOOTH",
"300 -229 LINE SMOOTH",
"434 -229 OFFCURVE",
"526 -139 OFFCURVE",
"526 -8 CURVE SMOOTH",
"526 501 LINE",
"390 501 LINE",
"390 215 LINE",
"374 160 OFFCURVE",
"331 121 OFFCURVE",
"289 121 CURVE SMOOTH",
"228 121 LINE SMOOTH",
"197 121 OFFCURVE",
"176 150 OFFCURVE",
"176 197 CURVE SMOOTH",
"176 501 LINE",
"40 501 LINE",
"40 200 LINE SMOOTH",
"40 81 OFFCURVE",
"116 1 OFFCURVE",
"228 1 CURVE SMOOTH",
"289 1 LINE SMOOTH",
"324 1 OFFCURVE",
"359 12 OFFCURVE",
"390 31 CURVE",
"390 -8 LINE SMOOTH"
);
}
);
};
layerId = "EA06CE92-4115-4482-8874-2441C279E756";
paths = (
{
closed = 1;
nodes = (
"300 -209 LINE SMOOTH",
"436 -209 OFFCURVE",
"526 -125 OFFCURVE",
"526 2 CURVE SMOOTH",
"526 501 LINE",
"390 501 LINE",
"390 234 LINE",
"377 178 OFFCURVE",
"333 140 OFFCURVE",
"279 140 CURVE SMOOTH",
"230 140 LINE SMOOTH",
"198 140 OFFCURVE",
"176 168 OFFCURVE",
"176 211 CURVE SMOOTH",
"176 501 LINE",
"40 501 LINE",
"40 211 LINE SMOOTH",
"40 96 OFFCURVE",
"110 20 OFFCURVE",
"215 20 CURVE SMOOTH",
"275 20 LINE SMOOTH",
"317 20 OFFCURVE",
"363 42 OFFCURVE",
"390 75 CURVE",
"390 2 LINE SMOOTH",
"390 -55 OFFCURVE",
"354 -93 OFFCURVE",
"300 -93 CURVE SMOOTH",
"242 -93 LINE SMOOTH",
"213 -93 OFFCURVE",
"191 -72 OFFCURVE",
"188 -40 CURVE",
"54 -40 LINE",
"62 -141 OFFCURVE",
"137 -209 OFFCURVE",
"242 -209 CURVE SMOOTH"
);
}
);
width = 566;
},
{
associatedMasterId = "020CB1CC-CCFF-4D13-936A-D2256F19E5D3";
layerId = "8AF6BA7E-4672-4BE4-A9AE-4DB948958C2C";
width = 600;
},
{
associatedMasterId = "020CB1CC-CCFF-4D13-936A-D2256F19E5D3";
layerId = "1DE2ACED-C951-41FA-91D9-DB1EC7FB3586";
width = 600;
},
{
anchors = (
{
name = bottom;
position = "{259, 0}";
},
{
name = top;
position = "{259, 470}";
}
);
background = {
paths = (
{
closed = 0;
nodes = (
"482 35 LINE",
"482 501 LINE",
"410 501 LINE",
"410 212 LINE",
"393 148 OFFCURVE",
"340 93 OFFCURVE",
"277 93 CURVE SMOOTH",
"216 93 LINE SMOOTH",
"166 93 OFFCURVE",
"132 135 OFFCURVE",
"132 197 CURVE SMOOTH",
"132 501 LINE",
"60 501 LINE",
"60 200 LINE SMOOTH",
"60 97 OFFCURVE",
"122 29 OFFCURVE",
"216 29 CURVE SMOOTH",
"277 29 LINE SMOOTH",
"327 29 OFFCURVE",
"380 59 OFFCURVE",
"412 103 CURVE",
"412 35 LINE"
);
},
{
closed = 0;
nodes = (
"410 -8 LINE"
);
}
);
};
layerId = "020CB1CC-CCFF-4D13-936A-D2256F19E5D3";
paths = (
{
closed = 1;
nodes = (
"281 -196 LINE SMOOTH",
"385 -196 OFFCURVE",
"456 -123 OFFCURVE",
"456 -14 CURVE SMOOTH",
"456 501 LINE",
"422 501 LINE",
"422 199 LINE",
"403 130 OFFCURVE",
"344 65 OFFCURVE",
"276 65 CURVE SMOOTH",
"208 65 LINE SMOOTH",
"147 65 OFFCURVE",
"106 115 OFFCURVE",
"106 189 CURVE SMOOTH",
"106 501 LINE",
"72 501 LINE",
"72 193 LINE SMOOTH",
"72 98 OFFCURVE",
"129 34 OFFCURVE",
"217 34 CURVE SMOOTH",
"278 34 LINE SMOOTH",
"333 34 OFFCURVE",
"387 66 OFFCURVE",
"422 117 CURVE",
"422 -14 LINE SMOOTH",
"422 -106 OFFCURVE",
"365 -167 OFFCURVE",
"281 -167 CURVE SMOOTH",
"221 -167 LINE SMOOTH",
"170 -167 OFFCURVE",
"130 -133 OFFCURVE",
"121 -82 CURVE",
"86 -82 LINE",
"94 -151 OFFCURVE",
"148 -196 OFFCURVE",
"221 -196 CURVE SMOOTH"
);
}
);
width = 544;
},
{
associatedMasterId = "020CB1CC-CCFF-4D13-936A-D2256F19E5D3";
layerId = "6787A882-6EE3-401F-B279-2FCD018E7A01";
width = 600;
},
{
anchors = (
{
name = bottom;
position = "{266, 0}";
},
{
name = top;
position = "{266, 470}";
}
);
layerId = "76C6DC51-463D-4A0C-B694-3EB424048C5D";
paths = (
{
closed = 1;
nodes = (
"288 -201 LINE SMOOTH",
"404 -201 OFFCURVE",
"482 -124 OFFCURVE",
"482 -8 CURVE SMOOTH",
"482 501 LINE",
"410 501 LINE",
"410 212 LINE",
"393 148 OFFCURVE",
"340 93 OFFCURVE",
"277 93 CURVE SMOOTH",
"216 93 LINE SMOOTH",
"166 93 OFFCURVE",
"132 135 OFFCURVE",
"132 197 CURVE SMOOTH",
"132 501 LINE",
"60 501 LINE",
"60 200 LINE SMOOTH",
"60 97 OFFCURVE",
"122 29 OFFCURVE",
"216 29 CURVE SMOOTH",
"277 29 LINE SMOOTH",
"327 29 OFFCURVE",
"378 57 OFFCURVE",
"410 101 CURVE",
"410 -8 LINE SMOOTH",
"410 -87 OFFCURVE",
"361 -139 OFFCURVE",
"288 -139 CURVE SMOOTH",
"229 -139 LINE SMOOTH",
"186 -139 OFFCURVE",
"153 -110 OFFCURVE",
"146 -66 CURVE",
"74 -66 LINE",
"82 -147 OFFCURVE",
"144 -201 OFFCURVE",
"229 -201 CURVE SMOOTH"
);
}
);
width = 552;
}
);
note = y;
unicode = 0079;
},
{
glyphname = z;
lastChange = "2018-02-12 08:59:17 +0000";
layers = (
{
anchors = (
{
name = bottom;
position = "{244, 0}";
},
{
name = top;
position = "{244, 470}";
}
);
background = {
paths = (
{
closed = 1;
nodes = (
"467 112 LINE",
"206 112 LINE",
"472 433 LINE",
"472 501 LINE",
"22 501 LINE",
"22 389 LINE",
"276 389 LINE",
"10 68 LINE",
"10 0 LINE",
"467 0 LINE"
);
}
);
};
layerId = "EA06CE92-4115-4482-8874-2441C279E756";
paths = (
{
closed = 1;
nodes = (
"467 112 LINE",
"206 112 LINE",
"472 433 LINE",
"472 501 LINE",
"22 501 LINE",
"22 389 LINE",
"276 389 LINE",
"10 68 LINE",
"10 0 LINE",
"467 0 LINE"
);
}
);
width = 482;
},
{
associatedMasterId = "020CB1CC-CCFF-4D13-936A-D2256F19E5D3";
layerId = "8AF6BA7E-4672-4BE4-A9AE-4DB948958C2C";
width = 600;
},
{
associatedMasterId = "020CB1CC-CCFF-4D13-936A-D2256F19E5D3";
layerId = "3E642313-044A-4B89-BD29-57DBC366D6D0";
width = 600;
},
{
anchors = (
{
name = bottom;
position = "{241, 0}";
},
{
name = top;
position = "{241, 470}";
}
);
background = {
paths = (
{
closed = 1;
nodes = (
"435 60 LINE",
"140 60 LINE",
"440 471 LINE",
"440 501 LINE",
"52 501 LINE",
"52 441 LINE",
"338 441 LINE",
"38 30 LINE",
"38 0 LINE",
"435 0 LINE"
);
}
);
};
layerId = "020CB1CC-CCFF-4D13-936A-D2256F19E5D3";
paths = (
{
closed = 1;
nodes = (
"413 30 LINE",
"107 30 LINE",
"418 491 LINE",
"418 501 LINE",
"70 501 LINE",
"70 471 LINE",
"369 471 LINE",
"58 10 LINE",
"58 0 LINE",
"413 0 LINE"
);
}
);
width = 476;
},
{
associatedMasterId = "020CB1CC-CCFF-4D13-936A-D2256F19E5D3";
layerId = "FF530248-C231-4840-B57A-7FD6B08ABD49";
width = 600;
},
{
anchors = (
{
name = bottom;
position = "{242, 0}";
},
{
name = top;
position = "{242, 470}";
}
);
layerId = "76C6DC51-463D-4A0C-B694-3EB424048C5D";
paths = (
{
closed = 1;
nodes = (
"433 61 LINE",
"144 61 LINE",
"438 469 LINE",
"438 501 LINE",
"52 501 LINE",
"52 440 LINE",
"334 440 LINE",
"40 32 LINE",
"40 0 LINE",
"433 0 LINE"
);
}
);
width = 478;
}
);
note = z;
unicode = 007A;
},
{
color = 0;
glyphname = AE;
lastChange = "2018-02-12 08:59:17 +0000";
layers = (
{
background = {
paths = (
{
closed = 1;
nodes = (
"907 728 LINE",
"368 728 LINE",
"-46 -28 LINE",
"101 -28 LINE",
"207 166 LINE",
"383 166 LINE",
"383 66 LINE SMOOTH",
"383 9 OFFCURVE",
"422 -28 OFFCURVE",
"480 -28 CURVE SMOOTH",
"907 -28 LINE",
"907 92 LINE",
"521 92 LINE",
"521 298 LINE",
"867 298 LINE",
"867 418 LINE",
"521 418 LINE",
"521 608 LINE",
"907 608 LINE"
);
},
{
closed = 1;
nodes = (
"434 580 LINE",
"383 580 LINE",
"383 284 LINE",
"272 284 LINE"
);
}
);
};
layerId = "EA06CE92-4115-4482-8874-2441C279E756";
paths = (
{
closed = 1;
nodes = (
"907 700 LINE",
"354 700 LINE",
"-32 0 LINE",
"109 0 LINE",
"200 166 LINE",
"389 166 LINE",
"389 94 LINE SMOOTH",
"389 37 OFFCURVE",
"428 0 OFFCURVE",
"486 0 CURVE SMOOTH",
"907 0 LINE",
"907 120 LINE",
"521 120 LINE",
"521 298 LINE",
"867 298 LINE",
"867 418 LINE",
"521 418 LINE",
"521 580 LINE",
"907 580 LINE"
);
},
{
closed = 1;
nodes = (
"432 612 LINE",
"401 612 LINE",
"401 284 LINE",
"258 284 LINE"
);
}
);
width = 934;
},
{
associatedMasterId = "020CB1CC-CCFF-4D13-936A-D2256F19E5D3";
layerId = "8AF6BA7E-4672-4BE4-A9AE-4DB948958C2C";
width = 600;
},
{
associatedMasterId = "020CB1CC-CCFF-4D13-936A-D2256F19E5D3";
layerId = "72587FD9-AEB7-46AB-BAD2-6478C311062A";
width = 600;
},
{
background = {
paths = (
{
closed = 1;
nodes = (
"25 0 LINE",
"99 0 LINE",
"184 196 LINE",
"452 196 LINE",
"497 0 LINE",
"905 0 LINE",
"905 59 LINE",
"550 59 LINE",
"488 336 LINE",
"833 336 LINE",
"833 395 LINE",
"474 395 LINE",
"418 641 LINE",
"771 641 LINE",
"771 700 LINE",
"365 700 LINE SMOOTH",
"358 700 OFFCURVE",
"348 701 OFFCURVE",
"336 701 CURVE"
);
},
{
closed = 1;
nodes = (
"357 619 LINE",
"439 255 LINE",
"209 255 LINE"
);
}
);
};
layerId = "020CB1CC-CCFF-4D13-936A-D2256F19E5D3";
paths = (
{
closed = 1;
nodes = (
"856 700 LINE",
"408 700 LINE",
"27 0 LINE",
"64 0 LINE",
"179 211 LINE",
"430 211 LINE",
"430 49 LINE SMOOTH",
"430 18 OFFCURVE",
"445 0 OFFCURVE",
"476 0 CURVE SMOOTH",
"856 0 LINE",
"856 30 LINE",
"470 30 LINE",
"470 343 LINE",
"816 343 LINE",
"816 373 LINE",
"470 373 LINE",
"470 670 LINE",
"856 670 LINE"
);
},
{
closed = 1;
nodes = (
"403 606 LINE",
"423 606 LINE",
"423 239 LINE",
"199 239 LINE"
);
}
);
width = 934;
},
{
associatedMasterId = "020CB1CC-CCFF-4D13-936A-D2256F19E5D3";
layerId = "22E02D65-6D56-45A4-8D59-A5152507AE4A";
width = 600;
},
{
layerId = "76C6DC51-463D-4A0C-B694-3EB424048C5D";
paths = (
{
closed = 1;
nodes = (
"875 700 LINE",
"388 700 LINE",
"5 0 LINE",
"81 0 LINE",
"187 194 LINE",
"415 194 LINE",
"415 66 LINE SMOOTH",
"415 25 OFFCURVE",
"439 0 OFFCURVE",
"480 0 CURVE SMOOTH",
"875 0 LINE",
"875 64 LINE",
"489 64 LINE",
"489 326 LINE",
"835 326 LINE",
"835 390 LINE",
"489 390 LINE",
"489 636 LINE",
"875 636 LINE"
);
},
{
closed = 1;
nodes = (
"414 608 LINE",
"415 608 LINE",
"415 256 LINE",
"221 256 LINE"
);
}
);
width = 934;
}
);
note = AE;
unicode = 00C6;
},
{
color = 0;
glyphname = Eth;
lastChange = "2018-02-12 08:59:17 +0000";
layers = (
{
background = {
paths = (
{
closed = 1;
nodes = (
"376 0 LINE SMOOTH",
"532 0 OFFCURVE",
"624 100 OFFCURVE",
"624 270 CURVE SMOOTH",
"624 470 LINE SMOOTH",
"624 608 OFFCURVE",
"524 700 OFFCURVE",
"374 700 CURVE SMOOTH",
"75 700 LINE",
"75 65 LINE SMOOTH",
"75 24 OFFCURVE",
"99 0 OFFCURVE",
"140 0 CURVE SMOOTH"
);
},
{
closed = 1;
nodes = (
"149 634 LINE",
"374 634 LINE SMOOTH",
"480 634 OFFCURVE",
"550 568 OFFCURVE",
"550 470 CURVE SMOOTH",
"550 270 LINE SMOOTH",
"550 142 OFFCURVE",
"485 66 OFFCURVE",
"376 66 CURVE SMOOTH",
"149 66 LINE"
);
},
{
closed = 1;
nodes = (
"-5 321 LINE",
"365 321 LINE",
"365 387 LINE",
"-5 387 LINE"
);
}
);
};
layerId = "EA06CE92-4115-4482-8874-2441C279E756";
paths = (
{
closed = 1;
nodes = (
"376 0 LINE SMOOTH",
"552 0 OFFCURVE",
"656 111 OFFCURVE",
"656 298 CURVE SMOOTH",
"656 442 LINE SMOOTH",
"656 597 OFFCURVE",
"543 700 OFFCURVE",
"374 700 CURVE SMOOTH",
"43 700 LINE",
"43 414 LINE",
"-37 414 LINE",
"-37 294 LINE",
"43 294 LINE",
"43 93 LINE SMOOTH",
"43 37 OFFCURVE",
"81 0 OFFCURVE",
"140 0 CURVE SMOOTH"
);
},
{
closed = 1;
nodes = (
"181 294 LINE",
"397 294 LINE",
"397 414 LINE",
"181 414 LINE",
"181 578 LINE",
"374 578 LINE SMOOTH",
"460 578 OFFCURVE",
"518 524 OFFCURVE",
"518 442 CURVE SMOOTH",
"518 298 LINE SMOOTH",
"518 187 OFFCURVE",
"465 122 OFFCURVE",
"376 122 CURVE SMOOTH",
"181 122 LINE"
);
}
);
width = 785;
},
{
associatedMasterId = "020CB1CC-CCFF-4D13-936A-D2256F19E5D3";
layerId = "8AF6BA7E-4672-4BE4-A9AE-4DB948958C2C";
width = 600;
},
{
associatedMasterId = "020CB1CC-CCFF-4D13-936A-D2256F19E5D3";
layerId = "1C2857D9-AA94-48AD-8219-62F627F317DF";
width = 600;
},
{
background = {
paths = (
{
closed = 1;
nodes = (
"197 641 LINE",
"491 641 LINE SMOOTH",
"582 641 OFFCURVE",
"654 561 OFFCURVE",
"654 470 CURVE SMOOTH",
"654 280 LINE SMOOTH",
"654 159 OFFCURVE",
"557 59 OFFCURVE",
"442 59 CURVE SMOOTH",
"197 59 LINE",
"197 327 LINE",
"445 327 LINE",
"445 389 LINE",
"197 389 LINE"
);
},
{
closed = 1;
nodes = (
"131 65 LINE SMOOTH",
"131 31 OFFCURVE",
"159 0 OFFCURVE",
"193 0 CURVE SMOOTH",
"442 0 LINE SMOOTH",
"594 0 OFFCURVE",
"721 122 OFFCURVE",
"721 280 CURVE SMOOTH",
"721 470 LINE SMOOTH",
"721 598 OFFCURVE",
"619 700 OFFCURVE",
"491 700 CURVE SMOOTH",
"131 700 LINE",
"131 389 LINE",
"65 389 LINE",
"65 327 LINE",
"131 327 LINE"
);
}
);
};
layerId = "020CB1CC-CCFF-4D13-936A-D2256F19E5D3";
paths = (
{
closed = 1;
nodes = (
"376 0 LINE SMOOTH",
"520 0 OFFCURVE",
"605 93 OFFCURVE",
"605 253 CURVE SMOOTH",
"605 487 LINE SMOOTH",
"605 615 OFFCURVE",
"512 700 OFFCURVE",
"374 700 CURVE SMOOTH",
"94 700 LINE",
"94 371 LINE",
"14 371 LINE",
"14 337 LINE",
"94 337 LINE",
"94 48 LINE SMOOTH",
"94 16 OFFCURVE",
"110 0 OFFCURVE",
"140 0 CURVE SMOOTH"
);
},
{
closed = 1;
nodes = (
"130 337 LINE",
"346 337 LINE",
"346 371 LINE",
"130 371 LINE",
"130 668 LINE",
"374 668 LINE SMOOTH",
"492 668 OFFCURVE",
"569 594 OFFCURVE",
"569 487 CURVE SMOOTH",
"569 253 LINE SMOOTH",
"569 115 OFFCURVE",
"497 32 OFFCURVE",
"376 32 CURVE SMOOTH",
"130 32 LINE"
);
}
);
width = 785;
},
{
associatedMasterId = "020CB1CC-CCFF-4D13-936A-D2256F19E5D3";
layerId = "60E48580-7502-43A1-8382-13D1D5EE7BEC";
width = 600;
},
{
layerId = "76C6DC51-463D-4A0C-B694-3EB424048C5D";
paths = (
{
closed = 1;
nodes = (
"376 0 LINE SMOOTH",
"532 0 OFFCURVE",
"624 100 OFFCURVE",
"624 270 CURVE SMOOTH",
"624 470 LINE SMOOTH",
"624 608 OFFCURVE",
"524 700 OFFCURVE",
"374 700 CURVE SMOOTH",
"75 700 LINE",
"75 65 LINE SMOOTH",
"75 24 OFFCURVE",
"99 0 OFFCURVE",
"140 0 CURVE SMOOTH"
);
},
{
closed = 1;
nodes = (
"149 634 LINE",
"374 634 LINE SMOOTH",
"480 634 OFFCURVE",
"550 568 OFFCURVE",
"550 470 CURVE SMOOTH",
"550 270 LINE SMOOTH",
"550 142 OFFCURVE",
"485 66 OFFCURVE",
"376 66 CURVE SMOOTH",
"149 66 LINE"
);
},
{
closed = 1;
nodes = (
"-5 321 LINE",
"365 321 LINE",
"365 387 LINE",
"-5 387 LINE"
);
}
);
width = 785;
}
);
note = Eth;
unicode = 00D0;
},
{
color = 10;
glyphname = Dcroat;
lastChange = "2018-02-12 08:59:17 +0000";
layers = (
{
background = {
paths = (
{
closed = 1;
nodes = (
"424 0 LINE SMOOTH",
"580 0 OFFCURVE",
"672 100 OFFCURVE",
"672 270 CURVE SMOOTH",
"672 470 LINE SMOOTH",
"672 608 OFFCURVE",
"572 700 OFFCURVE",
"422 700 CURVE SMOOTH",
"123 700 LINE",
"123 65 LINE SMOOTH",
"123 24 OFFCURVE",
"147 0 OFFCURVE",
"188 0 CURVE SMOOTH"
);
},
{
closed = 1;
nodes = (
"197 634 LINE",
"422 634 LINE SMOOTH",
"528 634 OFFCURVE",
"598 568 OFFCURVE",
"598 470 CURVE SMOOTH",
"598 270 LINE SMOOTH",
"598 142 OFFCURVE",
"533 66 OFFCURVE",
"424 66 CURVE SMOOTH",
"197 66 LINE"
);
},
{
closed = 1;
nodes = (
"33 319 LINE",
"383 319 LINE",
"383 384 LINE",
"33 384 LINE"
);
}
);
};
layerId = "EA06CE92-4115-4482-8874-2441C279E756";
paths = (
{
closed = 1;
nodes = (
"-37 294 LINE",
"397 294 LINE",
"397 414 LINE",
"-37 414 LINE"
);
},
{
closed = 1;
nodes = (
"376 0 LINE SMOOTH",
"552 0 OFFCURVE",
"656 111 OFFCURVE",
"656 298 CURVE SMOOTH",
"656 442 LINE SMOOTH",
"656 597 OFFCURVE",
"543 700 OFFCURVE",
"374 700 CURVE SMOOTH",
"43 700 LINE",
"43 93 LINE SMOOTH",
"43 37 OFFCURVE",
"81 0 OFFCURVE",
"140 0 CURVE SMOOTH"
);
},
{
closed = 1;
nodes = (
"181 578 LINE",
"374 578 LINE SMOOTH",
"460 578 OFFCURVE",
"518 524 OFFCURVE",
"518 442 CURVE SMOOTH",
"518 298 LINE SMOOTH",
"518 187 OFFCURVE",
"465 122 OFFCURVE",
"376 122 CURVE SMOOTH",
"181 122 LINE"
);
}
);
width = 785;
},
{
associatedMasterId = "020CB1CC-CCFF-4D13-936A-D2256F19E5D3";
layerId = "8AF6BA7E-4672-4BE4-A9AE-4DB948958C2C";
width = 600;
},
{
associatedMasterId = "020CB1CC-CCFF-4D13-936A-D2256F19E5D3";
layerId = "4BDFACD1-AD93-43CE-AE5C-F5EFEC007094";
width = 600;
},
{
background = {
paths = (
{
closed = 1;
nodes = (
"197 641 LINE",
"491 641 LINE SMOOTH",
"582 641 OFFCURVE",
"654 561 OFFCURVE",
"654 470 CURVE SMOOTH",
"654 280 LINE SMOOTH",
"654 159 OFFCURVE",
"557 59 OFFCURVE",
"442 59 CURVE SMOOTH",
"197 59 LINE",
"197 327 LINE",
"445 327 LINE",
"445 389 LINE",
"197 389 LINE"
);
},
{
closed = 1;
nodes = (
"131 65 LINE SMOOTH",
"131 31 OFFCURVE",
"159 0 OFFCURVE",
"193 0 CURVE SMOOTH",
"442 0 LINE SMOOTH",
"594 0 OFFCURVE",
"721 122 OFFCURVE",
"721 280 CURVE SMOOTH",
"721 470 LINE SMOOTH",
"721 598 OFFCURVE",
"619 700 OFFCURVE",
"491 700 CURVE SMOOTH",
"131 700 LINE",
"131 389 LINE",
"65 389 LINE",
"65 327 LINE",
"131 327 LINE"
);
}
);
};
layerId = "020CB1CC-CCFF-4D13-936A-D2256F19E5D3";
paths = (
{
closed = 1;
nodes = (
"424 0 LINE SMOOTH",
"580 0 OFFCURVE",
"672 100 OFFCURVE",
"672 270 CURVE SMOOTH",
"672 470 LINE SMOOTH",
"672 608 OFFCURVE",
"572 700 OFFCURVE",
"422 700 CURVE SMOOTH",
"123 700 LINE",
"123 65 LINE SMOOTH",
"123 24 OFFCURVE",
"147 0 OFFCURVE",
"188 0 CURVE SMOOTH"
);
},
{
closed = 1;
nodes = (
"197 634 LINE",
"422 634 LINE SMOOTH",
"528 634 OFFCURVE",
"598 568 OFFCURVE",
"598 470 CURVE SMOOTH",
"598 270 LINE SMOOTH",
"598 142 OFFCURVE",
"533 66 OFFCURVE",
"424 66 CURVE SMOOTH",
"197 66 LINE"
);
},
{
closed = 1;
nodes = (
"33 319 LINE",
"383 319 LINE",
"383 384 LINE",
"33 384 LINE"
);
}
);
width = 785;
},
{
associatedMasterId = "020CB1CC-CCFF-4D13-936A-D2256F19E5D3";
layerId = "630CEC8A-ACE6-4A7E-96AE-467A40DB05DC";
width = 600;
},
{
layerId = "76C6DC51-463D-4A0C-B694-3EB424048C5D";
paths = (
{
closed = 1;
nodes = (
"424 0 LINE SMOOTH",
"580 0 OFFCURVE",
"672 100 OFFCURVE",
"672 270 CURVE SMOOTH",
"672 470 LINE SMOOTH",
"672 608 OFFCURVE",
"572 700 OFFCURVE",
"422 700 CURVE SMOOTH",
"123 700 LINE",
"123 65 LINE SMOOTH",
"123 24 OFFCURVE",
"147 0 OFFCURVE",
"188 0 CURVE SMOOTH"
);
},
{
closed = 1;
nodes = (
"197 634 LINE",
"422 634 LINE SMOOTH",
"528 634 OFFCURVE",
"598 568 OFFCURVE",
"598 470 CURVE SMOOTH",
"598 270 LINE SMOOTH",
"598 142 OFFCURVE",
"533 66 OFFCURVE",
"424 66 CURVE SMOOTH",
"197 66 LINE"
);
},
{
closed = 1;
nodes = (
"33 319 LINE",
"383 319 LINE",
"383 384 LINE",
"33 384 LINE"
);
}
);
width = 785;
}
);
note = Dcroat;
rightKerningGroup = D;
unicode = 0110;
},
{
color = 10;
glyphname = Ecaron;
lastChange = "2018-02-12 08:59:17 +0000";
layers = (
{
components = (
{
name = E;
},
{
name = caroncomb;
transform = "{1, 0, 0, 1, 326, 230}";
}
);
layerId = "EA06CE92-4115-4482-8874-2441C279E756";
width = 603;
},
{
associatedMasterId = "020CB1CC-CCFF-4D13-936A-D2256F19E5D3";
layerId = "8AF6BA7E-4672-4BE4-A9AE-4DB948958C2C";
width = 600;
},
{
associatedMasterId = "020CB1CC-CCFF-4D13-936A-D2256F19E5D3";
layerId = "96A1559D-18AA-4CB4-9494-F4F458E93C23";
width = 600;
},
{
background = {
paths = (
{
closed = 1;
nodes = (
"554 0 LINE",
"571 179 LINE",
"544 179 LINE",
"538 124 OFFCURVE",
"520 40 OFFCURVE",
"456 40 CURVE SMOOTH",
"201 40 LINE",
"201 659 LINE",
"441 659 LINE SMOOTH",
"516 659 OFFCURVE",
"525 567 OFFCURVE",
"528 527 CURVE",
"555 527 LINE",
"555 700 LINE",
"16 700 LINE",
"16 673 LINE",
"44 673 LINE SMOOTH",
"83 673 OFFCURVE",
"103 662 OFFCURVE",
"103 637 CURVE SMOOTH",
"103 62 LINE SMOOTH",
"103 37 OFFCURVE",
"83 26 OFFCURVE",
"44 26 CURVE SMOOTH",
"16 26 LINE",
"16 0 LINE"
);
},
{
closed = 1;
nodes = (
"455 251 LINE",
"455 485 LINE",
"431 485 LINE",
"427 436 OFFCURVE",
"424 388 OFFCURVE",
"379 388 CURVE SMOOTH",
"162 388 LINE",
"162 348 LINE",
"379 348 LINE SMOOTH",
"424 348 OFFCURVE",
"427 300 OFFCURVE",
"431 251 CURVE"
);
},
{
closed = 1;
nodes = (
"357 782 LINE",
"481 911 LINE",
"462 932 LINE",
"354 847 LINE",
"346 840 OFFCURVE",
"337 836 OFFCURVE",
"331 836 CURVE SMOOTH",
"325 836 OFFCURVE",
"317 840 OFFCURVE",
"307 847 CURVE",
"199 932 LINE",
"180 911 LINE",
"304 782 LINE"
);
}
);
};
components = (
{
name = E;
},
{
name = caroncomb;
transform = "{1, 0, 0, 1, 323, 230}";
}
);
layerId = "020CB1CC-CCFF-4D13-936A-D2256F19E5D3";
width = 598;
},
{
associatedMasterId = "020CB1CC-CCFF-4D13-936A-D2256F19E5D3";
layerId = "538A518E-BD83-4D05-95C1-926B61E38F67";
width = 600;
},
{
components = (
{
name = E;
},
{
name = caroncomb;
transform = "{1, 0, 0, 1, 324, 230}";
}
);
layerId = "76C6DC51-463D-4A0C-B694-3EB424048C5D";
width = 600;
}
);
note = Ecaron;
unicode = 011A;
},
{
color = 10;
glyphname = Ecircumflex;
lastChange = "2018-02-12 08:59:17 +0000";
layers = (
{
components = (
{
name = E;
},
{
name = circumflexcomb;
transform = "{1, 0, 0, 1, 326, 230}";
}
);
layerId = "EA06CE92-4115-4482-8874-2441C279E756";
width = 603;
},
{
associatedMasterId = "020CB1CC-CCFF-4D13-936A-D2256F19E5D3";
layerId = "8AF6BA7E-4672-4BE4-A9AE-4DB948958C2C";
width = 600;
},
{
associatedMasterId = "020CB1CC-CCFF-4D13-936A-D2256F19E5D3";
layerId = "E2E4F19E-234C-44B9-AA26-800E9196CEEC";
width = 600;
},
{
background = {
paths = (
{
closed = 1;
nodes = (
"554 0 LINE",
"571 179 LINE",
"544 179 LINE",
"538 124 OFFCURVE",
"520 40 OFFCURVE",
"456 40 CURVE SMOOTH",
"201 40 LINE",
"201 659 LINE",
"441 659 LINE SMOOTH",
"516 659 OFFCURVE",
"525 567 OFFCURVE",
"528 527 CURVE",
"555 527 LINE",
"555 700 LINE",
"16 700 LINE",
"16 673 LINE",
"44 673 LINE SMOOTH",
"83 673 OFFCURVE",
"103 662 OFFCURVE",
"103 637 CURVE SMOOTH",
"103 62 LINE SMOOTH",
"103 37 OFFCURVE",
"83 26 OFFCURVE",
"44 26 CURVE SMOOTH",
"16 26 LINE",
"16 0 LINE"
);
},
{
closed = 1;
nodes = (
"455 251 LINE",
"455 485 LINE",
"431 485 LINE",
"427 436 OFFCURVE",
"424 388 OFFCURVE",
"379 388 CURVE SMOOTH",
"162 388 LINE",
"162 348 LINE",
"379 348 LINE SMOOTH",
"424 348 OFFCURVE",
"427 300 OFFCURVE",
"431 251 CURVE"
);
},
{
closed = 1;
nodes = (
"304 868 LINE SMOOTH",
"312 874 OFFCURVE",
"322 879 OFFCURVE",
"328 879 CURVE SMOOTH",
"334 879 OFFCURVE",
"342 874 OFFCURVE",
"351 868 CURVE",
"459 782 LINE",
"478 803 LINE",
"354 932 LINE",
"301 932 LINE",
"177 803 LINE",
"196 782 LINE"
);
}
);
};
components = (
{
name = E;
},
{
name = circumflexcomb;
transform = "{1, 0, 0, 1, 323, 230}";
}
);
layerId = "020CB1CC-CCFF-4D13-936A-D2256F19E5D3";
width = 598;
},
{
associatedMasterId = "020CB1CC-CCFF-4D13-936A-D2256F19E5D3";
layerId = "ECFBCD0E-B8B9-4819-AD09-FA395D123087";
width = 600;
},
{
components = (
{
name = E;
},
{
name = circumflexcomb;
transform = "{1, 0, 0, 1, 324, 230}";
}
);
layerId = "76C6DC51-463D-4A0C-B694-3EB424048C5D";
width = 600;
}
);
note = Ecircumflex;
unicode = 00CA;
},
